G04 #@! TF.GenerationSoftware,KiCad,Pcbnew,8.0.2-8.0.2-0~ubuntu20.04.1*
G04 #@! TF.CreationDate,2024-05-16T16:26:20-07:00*
G04 #@! TF.ProjectId,cpm_proj,63706d5f-7072-46f6-9a2e-6b696361645f,rev?*
G04 #@! TF.SameCoordinates,Original*
G04 #@! TF.FileFunction,Soldermask,Bot*
G04 #@! TF.FilePolarity,Negative*
%FSLAX46Y46*%
G04 Gerber Fmt 4.6, Leading zero omitted, Abs format (unit mm)*
G04 Created by KiCad (PCBNEW 8.0.2-8.0.2-0~ubuntu20.04.1) date 2024-05-16 16:26:20*
%MOMM*%
%LPD*%
G01*
G04 APERTURE LIST*
%ADD10R,1.700000X1.700000*%
%ADD11O,1.700000X1.700000*%
%ADD12C,1.600000*%
%ADD13O,1.600000X1.600000*%
%ADD14O,2.000000X1.905000*%
%ADD15R,2.000000X1.905000*%
%ADD16O,3.500000X3.500000*%
%ADD17C,2.540000*%
%ADD18C,2.640000*%
%ADD19C,1.050000*%
%ADD20O,1.000000X1.800000*%
%ADD21O,1.000000X2.100000*%
%ADD22C,0.650000*%
%ADD23C,3.500000*%
G04 APERTURE END LIST*
D10*
X119000000Y-91540000D03*
D11*
X119000000Y-89000000D03*
X119000000Y-86460000D03*
D10*
X157500000Y-57000000D03*
D11*
X157500000Y-54460000D03*
X157500000Y-51920000D03*
X157500000Y-49380000D03*
X157500000Y-46840000D03*
X157500000Y-44300000D03*
D12*
X65420000Y-81500000D03*
D13*
X75580000Y-81500000D03*
D12*
X65420000Y-65500000D03*
D13*
X75580000Y-65500000D03*
D12*
X65420000Y-70500000D03*
D13*
X75580000Y-70500000D03*
D12*
X80230000Y-81500000D03*
D13*
X90390000Y-81500000D03*
D12*
X107750000Y-73000000D03*
X104250000Y-73000000D03*
D10*
X147125000Y-101800000D03*
D11*
X149665000Y-101800000D03*
D14*
X89000000Y-47420000D03*
X89000000Y-49960000D03*
D15*
X89000000Y-52500000D03*
D16*
X72340000Y-49960000D03*
D10*
X106000000Y-126800000D03*
X143975000Y-137500000D03*
D11*
X146515000Y-137500000D03*
X149055000Y-137500000D03*
D12*
X65420000Y-76500000D03*
D13*
X75580000Y-76500000D03*
D10*
X159250000Y-130750000D03*
D11*
X159250000Y-128210000D03*
X159250000Y-125670000D03*
X159250000Y-123130000D03*
D12*
X107750000Y-63450000D03*
X104250000Y-63450000D03*
X79000000Y-117320000D03*
D13*
X79000000Y-127480000D03*
D12*
X80420000Y-70500000D03*
D13*
X90580000Y-70500000D03*
D12*
X80420000Y-65500000D03*
D13*
X90580000Y-65500000D03*
D10*
X114275000Y-119200000D03*
D11*
X111735000Y-119200000D03*
D10*
X66500000Y-106225000D03*
D11*
X66500000Y-108765000D03*
D10*
X66500000Y-117775000D03*
D11*
X66500000Y-115235000D03*
D10*
X133975000Y-137500000D03*
D11*
X136515000Y-137500000D03*
X139055000Y-137500000D03*
D12*
X83800000Y-117320000D03*
D13*
X83800000Y-127480000D03*
D10*
X93000000Y-93000000D03*
X67725000Y-129000000D03*
D11*
X70265000Y-129000000D03*
X72805000Y-129000000D03*
D10*
X97000000Y-115000000D03*
D17*
X154500000Y-67250000D03*
D18*
X151960000Y-64710000D03*
X151960000Y-69790000D03*
X157040000Y-64710000D03*
X157040000Y-69790000D03*
D10*
X126000000Y-71925000D03*
D11*
X126000000Y-74465000D03*
D10*
X106000000Y-136200000D03*
D12*
X72420000Y-60500000D03*
D13*
X82580000Y-60500000D03*
D10*
X115300000Y-137000000D03*
D11*
X117840000Y-137000000D03*
X120380000Y-137000000D03*
X122920000Y-137000000D03*
X125460000Y-137000000D03*
X128000000Y-137000000D03*
D10*
X130275000Y-86750000D03*
D11*
X127735000Y-86750000D03*
D10*
X111000000Y-93000000D03*
D19*
X149920000Y-95500000D03*
X149920000Y-94230000D03*
X151190000Y-95500000D03*
X151190000Y-94230000D03*
X152460000Y-95500000D03*
X152460000Y-94230000D03*
X153730000Y-95500000D03*
X153730000Y-94230000D03*
X155000000Y-95500000D03*
X155000000Y-94230000D03*
D10*
X67725000Y-134250000D03*
D11*
X70265000Y-134250000D03*
X72805000Y-134250000D03*
D12*
X80420000Y-76500000D03*
D13*
X90580000Y-76500000D03*
D20*
X104680000Y-43585000D03*
D21*
X104680000Y-47765000D03*
D20*
X113320000Y-43585000D03*
D21*
X113320000Y-47765000D03*
D22*
X106110000Y-47265000D03*
X111890000Y-47265000D03*
D10*
X159000000Y-105000000D03*
D11*
X159000000Y-102460000D03*
X159000000Y-99920000D03*
D10*
X100000000Y-93000000D03*
D11*
X102540000Y-93000000D03*
X105080000Y-93000000D03*
D10*
X126250000Y-46420000D03*
D11*
X126250000Y-48960000D03*
X126250000Y-51500000D03*
X126250000Y-54040000D03*
D10*
X108000000Y-82000000D03*
D23*
X125000000Y-100000000D03*
X85000000Y-134500000D03*
X66500000Y-94000000D03*
X119250000Y-47500000D03*
M02*
