%TF.GenerationSoftware,KiCad,Pcbnew,8.0.2-8.0.2-0~ubuntu20.04.1*%
%TF.CreationDate,2024-05-16T16:26:24-07:00*%
%TF.ProjectId,cpm_proj,63706d5f-7072-46f6-9a2e-6b696361645f,rev?*%
%TF.SameCoordinates,Original*%
%TF.FileFunction,Drillmap*%
%TF.FilePolarity,Positive*%
%FSLAX45Y45*%
G04 Gerber Fmt 4.5, Leading zero omitted, Abs format (unit mm)*
G04 Created by KiCad (PCBNEW 8.0.2-8.0.2-0~ubuntu20.04.1) date 2024-05-16 16:26:24*
%MOMM*%
%LPD*%
G01*
G04 APERTURE LIST*
%ADD10C,0.200000*%
%ADD11C,0.100000*%
%ADD12C,0.350000*%
G04 APERTURE END LIST*
D10*
X6200000Y-4100000D02*
X16200000Y-4100000D01*
X16200000Y-14100000D01*
X6200000Y-14100000D01*
X6200000Y-4100000D01*
D11*
X10578500Y-4694000D02*
X10643500Y-4759000D01*
X10643500Y-4694000D02*
X10578500Y-4759000D01*
X11156500Y-4694000D02*
X11221500Y-4759000D01*
X11221500Y-4694000D02*
X11156500Y-4759000D01*
D12*
X6825000Y-9400000D02*
G75*
G02*
X6475000Y-9400000I-175000J0D01*
G01*
X6475000Y-9400000D02*
G75*
G02*
X6825000Y-9400000I175000J0D01*
G01*
X7409000Y-4996000D02*
G75*
G02*
X7059000Y-4996000I-175000J0D01*
G01*
X7059000Y-4996000D02*
G75*
G02*
X7409000Y-4996000I175000J0D01*
G01*
X8675000Y-13450000D02*
G75*
G02*
X8325000Y-13450000I-175000J0D01*
G01*
X8325000Y-13450000D02*
G75*
G02*
X8675000Y-13450000I175000J0D01*
G01*
X12100000Y-4750000D02*
G75*
G02*
X11750000Y-4750000I-175000J0D01*
G01*
X11750000Y-4750000D02*
G75*
G02*
X12100000Y-4750000I175000J0D01*
G01*
X12675000Y-10000000D02*
G75*
G02*
X12325000Y-10000000I-175000J0D01*
G01*
X12325000Y-10000000D02*
G75*
G02*
X12675000Y-10000000I175000J0D01*
G01*
D10*
X6450777Y-14421484D02*
X6450777Y-14221484D01*
X6450777Y-14221484D02*
X6498396Y-14221484D01*
X6498396Y-14221484D02*
X6526967Y-14231008D01*
X6526967Y-14231008D02*
X6546015Y-14250055D01*
X6546015Y-14250055D02*
X6555539Y-14269103D01*
X6555539Y-14269103D02*
X6565062Y-14307198D01*
X6565062Y-14307198D02*
X6565062Y-14335769D01*
X6565062Y-14335769D02*
X6555539Y-14373865D01*
X6555539Y-14373865D02*
X6546015Y-14392912D01*
X6546015Y-14392912D02*
X6526967Y-14411960D01*
X6526967Y-14411960D02*
X6498396Y-14421484D01*
X6498396Y-14421484D02*
X6450777Y-14421484D01*
X6650777Y-14421484D02*
X6650777Y-14288150D01*
X6650777Y-14326246D02*
X6660301Y-14307198D01*
X6660301Y-14307198D02*
X6669824Y-14297674D01*
X6669824Y-14297674D02*
X6688872Y-14288150D01*
X6688872Y-14288150D02*
X6707920Y-14288150D01*
X6774586Y-14421484D02*
X6774586Y-14288150D01*
X6774586Y-14221484D02*
X6765062Y-14231008D01*
X6765062Y-14231008D02*
X6774586Y-14240531D01*
X6774586Y-14240531D02*
X6784110Y-14231008D01*
X6784110Y-14231008D02*
X6774586Y-14221484D01*
X6774586Y-14221484D02*
X6774586Y-14240531D01*
X6898396Y-14421484D02*
X6879348Y-14411960D01*
X6879348Y-14411960D02*
X6869824Y-14392912D01*
X6869824Y-14392912D02*
X6869824Y-14221484D01*
X7003158Y-14421484D02*
X6984110Y-14411960D01*
X6984110Y-14411960D02*
X6974586Y-14392912D01*
X6974586Y-14392912D02*
X6974586Y-14221484D01*
X7231729Y-14421484D02*
X7231729Y-14221484D01*
X7231729Y-14221484D02*
X7298396Y-14364341D01*
X7298396Y-14364341D02*
X7365062Y-14221484D01*
X7365062Y-14221484D02*
X7365062Y-14421484D01*
X7546015Y-14421484D02*
X7546015Y-14316722D01*
X7546015Y-14316722D02*
X7536491Y-14297674D01*
X7536491Y-14297674D02*
X7517443Y-14288150D01*
X7517443Y-14288150D02*
X7479348Y-14288150D01*
X7479348Y-14288150D02*
X7460301Y-14297674D01*
X7546015Y-14411960D02*
X7526967Y-14421484D01*
X7526967Y-14421484D02*
X7479348Y-14421484D01*
X7479348Y-14421484D02*
X7460301Y-14411960D01*
X7460301Y-14411960D02*
X7450777Y-14392912D01*
X7450777Y-14392912D02*
X7450777Y-14373865D01*
X7450777Y-14373865D02*
X7460301Y-14354817D01*
X7460301Y-14354817D02*
X7479348Y-14345293D01*
X7479348Y-14345293D02*
X7526967Y-14345293D01*
X7526967Y-14345293D02*
X7546015Y-14335769D01*
X7641253Y-14288150D02*
X7641253Y-14488150D01*
X7641253Y-14297674D02*
X7660301Y-14288150D01*
X7660301Y-14288150D02*
X7698396Y-14288150D01*
X7698396Y-14288150D02*
X7717443Y-14297674D01*
X7717443Y-14297674D02*
X7726967Y-14307198D01*
X7726967Y-14307198D02*
X7736491Y-14326246D01*
X7736491Y-14326246D02*
X7736491Y-14383388D01*
X7736491Y-14383388D02*
X7726967Y-14402436D01*
X7726967Y-14402436D02*
X7717443Y-14411960D01*
X7717443Y-14411960D02*
X7698396Y-14421484D01*
X7698396Y-14421484D02*
X7660301Y-14421484D01*
X7660301Y-14421484D02*
X7641253Y-14411960D01*
X7822205Y-14402436D02*
X7831729Y-14411960D01*
X7831729Y-14411960D02*
X7822205Y-14421484D01*
X7822205Y-14421484D02*
X7812682Y-14411960D01*
X7812682Y-14411960D02*
X7822205Y-14402436D01*
X7822205Y-14402436D02*
X7822205Y-14421484D01*
X7822205Y-14297674D02*
X7831729Y-14307198D01*
X7831729Y-14307198D02*
X7822205Y-14316722D01*
X7822205Y-14316722D02*
X7812682Y-14307198D01*
X7812682Y-14307198D02*
X7822205Y-14297674D01*
X7822205Y-14297674D02*
X7822205Y-14316722D01*
D11*
X6125000Y-14717500D02*
X6190000Y-14782500D01*
X6190000Y-14717500D02*
X6125000Y-14782500D01*
D10*
X6488872Y-14641484D02*
X6507920Y-14641484D01*
X6507920Y-14641484D02*
X6526967Y-14651008D01*
X6526967Y-14651008D02*
X6536491Y-14660531D01*
X6536491Y-14660531D02*
X6546015Y-14679579D01*
X6546015Y-14679579D02*
X6555539Y-14717674D01*
X6555539Y-14717674D02*
X6555539Y-14765293D01*
X6555539Y-14765293D02*
X6546015Y-14803388D01*
X6546015Y-14803388D02*
X6536491Y-14822436D01*
X6536491Y-14822436D02*
X6526967Y-14831960D01*
X6526967Y-14831960D02*
X6507920Y-14841484D01*
X6507920Y-14841484D02*
X6488872Y-14841484D01*
X6488872Y-14841484D02*
X6469824Y-14831960D01*
X6469824Y-14831960D02*
X6460301Y-14822436D01*
X6460301Y-14822436D02*
X6450777Y-14803388D01*
X6450777Y-14803388D02*
X6441253Y-14765293D01*
X6441253Y-14765293D02*
X6441253Y-14717674D01*
X6441253Y-14717674D02*
X6450777Y-14679579D01*
X6450777Y-14679579D02*
X6460301Y-14660531D01*
X6460301Y-14660531D02*
X6469824Y-14651008D01*
X6469824Y-14651008D02*
X6488872Y-14641484D01*
X6641253Y-14822436D02*
X6650777Y-14831960D01*
X6650777Y-14831960D02*
X6641253Y-14841484D01*
X6641253Y-14841484D02*
X6631729Y-14831960D01*
X6631729Y-14831960D02*
X6641253Y-14822436D01*
X6641253Y-14822436D02*
X6641253Y-14841484D01*
X6822205Y-14641484D02*
X6784110Y-14641484D01*
X6784110Y-14641484D02*
X6765062Y-14651008D01*
X6765062Y-14651008D02*
X6755539Y-14660531D01*
X6755539Y-14660531D02*
X6736491Y-14689103D01*
X6736491Y-14689103D02*
X6726967Y-14727198D01*
X6726967Y-14727198D02*
X6726967Y-14803388D01*
X6726967Y-14803388D02*
X6736491Y-14822436D01*
X6736491Y-14822436D02*
X6746015Y-14831960D01*
X6746015Y-14831960D02*
X6765062Y-14841484D01*
X6765062Y-14841484D02*
X6803158Y-14841484D01*
X6803158Y-14841484D02*
X6822205Y-14831960D01*
X6822205Y-14831960D02*
X6831729Y-14822436D01*
X6831729Y-14822436D02*
X6841253Y-14803388D01*
X6841253Y-14803388D02*
X6841253Y-14755769D01*
X6841253Y-14755769D02*
X6831729Y-14736722D01*
X6831729Y-14736722D02*
X6822205Y-14727198D01*
X6822205Y-14727198D02*
X6803158Y-14717674D01*
X6803158Y-14717674D02*
X6765062Y-14717674D01*
X6765062Y-14717674D02*
X6746015Y-14727198D01*
X6746015Y-14727198D02*
X6736491Y-14736722D01*
X6736491Y-14736722D02*
X6726967Y-14755769D01*
X7022205Y-14641484D02*
X6926967Y-14641484D01*
X6926967Y-14641484D02*
X6917443Y-14736722D01*
X6917443Y-14736722D02*
X6926967Y-14727198D01*
X6926967Y-14727198D02*
X6946015Y-14717674D01*
X6946015Y-14717674D02*
X6993634Y-14717674D01*
X6993634Y-14717674D02*
X7012682Y-14727198D01*
X7012682Y-14727198D02*
X7022205Y-14736722D01*
X7022205Y-14736722D02*
X7031729Y-14755769D01*
X7031729Y-14755769D02*
X7031729Y-14803388D01*
X7031729Y-14803388D02*
X7022205Y-14822436D01*
X7022205Y-14822436D02*
X7012682Y-14831960D01*
X7012682Y-14831960D02*
X6993634Y-14841484D01*
X6993634Y-14841484D02*
X6946015Y-14841484D01*
X6946015Y-14841484D02*
X6926967Y-14831960D01*
X6926967Y-14831960D02*
X6917443Y-14822436D01*
X7155539Y-14641484D02*
X7174586Y-14641484D01*
X7174586Y-14641484D02*
X7193634Y-14651008D01*
X7193634Y-14651008D02*
X7203158Y-14660531D01*
X7203158Y-14660531D02*
X7212682Y-14679579D01*
X7212682Y-14679579D02*
X7222205Y-14717674D01*
X7222205Y-14717674D02*
X7222205Y-14765293D01*
X7222205Y-14765293D02*
X7212682Y-14803388D01*
X7212682Y-14803388D02*
X7203158Y-14822436D01*
X7203158Y-14822436D02*
X7193634Y-14831960D01*
X7193634Y-14831960D02*
X7174586Y-14841484D01*
X7174586Y-14841484D02*
X7155539Y-14841484D01*
X7155539Y-14841484D02*
X7136491Y-14831960D01*
X7136491Y-14831960D02*
X7126967Y-14822436D01*
X7126967Y-14822436D02*
X7117443Y-14803388D01*
X7117443Y-14803388D02*
X7107920Y-14765293D01*
X7107920Y-14765293D02*
X7107920Y-14717674D01*
X7107920Y-14717674D02*
X7117443Y-14679579D01*
X7117443Y-14679579D02*
X7126967Y-14660531D01*
X7126967Y-14660531D02*
X7136491Y-14651008D01*
X7136491Y-14651008D02*
X7155539Y-14641484D01*
X7307920Y-14841484D02*
X7307920Y-14708150D01*
X7307920Y-14727198D02*
X7317443Y-14717674D01*
X7317443Y-14717674D02*
X7336491Y-14708150D01*
X7336491Y-14708150D02*
X7365063Y-14708150D01*
X7365063Y-14708150D02*
X7384110Y-14717674D01*
X7384110Y-14717674D02*
X7393634Y-14736722D01*
X7393634Y-14736722D02*
X7393634Y-14841484D01*
X7393634Y-14736722D02*
X7403158Y-14717674D01*
X7403158Y-14717674D02*
X7422205Y-14708150D01*
X7422205Y-14708150D02*
X7450777Y-14708150D01*
X7450777Y-14708150D02*
X7469824Y-14717674D01*
X7469824Y-14717674D02*
X7479348Y-14736722D01*
X7479348Y-14736722D02*
X7479348Y-14841484D01*
X7574586Y-14841484D02*
X7574586Y-14708150D01*
X7574586Y-14727198D02*
X7584110Y-14717674D01*
X7584110Y-14717674D02*
X7603158Y-14708150D01*
X7603158Y-14708150D02*
X7631729Y-14708150D01*
X7631729Y-14708150D02*
X7650777Y-14717674D01*
X7650777Y-14717674D02*
X7660301Y-14736722D01*
X7660301Y-14736722D02*
X7660301Y-14841484D01*
X7660301Y-14736722D02*
X7669824Y-14717674D01*
X7669824Y-14717674D02*
X7688872Y-14708150D01*
X7688872Y-14708150D02*
X7717443Y-14708150D01*
X7717443Y-14708150D02*
X7736491Y-14717674D01*
X7736491Y-14717674D02*
X7746015Y-14736722D01*
X7746015Y-14736722D02*
X7746015Y-14841484D01*
X8136491Y-14631960D02*
X7965063Y-14889103D01*
X8393634Y-14641484D02*
X8412682Y-14641484D01*
X8412682Y-14641484D02*
X8431729Y-14651008D01*
X8431729Y-14651008D02*
X8441253Y-14660531D01*
X8441253Y-14660531D02*
X8450777Y-14679579D01*
X8450777Y-14679579D02*
X8460301Y-14717674D01*
X8460301Y-14717674D02*
X8460301Y-14765293D01*
X8460301Y-14765293D02*
X8450777Y-14803388D01*
X8450777Y-14803388D02*
X8441253Y-14822436D01*
X8441253Y-14822436D02*
X8431729Y-14831960D01*
X8431729Y-14831960D02*
X8412682Y-14841484D01*
X8412682Y-14841484D02*
X8393634Y-14841484D01*
X8393634Y-14841484D02*
X8374586Y-14831960D01*
X8374586Y-14831960D02*
X8365063Y-14822436D01*
X8365063Y-14822436D02*
X8355539Y-14803388D01*
X8355539Y-14803388D02*
X8346015Y-14765293D01*
X8346015Y-14765293D02*
X8346015Y-14717674D01*
X8346015Y-14717674D02*
X8355539Y-14679579D01*
X8355539Y-14679579D02*
X8365063Y-14660531D01*
X8365063Y-14660531D02*
X8374586Y-14651008D01*
X8374586Y-14651008D02*
X8393634Y-14641484D01*
X8546015Y-14822436D02*
X8555539Y-14831960D01*
X8555539Y-14831960D02*
X8546015Y-14841484D01*
X8546015Y-14841484D02*
X8536491Y-14831960D01*
X8536491Y-14831960D02*
X8546015Y-14822436D01*
X8546015Y-14822436D02*
X8546015Y-14841484D01*
X8679348Y-14641484D02*
X8698396Y-14641484D01*
X8698396Y-14641484D02*
X8717444Y-14651008D01*
X8717444Y-14651008D02*
X8726968Y-14660531D01*
X8726968Y-14660531D02*
X8736491Y-14679579D01*
X8736491Y-14679579D02*
X8746015Y-14717674D01*
X8746015Y-14717674D02*
X8746015Y-14765293D01*
X8746015Y-14765293D02*
X8736491Y-14803388D01*
X8736491Y-14803388D02*
X8726968Y-14822436D01*
X8726968Y-14822436D02*
X8717444Y-14831960D01*
X8717444Y-14831960D02*
X8698396Y-14841484D01*
X8698396Y-14841484D02*
X8679348Y-14841484D01*
X8679348Y-14841484D02*
X8660301Y-14831960D01*
X8660301Y-14831960D02*
X8650777Y-14822436D01*
X8650777Y-14822436D02*
X8641253Y-14803388D01*
X8641253Y-14803388D02*
X8631729Y-14765293D01*
X8631729Y-14765293D02*
X8631729Y-14717674D01*
X8631729Y-14717674D02*
X8641253Y-14679579D01*
X8641253Y-14679579D02*
X8650777Y-14660531D01*
X8650777Y-14660531D02*
X8660301Y-14651008D01*
X8660301Y-14651008D02*
X8679348Y-14641484D01*
X8822206Y-14660531D02*
X8831729Y-14651008D01*
X8831729Y-14651008D02*
X8850777Y-14641484D01*
X8850777Y-14641484D02*
X8898396Y-14641484D01*
X8898396Y-14641484D02*
X8917444Y-14651008D01*
X8917444Y-14651008D02*
X8926968Y-14660531D01*
X8926968Y-14660531D02*
X8936491Y-14679579D01*
X8936491Y-14679579D02*
X8936491Y-14698627D01*
X8936491Y-14698627D02*
X8926968Y-14727198D01*
X8926968Y-14727198D02*
X8812682Y-14841484D01*
X8812682Y-14841484D02*
X8936491Y-14841484D01*
X9117444Y-14641484D02*
X9022206Y-14641484D01*
X9022206Y-14641484D02*
X9012682Y-14736722D01*
X9012682Y-14736722D02*
X9022206Y-14727198D01*
X9022206Y-14727198D02*
X9041253Y-14717674D01*
X9041253Y-14717674D02*
X9088872Y-14717674D01*
X9088872Y-14717674D02*
X9107920Y-14727198D01*
X9107920Y-14727198D02*
X9117444Y-14736722D01*
X9117444Y-14736722D02*
X9126968Y-14755769D01*
X9126968Y-14755769D02*
X9126968Y-14803388D01*
X9126968Y-14803388D02*
X9117444Y-14822436D01*
X9117444Y-14822436D02*
X9107920Y-14831960D01*
X9107920Y-14831960D02*
X9088872Y-14841484D01*
X9088872Y-14841484D02*
X9041253Y-14841484D01*
X9041253Y-14841484D02*
X9022206Y-14831960D01*
X9022206Y-14831960D02*
X9012682Y-14822436D01*
X9298396Y-14641484D02*
X9260301Y-14641484D01*
X9260301Y-14641484D02*
X9241253Y-14651008D01*
X9241253Y-14651008D02*
X9231729Y-14660531D01*
X9231729Y-14660531D02*
X9212682Y-14689103D01*
X9212682Y-14689103D02*
X9203158Y-14727198D01*
X9203158Y-14727198D02*
X9203158Y-14803388D01*
X9203158Y-14803388D02*
X9212682Y-14822436D01*
X9212682Y-14822436D02*
X9222206Y-14831960D01*
X9222206Y-14831960D02*
X9241253Y-14841484D01*
X9241253Y-14841484D02*
X9279349Y-14841484D01*
X9279349Y-14841484D02*
X9298396Y-14831960D01*
X9298396Y-14831960D02*
X9307920Y-14822436D01*
X9307920Y-14822436D02*
X9317444Y-14803388D01*
X9317444Y-14803388D02*
X9317444Y-14755769D01*
X9317444Y-14755769D02*
X9307920Y-14736722D01*
X9307920Y-14736722D02*
X9298396Y-14727198D01*
X9298396Y-14727198D02*
X9279349Y-14717674D01*
X9279349Y-14717674D02*
X9241253Y-14717674D01*
X9241253Y-14717674D02*
X9222206Y-14727198D01*
X9222206Y-14727198D02*
X9212682Y-14736722D01*
X9212682Y-14736722D02*
X9203158Y-14755769D01*
X9393634Y-14641484D02*
X9393634Y-14679579D01*
X9469825Y-14641484D02*
X9469825Y-14679579D01*
X9765063Y-14917674D02*
X9755539Y-14908150D01*
X9755539Y-14908150D02*
X9736491Y-14879579D01*
X9736491Y-14879579D02*
X9726968Y-14860531D01*
X9726968Y-14860531D02*
X9717444Y-14831960D01*
X9717444Y-14831960D02*
X9707920Y-14784341D01*
X9707920Y-14784341D02*
X9707920Y-14746246D01*
X9707920Y-14746246D02*
X9717444Y-14698627D01*
X9717444Y-14698627D02*
X9726968Y-14670055D01*
X9726968Y-14670055D02*
X9736491Y-14651008D01*
X9736491Y-14651008D02*
X9755539Y-14622436D01*
X9755539Y-14622436D02*
X9765063Y-14612912D01*
X9831730Y-14660531D02*
X9841253Y-14651008D01*
X9841253Y-14651008D02*
X9860301Y-14641484D01*
X9860301Y-14641484D02*
X9907920Y-14641484D01*
X9907920Y-14641484D02*
X9926968Y-14651008D01*
X9926968Y-14651008D02*
X9936491Y-14660531D01*
X9936491Y-14660531D02*
X9946015Y-14679579D01*
X9946015Y-14679579D02*
X9946015Y-14698627D01*
X9946015Y-14698627D02*
X9936491Y-14727198D01*
X9936491Y-14727198D02*
X9822206Y-14841484D01*
X9822206Y-14841484D02*
X9946015Y-14841484D01*
X10184111Y-14841484D02*
X10184111Y-14641484D01*
X10269825Y-14841484D02*
X10269825Y-14736722D01*
X10269825Y-14736722D02*
X10260301Y-14717674D01*
X10260301Y-14717674D02*
X10241253Y-14708150D01*
X10241253Y-14708150D02*
X10212682Y-14708150D01*
X10212682Y-14708150D02*
X10193634Y-14717674D01*
X10193634Y-14717674D02*
X10184111Y-14727198D01*
X10393634Y-14841484D02*
X10374587Y-14831960D01*
X10374587Y-14831960D02*
X10365063Y-14822436D01*
X10365063Y-14822436D02*
X10355539Y-14803388D01*
X10355539Y-14803388D02*
X10355539Y-14746246D01*
X10355539Y-14746246D02*
X10365063Y-14727198D01*
X10365063Y-14727198D02*
X10374587Y-14717674D01*
X10374587Y-14717674D02*
X10393634Y-14708150D01*
X10393634Y-14708150D02*
X10422206Y-14708150D01*
X10422206Y-14708150D02*
X10441253Y-14717674D01*
X10441253Y-14717674D02*
X10450777Y-14727198D01*
X10450777Y-14727198D02*
X10460301Y-14746246D01*
X10460301Y-14746246D02*
X10460301Y-14803388D01*
X10460301Y-14803388D02*
X10450777Y-14822436D01*
X10450777Y-14822436D02*
X10441253Y-14831960D01*
X10441253Y-14831960D02*
X10422206Y-14841484D01*
X10422206Y-14841484D02*
X10393634Y-14841484D01*
X10574587Y-14841484D02*
X10555539Y-14831960D01*
X10555539Y-14831960D02*
X10546015Y-14812912D01*
X10546015Y-14812912D02*
X10546015Y-14641484D01*
X10726968Y-14831960D02*
X10707920Y-14841484D01*
X10707920Y-14841484D02*
X10669825Y-14841484D01*
X10669825Y-14841484D02*
X10650777Y-14831960D01*
X10650777Y-14831960D02*
X10641253Y-14812912D01*
X10641253Y-14812912D02*
X10641253Y-14736722D01*
X10641253Y-14736722D02*
X10650777Y-14717674D01*
X10650777Y-14717674D02*
X10669825Y-14708150D01*
X10669825Y-14708150D02*
X10707920Y-14708150D01*
X10707920Y-14708150D02*
X10726968Y-14717674D01*
X10726968Y-14717674D02*
X10736492Y-14736722D01*
X10736492Y-14736722D02*
X10736492Y-14755769D01*
X10736492Y-14755769D02*
X10641253Y-14774817D01*
X10812682Y-14831960D02*
X10831730Y-14841484D01*
X10831730Y-14841484D02*
X10869825Y-14841484D01*
X10869825Y-14841484D02*
X10888873Y-14831960D01*
X10888873Y-14831960D02*
X10898396Y-14812912D01*
X10898396Y-14812912D02*
X10898396Y-14803388D01*
X10898396Y-14803388D02*
X10888873Y-14784341D01*
X10888873Y-14784341D02*
X10869825Y-14774817D01*
X10869825Y-14774817D02*
X10841253Y-14774817D01*
X10841253Y-14774817D02*
X10822206Y-14765293D01*
X10822206Y-14765293D02*
X10812682Y-14746246D01*
X10812682Y-14746246D02*
X10812682Y-14736722D01*
X10812682Y-14736722D02*
X10822206Y-14717674D01*
X10822206Y-14717674D02*
X10841253Y-14708150D01*
X10841253Y-14708150D02*
X10869825Y-14708150D01*
X10869825Y-14708150D02*
X10888873Y-14717674D01*
X10965063Y-14917674D02*
X10974587Y-14908150D01*
X10974587Y-14908150D02*
X10993634Y-14879579D01*
X10993634Y-14879579D02*
X11003158Y-14860531D01*
X11003158Y-14860531D02*
X11012682Y-14831960D01*
X11012682Y-14831960D02*
X11022206Y-14784341D01*
X11022206Y-14784341D02*
X11022206Y-14746246D01*
X11022206Y-14746246D02*
X11012682Y-14698627D01*
X11012682Y-14698627D02*
X11003158Y-14670055D01*
X11003158Y-14670055D02*
X10993634Y-14651008D01*
X10993634Y-14651008D02*
X10974587Y-14622436D01*
X10974587Y-14622436D02*
X10965063Y-14612912D01*
X11326968Y-14917674D02*
X11317444Y-14908150D01*
X11317444Y-14908150D02*
X11298396Y-14879579D01*
X11298396Y-14879579D02*
X11288872Y-14860531D01*
X11288872Y-14860531D02*
X11279349Y-14831960D01*
X11279349Y-14831960D02*
X11269825Y-14784341D01*
X11269825Y-14784341D02*
X11269825Y-14746246D01*
X11269825Y-14746246D02*
X11279349Y-14698627D01*
X11279349Y-14698627D02*
X11288872Y-14670055D01*
X11288872Y-14670055D02*
X11298396Y-14651008D01*
X11298396Y-14651008D02*
X11317444Y-14622436D01*
X11317444Y-14622436D02*
X11326968Y-14612912D01*
X11403158Y-14708150D02*
X11403158Y-14841484D01*
X11403158Y-14727198D02*
X11412682Y-14717674D01*
X11412682Y-14717674D02*
X11431730Y-14708150D01*
X11431730Y-14708150D02*
X11460301Y-14708150D01*
X11460301Y-14708150D02*
X11479349Y-14717674D01*
X11479349Y-14717674D02*
X11488872Y-14736722D01*
X11488872Y-14736722D02*
X11488872Y-14841484D01*
X11612682Y-14841484D02*
X11593634Y-14831960D01*
X11593634Y-14831960D02*
X11584111Y-14822436D01*
X11584111Y-14822436D02*
X11574587Y-14803388D01*
X11574587Y-14803388D02*
X11574587Y-14746246D01*
X11574587Y-14746246D02*
X11584111Y-14727198D01*
X11584111Y-14727198D02*
X11593634Y-14717674D01*
X11593634Y-14717674D02*
X11612682Y-14708150D01*
X11612682Y-14708150D02*
X11641253Y-14708150D01*
X11641253Y-14708150D02*
X11660301Y-14717674D01*
X11660301Y-14717674D02*
X11669825Y-14727198D01*
X11669825Y-14727198D02*
X11679349Y-14746246D01*
X11679349Y-14746246D02*
X11679349Y-14803388D01*
X11679349Y-14803388D02*
X11669825Y-14822436D01*
X11669825Y-14822436D02*
X11660301Y-14831960D01*
X11660301Y-14831960D02*
X11641253Y-14841484D01*
X11641253Y-14841484D02*
X11612682Y-14841484D01*
X11736492Y-14708150D02*
X11812682Y-14708150D01*
X11765063Y-14641484D02*
X11765063Y-14812912D01*
X11765063Y-14812912D02*
X11774587Y-14831960D01*
X11774587Y-14831960D02*
X11793634Y-14841484D01*
X11793634Y-14841484D02*
X11812682Y-14841484D01*
X12031730Y-14708150D02*
X12031730Y-14908150D01*
X12031730Y-14717674D02*
X12050777Y-14708150D01*
X12050777Y-14708150D02*
X12088873Y-14708150D01*
X12088873Y-14708150D02*
X12107920Y-14717674D01*
X12107920Y-14717674D02*
X12117444Y-14727198D01*
X12117444Y-14727198D02*
X12126968Y-14746246D01*
X12126968Y-14746246D02*
X12126968Y-14803388D01*
X12126968Y-14803388D02*
X12117444Y-14822436D01*
X12117444Y-14822436D02*
X12107920Y-14831960D01*
X12107920Y-14831960D02*
X12088873Y-14841484D01*
X12088873Y-14841484D02*
X12050777Y-14841484D01*
X12050777Y-14841484D02*
X12031730Y-14831960D01*
X12241253Y-14841484D02*
X12222206Y-14831960D01*
X12222206Y-14831960D02*
X12212682Y-14812912D01*
X12212682Y-14812912D02*
X12212682Y-14641484D01*
X12403158Y-14841484D02*
X12403158Y-14736722D01*
X12403158Y-14736722D02*
X12393634Y-14717674D01*
X12393634Y-14717674D02*
X12374587Y-14708150D01*
X12374587Y-14708150D02*
X12336492Y-14708150D01*
X12336492Y-14708150D02*
X12317444Y-14717674D01*
X12403158Y-14831960D02*
X12384111Y-14841484D01*
X12384111Y-14841484D02*
X12336492Y-14841484D01*
X12336492Y-14841484D02*
X12317444Y-14831960D01*
X12317444Y-14831960D02*
X12307920Y-14812912D01*
X12307920Y-14812912D02*
X12307920Y-14793865D01*
X12307920Y-14793865D02*
X12317444Y-14774817D01*
X12317444Y-14774817D02*
X12336492Y-14765293D01*
X12336492Y-14765293D02*
X12384111Y-14765293D01*
X12384111Y-14765293D02*
X12403158Y-14755769D01*
X12469825Y-14708150D02*
X12546015Y-14708150D01*
X12498396Y-14641484D02*
X12498396Y-14812912D01*
X12498396Y-14812912D02*
X12507920Y-14831960D01*
X12507920Y-14831960D02*
X12526968Y-14841484D01*
X12526968Y-14841484D02*
X12546015Y-14841484D01*
X12688873Y-14831960D02*
X12669825Y-14841484D01*
X12669825Y-14841484D02*
X12631730Y-14841484D01*
X12631730Y-14841484D02*
X12612682Y-14831960D01*
X12612682Y-14831960D02*
X12603158Y-14812912D01*
X12603158Y-14812912D02*
X12603158Y-14736722D01*
X12603158Y-14736722D02*
X12612682Y-14717674D01*
X12612682Y-14717674D02*
X12631730Y-14708150D01*
X12631730Y-14708150D02*
X12669825Y-14708150D01*
X12669825Y-14708150D02*
X12688873Y-14717674D01*
X12688873Y-14717674D02*
X12698396Y-14736722D01*
X12698396Y-14736722D02*
X12698396Y-14755769D01*
X12698396Y-14755769D02*
X12603158Y-14774817D01*
X12869825Y-14841484D02*
X12869825Y-14641484D01*
X12869825Y-14831960D02*
X12850777Y-14841484D01*
X12850777Y-14841484D02*
X12812682Y-14841484D01*
X12812682Y-14841484D02*
X12793634Y-14831960D01*
X12793634Y-14831960D02*
X12784111Y-14822436D01*
X12784111Y-14822436D02*
X12774587Y-14803388D01*
X12774587Y-14803388D02*
X12774587Y-14746246D01*
X12774587Y-14746246D02*
X12784111Y-14727198D01*
X12784111Y-14727198D02*
X12793634Y-14717674D01*
X12793634Y-14717674D02*
X12812682Y-14708150D01*
X12812682Y-14708150D02*
X12850777Y-14708150D01*
X12850777Y-14708150D02*
X12869825Y-14717674D01*
X12946015Y-14917674D02*
X12955539Y-14908150D01*
X12955539Y-14908150D02*
X12974587Y-14879579D01*
X12974587Y-14879579D02*
X12984111Y-14860531D01*
X12984111Y-14860531D02*
X12993634Y-14831960D01*
X12993634Y-14831960D02*
X13003158Y-14784341D01*
X13003158Y-14784341D02*
X13003158Y-14746246D01*
X13003158Y-14746246D02*
X12993634Y-14698627D01*
X12993634Y-14698627D02*
X12984111Y-14670055D01*
X12984111Y-14670055D02*
X12974587Y-14651008D01*
X12974587Y-14651008D02*
X12955539Y-14622436D01*
X12955539Y-14622436D02*
X12946015Y-14612912D01*
X6190000Y-15014000D02*
G75*
G02*
X5990000Y-15014000I-100000J0D01*
G01*
X5990000Y-15014000D02*
G75*
G02*
X6190000Y-15014000I100000J0D01*
G01*
X6431729Y-14905484D02*
X6555539Y-14905484D01*
X6555539Y-14905484D02*
X6488872Y-14981674D01*
X6488872Y-14981674D02*
X6517443Y-14981674D01*
X6517443Y-14981674D02*
X6536491Y-14991198D01*
X6536491Y-14991198D02*
X6546015Y-15000722D01*
X6546015Y-15000722D02*
X6555539Y-15019769D01*
X6555539Y-15019769D02*
X6555539Y-15067388D01*
X6555539Y-15067388D02*
X6546015Y-15086436D01*
X6546015Y-15086436D02*
X6536491Y-15095960D01*
X6536491Y-15095960D02*
X6517443Y-15105484D01*
X6517443Y-15105484D02*
X6460301Y-15105484D01*
X6460301Y-15105484D02*
X6441253Y-15095960D01*
X6441253Y-15095960D02*
X6431729Y-15086436D01*
X6641253Y-15086436D02*
X6650777Y-15095960D01*
X6650777Y-15095960D02*
X6641253Y-15105484D01*
X6641253Y-15105484D02*
X6631729Y-15095960D01*
X6631729Y-15095960D02*
X6641253Y-15086436D01*
X6641253Y-15086436D02*
X6641253Y-15105484D01*
X6831729Y-14905484D02*
X6736491Y-14905484D01*
X6736491Y-14905484D02*
X6726967Y-15000722D01*
X6726967Y-15000722D02*
X6736491Y-14991198D01*
X6736491Y-14991198D02*
X6755539Y-14981674D01*
X6755539Y-14981674D02*
X6803158Y-14981674D01*
X6803158Y-14981674D02*
X6822205Y-14991198D01*
X6822205Y-14991198D02*
X6831729Y-15000722D01*
X6831729Y-15000722D02*
X6841253Y-15019769D01*
X6841253Y-15019769D02*
X6841253Y-15067388D01*
X6841253Y-15067388D02*
X6831729Y-15086436D01*
X6831729Y-15086436D02*
X6822205Y-15095960D01*
X6822205Y-15095960D02*
X6803158Y-15105484D01*
X6803158Y-15105484D02*
X6755539Y-15105484D01*
X6755539Y-15105484D02*
X6736491Y-15095960D01*
X6736491Y-15095960D02*
X6726967Y-15086436D01*
X6965062Y-14905484D02*
X6984110Y-14905484D01*
X6984110Y-14905484D02*
X7003158Y-14915008D01*
X7003158Y-14915008D02*
X7012682Y-14924531D01*
X7012682Y-14924531D02*
X7022205Y-14943579D01*
X7022205Y-14943579D02*
X7031729Y-14981674D01*
X7031729Y-14981674D02*
X7031729Y-15029293D01*
X7031729Y-15029293D02*
X7022205Y-15067388D01*
X7022205Y-15067388D02*
X7012682Y-15086436D01*
X7012682Y-15086436D02*
X7003158Y-15095960D01*
X7003158Y-15095960D02*
X6984110Y-15105484D01*
X6984110Y-15105484D02*
X6965062Y-15105484D01*
X6965062Y-15105484D02*
X6946015Y-15095960D01*
X6946015Y-15095960D02*
X6936491Y-15086436D01*
X6936491Y-15086436D02*
X6926967Y-15067388D01*
X6926967Y-15067388D02*
X6917443Y-15029293D01*
X6917443Y-15029293D02*
X6917443Y-14981674D01*
X6917443Y-14981674D02*
X6926967Y-14943579D01*
X6926967Y-14943579D02*
X6936491Y-14924531D01*
X6936491Y-14924531D02*
X6946015Y-14915008D01*
X6946015Y-14915008D02*
X6965062Y-14905484D01*
X7155539Y-14905484D02*
X7174586Y-14905484D01*
X7174586Y-14905484D02*
X7193634Y-14915008D01*
X7193634Y-14915008D02*
X7203158Y-14924531D01*
X7203158Y-14924531D02*
X7212682Y-14943579D01*
X7212682Y-14943579D02*
X7222205Y-14981674D01*
X7222205Y-14981674D02*
X7222205Y-15029293D01*
X7222205Y-15029293D02*
X7212682Y-15067388D01*
X7212682Y-15067388D02*
X7203158Y-15086436D01*
X7203158Y-15086436D02*
X7193634Y-15095960D01*
X7193634Y-15095960D02*
X7174586Y-15105484D01*
X7174586Y-15105484D02*
X7155539Y-15105484D01*
X7155539Y-15105484D02*
X7136491Y-15095960D01*
X7136491Y-15095960D02*
X7126967Y-15086436D01*
X7126967Y-15086436D02*
X7117443Y-15067388D01*
X7117443Y-15067388D02*
X7107920Y-15029293D01*
X7107920Y-15029293D02*
X7107920Y-14981674D01*
X7107920Y-14981674D02*
X7117443Y-14943579D01*
X7117443Y-14943579D02*
X7126967Y-14924531D01*
X7126967Y-14924531D02*
X7136491Y-14915008D01*
X7136491Y-14915008D02*
X7155539Y-14905484D01*
X7307920Y-15105484D02*
X7307920Y-14972150D01*
X7307920Y-14991198D02*
X7317443Y-14981674D01*
X7317443Y-14981674D02*
X7336491Y-14972150D01*
X7336491Y-14972150D02*
X7365063Y-14972150D01*
X7365063Y-14972150D02*
X7384110Y-14981674D01*
X7384110Y-14981674D02*
X7393634Y-15000722D01*
X7393634Y-15000722D02*
X7393634Y-15105484D01*
X7393634Y-15000722D02*
X7403158Y-14981674D01*
X7403158Y-14981674D02*
X7422205Y-14972150D01*
X7422205Y-14972150D02*
X7450777Y-14972150D01*
X7450777Y-14972150D02*
X7469824Y-14981674D01*
X7469824Y-14981674D02*
X7479348Y-15000722D01*
X7479348Y-15000722D02*
X7479348Y-15105484D01*
X7574586Y-15105484D02*
X7574586Y-14972150D01*
X7574586Y-14991198D02*
X7584110Y-14981674D01*
X7584110Y-14981674D02*
X7603158Y-14972150D01*
X7603158Y-14972150D02*
X7631729Y-14972150D01*
X7631729Y-14972150D02*
X7650777Y-14981674D01*
X7650777Y-14981674D02*
X7660301Y-15000722D01*
X7660301Y-15000722D02*
X7660301Y-15105484D01*
X7660301Y-15000722D02*
X7669824Y-14981674D01*
X7669824Y-14981674D02*
X7688872Y-14972150D01*
X7688872Y-14972150D02*
X7717443Y-14972150D01*
X7717443Y-14972150D02*
X7736491Y-14981674D01*
X7736491Y-14981674D02*
X7746015Y-15000722D01*
X7746015Y-15000722D02*
X7746015Y-15105484D01*
X8136491Y-14895960D02*
X7965063Y-15153103D01*
X8393634Y-14905484D02*
X8412682Y-14905484D01*
X8412682Y-14905484D02*
X8431729Y-14915008D01*
X8431729Y-14915008D02*
X8441253Y-14924531D01*
X8441253Y-14924531D02*
X8450777Y-14943579D01*
X8450777Y-14943579D02*
X8460301Y-14981674D01*
X8460301Y-14981674D02*
X8460301Y-15029293D01*
X8460301Y-15029293D02*
X8450777Y-15067388D01*
X8450777Y-15067388D02*
X8441253Y-15086436D01*
X8441253Y-15086436D02*
X8431729Y-15095960D01*
X8431729Y-15095960D02*
X8412682Y-15105484D01*
X8412682Y-15105484D02*
X8393634Y-15105484D01*
X8393634Y-15105484D02*
X8374586Y-15095960D01*
X8374586Y-15095960D02*
X8365063Y-15086436D01*
X8365063Y-15086436D02*
X8355539Y-15067388D01*
X8355539Y-15067388D02*
X8346015Y-15029293D01*
X8346015Y-15029293D02*
X8346015Y-14981674D01*
X8346015Y-14981674D02*
X8355539Y-14943579D01*
X8355539Y-14943579D02*
X8365063Y-14924531D01*
X8365063Y-14924531D02*
X8374586Y-14915008D01*
X8374586Y-14915008D02*
X8393634Y-14905484D01*
X8546015Y-15086436D02*
X8555539Y-15095960D01*
X8555539Y-15095960D02*
X8546015Y-15105484D01*
X8546015Y-15105484D02*
X8536491Y-15095960D01*
X8536491Y-15095960D02*
X8546015Y-15086436D01*
X8546015Y-15086436D02*
X8546015Y-15105484D01*
X8746015Y-15105484D02*
X8631729Y-15105484D01*
X8688872Y-15105484D02*
X8688872Y-14905484D01*
X8688872Y-14905484D02*
X8669825Y-14934055D01*
X8669825Y-14934055D02*
X8650777Y-14953103D01*
X8650777Y-14953103D02*
X8631729Y-14962627D01*
X8812682Y-14905484D02*
X8936491Y-14905484D01*
X8936491Y-14905484D02*
X8869825Y-14981674D01*
X8869825Y-14981674D02*
X8898396Y-14981674D01*
X8898396Y-14981674D02*
X8917444Y-14991198D01*
X8917444Y-14991198D02*
X8926968Y-15000722D01*
X8926968Y-15000722D02*
X8936491Y-15019769D01*
X8936491Y-15019769D02*
X8936491Y-15067388D01*
X8936491Y-15067388D02*
X8926968Y-15086436D01*
X8926968Y-15086436D02*
X8917444Y-15095960D01*
X8917444Y-15095960D02*
X8898396Y-15105484D01*
X8898396Y-15105484D02*
X8841253Y-15105484D01*
X8841253Y-15105484D02*
X8822206Y-15095960D01*
X8822206Y-15095960D02*
X8812682Y-15086436D01*
X9003158Y-14905484D02*
X9136491Y-14905484D01*
X9136491Y-14905484D02*
X9050777Y-15105484D01*
X9241253Y-14991198D02*
X9222206Y-14981674D01*
X9222206Y-14981674D02*
X9212682Y-14972150D01*
X9212682Y-14972150D02*
X9203158Y-14953103D01*
X9203158Y-14953103D02*
X9203158Y-14943579D01*
X9203158Y-14943579D02*
X9212682Y-14924531D01*
X9212682Y-14924531D02*
X9222206Y-14915008D01*
X9222206Y-14915008D02*
X9241253Y-14905484D01*
X9241253Y-14905484D02*
X9279349Y-14905484D01*
X9279349Y-14905484D02*
X9298396Y-14915008D01*
X9298396Y-14915008D02*
X9307920Y-14924531D01*
X9307920Y-14924531D02*
X9317444Y-14943579D01*
X9317444Y-14943579D02*
X9317444Y-14953103D01*
X9317444Y-14953103D02*
X9307920Y-14972150D01*
X9307920Y-14972150D02*
X9298396Y-14981674D01*
X9298396Y-14981674D02*
X9279349Y-14991198D01*
X9279349Y-14991198D02*
X9241253Y-14991198D01*
X9241253Y-14991198D02*
X9222206Y-15000722D01*
X9222206Y-15000722D02*
X9212682Y-15010246D01*
X9212682Y-15010246D02*
X9203158Y-15029293D01*
X9203158Y-15029293D02*
X9203158Y-15067388D01*
X9203158Y-15067388D02*
X9212682Y-15086436D01*
X9212682Y-15086436D02*
X9222206Y-15095960D01*
X9222206Y-15095960D02*
X9241253Y-15105484D01*
X9241253Y-15105484D02*
X9279349Y-15105484D01*
X9279349Y-15105484D02*
X9298396Y-15095960D01*
X9298396Y-15095960D02*
X9307920Y-15086436D01*
X9307920Y-15086436D02*
X9317444Y-15067388D01*
X9317444Y-15067388D02*
X9317444Y-15029293D01*
X9317444Y-15029293D02*
X9307920Y-15010246D01*
X9307920Y-15010246D02*
X9298396Y-15000722D01*
X9298396Y-15000722D02*
X9279349Y-14991198D01*
X9393634Y-14905484D02*
X9393634Y-14943579D01*
X9469825Y-14905484D02*
X9469825Y-14943579D01*
X9765063Y-15181674D02*
X9755539Y-15172150D01*
X9755539Y-15172150D02*
X9736491Y-15143579D01*
X9736491Y-15143579D02*
X9726968Y-15124531D01*
X9726968Y-15124531D02*
X9717444Y-15095960D01*
X9717444Y-15095960D02*
X9707920Y-15048341D01*
X9707920Y-15048341D02*
X9707920Y-15010246D01*
X9707920Y-15010246D02*
X9717444Y-14962627D01*
X9717444Y-14962627D02*
X9726968Y-14934055D01*
X9726968Y-14934055D02*
X9736491Y-14915008D01*
X9736491Y-14915008D02*
X9755539Y-14886436D01*
X9755539Y-14886436D02*
X9765063Y-14876912D01*
X9936491Y-14905484D02*
X9841253Y-14905484D01*
X9841253Y-14905484D02*
X9831730Y-15000722D01*
X9831730Y-15000722D02*
X9841253Y-14991198D01*
X9841253Y-14991198D02*
X9860301Y-14981674D01*
X9860301Y-14981674D02*
X9907920Y-14981674D01*
X9907920Y-14981674D02*
X9926968Y-14991198D01*
X9926968Y-14991198D02*
X9936491Y-15000722D01*
X9936491Y-15000722D02*
X9946015Y-15019769D01*
X9946015Y-15019769D02*
X9946015Y-15067388D01*
X9946015Y-15067388D02*
X9936491Y-15086436D01*
X9936491Y-15086436D02*
X9926968Y-15095960D01*
X9926968Y-15095960D02*
X9907920Y-15105484D01*
X9907920Y-15105484D02*
X9860301Y-15105484D01*
X9860301Y-15105484D02*
X9841253Y-15095960D01*
X9841253Y-15095960D02*
X9831730Y-15086436D01*
X10184111Y-15105484D02*
X10184111Y-14905484D01*
X10269825Y-15105484D02*
X10269825Y-15000722D01*
X10269825Y-15000722D02*
X10260301Y-14981674D01*
X10260301Y-14981674D02*
X10241253Y-14972150D01*
X10241253Y-14972150D02*
X10212682Y-14972150D01*
X10212682Y-14972150D02*
X10193634Y-14981674D01*
X10193634Y-14981674D02*
X10184111Y-14991198D01*
X10393634Y-15105484D02*
X10374587Y-15095960D01*
X10374587Y-15095960D02*
X10365063Y-15086436D01*
X10365063Y-15086436D02*
X10355539Y-15067388D01*
X10355539Y-15067388D02*
X10355539Y-15010246D01*
X10355539Y-15010246D02*
X10365063Y-14991198D01*
X10365063Y-14991198D02*
X10374587Y-14981674D01*
X10374587Y-14981674D02*
X10393634Y-14972150D01*
X10393634Y-14972150D02*
X10422206Y-14972150D01*
X10422206Y-14972150D02*
X10441253Y-14981674D01*
X10441253Y-14981674D02*
X10450777Y-14991198D01*
X10450777Y-14991198D02*
X10460301Y-15010246D01*
X10460301Y-15010246D02*
X10460301Y-15067388D01*
X10460301Y-15067388D02*
X10450777Y-15086436D01*
X10450777Y-15086436D02*
X10441253Y-15095960D01*
X10441253Y-15095960D02*
X10422206Y-15105484D01*
X10422206Y-15105484D02*
X10393634Y-15105484D01*
X10574587Y-15105484D02*
X10555539Y-15095960D01*
X10555539Y-15095960D02*
X10546015Y-15076912D01*
X10546015Y-15076912D02*
X10546015Y-14905484D01*
X10726968Y-15095960D02*
X10707920Y-15105484D01*
X10707920Y-15105484D02*
X10669825Y-15105484D01*
X10669825Y-15105484D02*
X10650777Y-15095960D01*
X10650777Y-15095960D02*
X10641253Y-15076912D01*
X10641253Y-15076912D02*
X10641253Y-15000722D01*
X10641253Y-15000722D02*
X10650777Y-14981674D01*
X10650777Y-14981674D02*
X10669825Y-14972150D01*
X10669825Y-14972150D02*
X10707920Y-14972150D01*
X10707920Y-14972150D02*
X10726968Y-14981674D01*
X10726968Y-14981674D02*
X10736492Y-15000722D01*
X10736492Y-15000722D02*
X10736492Y-15019769D01*
X10736492Y-15019769D02*
X10641253Y-15038817D01*
X10812682Y-15095960D02*
X10831730Y-15105484D01*
X10831730Y-15105484D02*
X10869825Y-15105484D01*
X10869825Y-15105484D02*
X10888873Y-15095960D01*
X10888873Y-15095960D02*
X10898396Y-15076912D01*
X10898396Y-15076912D02*
X10898396Y-15067388D01*
X10898396Y-15067388D02*
X10888873Y-15048341D01*
X10888873Y-15048341D02*
X10869825Y-15038817D01*
X10869825Y-15038817D02*
X10841253Y-15038817D01*
X10841253Y-15038817D02*
X10822206Y-15029293D01*
X10822206Y-15029293D02*
X10812682Y-15010246D01*
X10812682Y-15010246D02*
X10812682Y-15000722D01*
X10812682Y-15000722D02*
X10822206Y-14981674D01*
X10822206Y-14981674D02*
X10841253Y-14972150D01*
X10841253Y-14972150D02*
X10869825Y-14972150D01*
X10869825Y-14972150D02*
X10888873Y-14981674D01*
X10965063Y-15181674D02*
X10974587Y-15172150D01*
X10974587Y-15172150D02*
X10993634Y-15143579D01*
X10993634Y-15143579D02*
X11003158Y-15124531D01*
X11003158Y-15124531D02*
X11012682Y-15095960D01*
X11012682Y-15095960D02*
X11022206Y-15048341D01*
X11022206Y-15048341D02*
X11022206Y-15010246D01*
X11022206Y-15010246D02*
X11012682Y-14962627D01*
X11012682Y-14962627D02*
X11003158Y-14934055D01*
X11003158Y-14934055D02*
X10993634Y-14915008D01*
X10993634Y-14915008D02*
X10974587Y-14886436D01*
X10974587Y-14886436D02*
X10965063Y-14876912D01*
X11326968Y-15181674D02*
X11317444Y-15172150D01*
X11317444Y-15172150D02*
X11298396Y-15143579D01*
X11298396Y-15143579D02*
X11288872Y-15124531D01*
X11288872Y-15124531D02*
X11279349Y-15095960D01*
X11279349Y-15095960D02*
X11269825Y-15048341D01*
X11269825Y-15048341D02*
X11269825Y-15010246D01*
X11269825Y-15010246D02*
X11279349Y-14962627D01*
X11279349Y-14962627D02*
X11288872Y-14934055D01*
X11288872Y-14934055D02*
X11298396Y-14915008D01*
X11298396Y-14915008D02*
X11317444Y-14886436D01*
X11317444Y-14886436D02*
X11326968Y-14876912D01*
X11403158Y-14972150D02*
X11403158Y-15105484D01*
X11403158Y-14991198D02*
X11412682Y-14981674D01*
X11412682Y-14981674D02*
X11431730Y-14972150D01*
X11431730Y-14972150D02*
X11460301Y-14972150D01*
X11460301Y-14972150D02*
X11479349Y-14981674D01*
X11479349Y-14981674D02*
X11488872Y-15000722D01*
X11488872Y-15000722D02*
X11488872Y-15105484D01*
X11612682Y-15105484D02*
X11593634Y-15095960D01*
X11593634Y-15095960D02*
X11584111Y-15086436D01*
X11584111Y-15086436D02*
X11574587Y-15067388D01*
X11574587Y-15067388D02*
X11574587Y-15010246D01*
X11574587Y-15010246D02*
X11584111Y-14991198D01*
X11584111Y-14991198D02*
X11593634Y-14981674D01*
X11593634Y-14981674D02*
X11612682Y-14972150D01*
X11612682Y-14972150D02*
X11641253Y-14972150D01*
X11641253Y-14972150D02*
X11660301Y-14981674D01*
X11660301Y-14981674D02*
X11669825Y-14991198D01*
X11669825Y-14991198D02*
X11679349Y-15010246D01*
X11679349Y-15010246D02*
X11679349Y-15067388D01*
X11679349Y-15067388D02*
X11669825Y-15086436D01*
X11669825Y-15086436D02*
X11660301Y-15095960D01*
X11660301Y-15095960D02*
X11641253Y-15105484D01*
X11641253Y-15105484D02*
X11612682Y-15105484D01*
X11736492Y-14972150D02*
X11812682Y-14972150D01*
X11765063Y-14905484D02*
X11765063Y-15076912D01*
X11765063Y-15076912D02*
X11774587Y-15095960D01*
X11774587Y-15095960D02*
X11793634Y-15105484D01*
X11793634Y-15105484D02*
X11812682Y-15105484D01*
X12031730Y-14972150D02*
X12031730Y-15172150D01*
X12031730Y-14981674D02*
X12050777Y-14972150D01*
X12050777Y-14972150D02*
X12088873Y-14972150D01*
X12088873Y-14972150D02*
X12107920Y-14981674D01*
X12107920Y-14981674D02*
X12117444Y-14991198D01*
X12117444Y-14991198D02*
X12126968Y-15010246D01*
X12126968Y-15010246D02*
X12126968Y-15067388D01*
X12126968Y-15067388D02*
X12117444Y-15086436D01*
X12117444Y-15086436D02*
X12107920Y-15095960D01*
X12107920Y-15095960D02*
X12088873Y-15105484D01*
X12088873Y-15105484D02*
X12050777Y-15105484D01*
X12050777Y-15105484D02*
X12031730Y-15095960D01*
X12241253Y-15105484D02*
X12222206Y-15095960D01*
X12222206Y-15095960D02*
X12212682Y-15076912D01*
X12212682Y-15076912D02*
X12212682Y-14905484D01*
X12403158Y-15105484D02*
X12403158Y-15000722D01*
X12403158Y-15000722D02*
X12393634Y-14981674D01*
X12393634Y-14981674D02*
X12374587Y-14972150D01*
X12374587Y-14972150D02*
X12336492Y-14972150D01*
X12336492Y-14972150D02*
X12317444Y-14981674D01*
X12403158Y-15095960D02*
X12384111Y-15105484D01*
X12384111Y-15105484D02*
X12336492Y-15105484D01*
X12336492Y-15105484D02*
X12317444Y-15095960D01*
X12317444Y-15095960D02*
X12307920Y-15076912D01*
X12307920Y-15076912D02*
X12307920Y-15057865D01*
X12307920Y-15057865D02*
X12317444Y-15038817D01*
X12317444Y-15038817D02*
X12336492Y-15029293D01*
X12336492Y-15029293D02*
X12384111Y-15029293D01*
X12384111Y-15029293D02*
X12403158Y-15019769D01*
X12469825Y-14972150D02*
X12546015Y-14972150D01*
X12498396Y-14905484D02*
X12498396Y-15076912D01*
X12498396Y-15076912D02*
X12507920Y-15095960D01*
X12507920Y-15095960D02*
X12526968Y-15105484D01*
X12526968Y-15105484D02*
X12546015Y-15105484D01*
X12688873Y-15095960D02*
X12669825Y-15105484D01*
X12669825Y-15105484D02*
X12631730Y-15105484D01*
X12631730Y-15105484D02*
X12612682Y-15095960D01*
X12612682Y-15095960D02*
X12603158Y-15076912D01*
X12603158Y-15076912D02*
X12603158Y-15000722D01*
X12603158Y-15000722D02*
X12612682Y-14981674D01*
X12612682Y-14981674D02*
X12631730Y-14972150D01*
X12631730Y-14972150D02*
X12669825Y-14972150D01*
X12669825Y-14972150D02*
X12688873Y-14981674D01*
X12688873Y-14981674D02*
X12698396Y-15000722D01*
X12698396Y-15000722D02*
X12698396Y-15019769D01*
X12698396Y-15019769D02*
X12603158Y-15038817D01*
X12869825Y-15105484D02*
X12869825Y-14905484D01*
X12869825Y-15095960D02*
X12850777Y-15105484D01*
X12850777Y-15105484D02*
X12812682Y-15105484D01*
X12812682Y-15105484D02*
X12793634Y-15095960D01*
X12793634Y-15095960D02*
X12784111Y-15086436D01*
X12784111Y-15086436D02*
X12774587Y-15067388D01*
X12774587Y-15067388D02*
X12774587Y-15010246D01*
X12774587Y-15010246D02*
X12784111Y-14991198D01*
X12784111Y-14991198D02*
X12793634Y-14981674D01*
X12793634Y-14981674D02*
X12812682Y-14972150D01*
X12812682Y-14972150D02*
X12850777Y-14972150D01*
X12850777Y-14972150D02*
X12869825Y-14981674D01*
X12946015Y-15181674D02*
X12955539Y-15172150D01*
X12955539Y-15172150D02*
X12974587Y-15143579D01*
X12974587Y-15143579D02*
X12984111Y-15124531D01*
X12984111Y-15124531D02*
X12993634Y-15095960D01*
X12993634Y-15095960D02*
X13003158Y-15048341D01*
X13003158Y-15048341D02*
X13003158Y-15010246D01*
X13003158Y-15010246D02*
X12993634Y-14962627D01*
X12993634Y-14962627D02*
X12984111Y-14934055D01*
X12984111Y-14934055D02*
X12974587Y-14915008D01*
X12974587Y-14915008D02*
X12955539Y-14886436D01*
X12955539Y-14886436D02*
X12946015Y-14876912D01*
M02*
