%TF.GenerationSoftware,KiCad,Pcbnew,8.0.2-8.0.2-0~ubuntu20.04.1*%
%TF.CreationDate,2024-05-16T16:26:24-07:00*%
%TF.ProjectId,cpm_proj,63706d5f-7072-46f6-9a2e-6b696361645f,rev?*%
%TF.SameCoordinates,Original*%
%TF.FileFunction,Drillmap*%
%TF.FilePolarity,Positive*%
%FSLAX45Y45*%
G04 Gerber Fmt 4.5, Leading zero omitted, Abs format (unit mm)*
G04 Created by KiCad (PCBNEW 8.0.2-8.0.2-0~ubuntu20.04.1) date 2024-05-16 16:26:24*
%MOMM*%
%LPD*%
G01*
G04 APERTURE LIST*
%ADD10C,0.200000*%
%ADD11C,0.100000*%
%ADD12C,0.110000*%
%ADD13C,0.150000*%
%ADD14C,0.160000*%
G04 APERTURE END LIST*
D10*
X6200000Y-4100000D02*
X16200000Y-4100000D01*
X16200000Y-14100000D01*
X6200000Y-14100000D01*
X6200000Y-4100000D01*
D11*
X7085000Y-9910000D02*
X7115000Y-9940000D01*
X7115000Y-9910000D02*
X7085000Y-9940000D01*
X7333000Y-10135000D02*
X7363000Y-10165000D01*
X7363000Y-10135000D02*
X7333000Y-10165000D01*
X7395000Y-9885000D02*
X7425000Y-9915000D01*
X7425000Y-9885000D02*
X7395000Y-9915000D01*
X7408363Y-10411637D02*
X7438363Y-10441637D01*
X7438363Y-10411637D02*
X7408363Y-10441637D01*
X7483000Y-10260000D02*
X7513000Y-10290000D01*
X7513000Y-10260000D02*
X7483000Y-10290000D01*
X7505000Y-11545000D02*
X7535000Y-11575000D01*
X7535000Y-11545000D02*
X7505000Y-11575000D01*
X7565000Y-11465000D02*
X7595000Y-11495000D01*
X7595000Y-11465000D02*
X7565000Y-11495000D01*
X7603000Y-10287853D02*
X7633000Y-10317853D01*
X7633000Y-10287853D02*
X7603000Y-10317853D01*
X7987426Y-10500000D02*
X8017426Y-10530000D01*
X8017426Y-10500000D02*
X7987426Y-10530000D01*
X8025000Y-11165000D02*
X8055000Y-11195000D01*
X8055000Y-11165000D02*
X8025000Y-11195000D01*
X8065000Y-10405000D02*
X8095000Y-10435000D01*
X8095000Y-10405000D02*
X8065000Y-10435000D01*
X8085000Y-10910000D02*
X8115000Y-10940000D01*
X8115000Y-10910000D02*
X8085000Y-10940000D01*
X8230000Y-11105000D02*
X8260000Y-11135000D01*
X8260000Y-11105000D02*
X8230000Y-11135000D01*
X8245000Y-10325000D02*
X8275000Y-10355000D01*
X8275000Y-10325000D02*
X8245000Y-10355000D01*
X8265000Y-10005000D02*
X8295000Y-10035000D01*
X8295000Y-10005000D02*
X8265000Y-10035000D01*
X8310000Y-10385000D02*
X8340000Y-10415000D01*
X8340000Y-10385000D02*
X8310000Y-10415000D01*
X8425000Y-10985000D02*
X8455000Y-11015000D01*
X8455000Y-10985000D02*
X8425000Y-11015000D01*
X8465000Y-10445000D02*
X8495000Y-10475000D01*
X8495000Y-10445000D02*
X8465000Y-10475000D01*
X8576905Y-10505000D02*
X8606905Y-10535000D01*
X8606905Y-10505000D02*
X8576905Y-10535000D01*
X9005000Y-10865000D02*
X9035000Y-10895000D01*
X9035000Y-10865000D02*
X9005000Y-10895000D01*
X9065000Y-10005000D02*
X9095000Y-10035000D01*
X9095000Y-10005000D02*
X9065000Y-10035000D01*
X9225000Y-4425000D02*
X9255000Y-4455000D01*
X9255000Y-4425000D02*
X9225000Y-4455000D01*
X9405000Y-10505000D02*
X9435000Y-10535000D01*
X9435000Y-10505000D02*
X9405000Y-10535000D01*
X9425000Y-13485000D02*
X9455000Y-13515000D01*
X9455000Y-13485000D02*
X9425000Y-13515000D01*
X9485000Y-10445000D02*
X9515000Y-10475000D01*
X9515000Y-10445000D02*
X9485000Y-10475000D01*
X9705000Y-9865000D02*
X9735000Y-9895000D01*
X9735000Y-9865000D02*
X9705000Y-9895000D01*
X9835074Y-10505000D02*
X9865074Y-10535000D01*
X9865074Y-10505000D02*
X9835074Y-10535000D01*
X10025000Y-12705000D02*
X10055000Y-12735000D01*
X10055000Y-12705000D02*
X10025000Y-12735000D01*
X10035000Y-6335000D02*
X10065000Y-6365000D01*
X10065000Y-6335000D02*
X10035000Y-6365000D01*
X10165000Y-10885002D02*
X10195000Y-10915002D01*
X10195000Y-10885002D02*
X10165000Y-10915002D01*
X10485000Y-5385000D02*
X10515000Y-5415000D01*
X10515000Y-5385000D02*
X10485000Y-5415000D01*
X10535000Y-9735000D02*
X10565000Y-9765000D01*
X10565000Y-9735000D02*
X10535000Y-9765000D01*
X10605000Y-10065000D02*
X10635000Y-10095000D01*
X10635000Y-10065000D02*
X10605000Y-10095000D01*
X10635000Y-4985000D02*
X10665000Y-5015000D01*
X10665000Y-4985000D02*
X10635000Y-5015000D01*
X10710000Y-10984999D02*
X10740000Y-11014999D01*
X10740000Y-10984999D02*
X10710000Y-11014999D01*
X10785000Y-5360000D02*
X10815000Y-5390000D01*
X10815000Y-5360000D02*
X10785000Y-5390000D01*
X10785000Y-10585000D02*
X10815000Y-10615000D01*
X10815000Y-10585000D02*
X10785000Y-10615000D01*
X10825000Y-9945000D02*
X10855000Y-9975000D01*
X10855000Y-9945000D02*
X10825000Y-9975000D01*
X10925000Y-10445000D02*
X10955000Y-10475000D01*
X10955000Y-10445000D02*
X10925000Y-10475000D01*
X10960000Y-5360000D02*
X10990000Y-5390000D01*
X10990000Y-5360000D02*
X10960000Y-5390000D01*
X11026250Y-9829360D02*
X11056250Y-9859360D01*
X11056250Y-9829360D02*
X11026250Y-9859360D01*
X11110000Y-4985000D02*
X11140000Y-5015000D01*
X11140000Y-4985000D02*
X11110000Y-5015000D01*
X11125000Y-10445000D02*
X11155000Y-10475000D01*
X11155000Y-10445000D02*
X11125000Y-10475000D01*
X11660000Y-13435000D02*
X11690000Y-13465000D01*
X11690000Y-13435000D02*
X11660000Y-13465000D01*
X11885000Y-13435000D02*
X11915000Y-13465000D01*
X11915000Y-13435000D02*
X11885000Y-13465000D01*
X12110000Y-13435000D02*
X12140000Y-13465000D01*
X12140000Y-13435000D02*
X12110000Y-13465000D01*
X12335000Y-13435000D02*
X12365000Y-13465000D01*
X12365000Y-13435000D02*
X12335000Y-13465000D01*
X12435000Y-12785000D02*
X12465000Y-12815000D01*
X12465000Y-12785000D02*
X12435000Y-12815000D01*
X12510000Y-12860000D02*
X12540000Y-12890000D01*
X12540000Y-12860000D02*
X12510000Y-12890000D01*
X12560000Y-13435000D02*
X12590000Y-13465000D01*
X12590000Y-13435000D02*
X12560000Y-13465000D01*
X12760000Y-13435000D02*
X12790000Y-13465000D01*
X12790000Y-13435000D02*
X12760000Y-13465000D01*
X12860000Y-5110000D02*
X12890000Y-5140000D01*
X12890000Y-5110000D02*
X12860000Y-5140000D01*
X12860000Y-5360000D02*
X12890000Y-5390000D01*
X12890000Y-5360000D02*
X12860000Y-5390000D01*
X12910000Y-4260000D02*
X12940000Y-4290000D01*
X12940000Y-4260000D02*
X12910000Y-4290000D01*
X12985000Y-5460000D02*
X13015000Y-5490000D01*
X13015000Y-5460000D02*
X12985000Y-5490000D01*
X13105000Y-4345000D02*
X13135000Y-4375000D01*
X13135000Y-4345000D02*
X13105000Y-4375000D01*
X13105000Y-5845000D02*
X13135000Y-5875000D01*
X13135000Y-5845000D02*
X13105000Y-5875000D01*
X13160000Y-8185000D02*
X13190000Y-8215000D01*
X13190000Y-8185000D02*
X13160000Y-8215000D01*
X13327426Y-11277426D02*
X13357426Y-11307426D01*
X13357426Y-11277426D02*
X13327426Y-11307426D01*
X13360000Y-10860000D02*
X13390000Y-10890000D01*
X13390000Y-10860000D02*
X13360000Y-10890000D01*
X13460000Y-13135000D02*
X13490000Y-13165000D01*
X13490000Y-13135000D02*
X13460000Y-13165000D01*
X13485000Y-10210000D02*
X13515000Y-10240000D01*
X13515000Y-10210000D02*
X13485000Y-10240000D01*
X13485000Y-11885000D02*
X13515000Y-11915000D01*
X13515000Y-11885000D02*
X13485000Y-11915000D01*
X13560000Y-12485000D02*
X13590000Y-12515000D01*
X13590000Y-12485000D02*
X13560000Y-12515000D01*
X13660000Y-13410000D02*
X13690000Y-13440000D01*
X13690000Y-13410000D02*
X13660000Y-13440000D01*
X13734939Y-11591678D02*
X13764939Y-11621678D01*
X13764939Y-11591678D02*
X13734939Y-11621678D01*
X13759956Y-11184956D02*
X13789956Y-11214956D01*
X13789956Y-11184956D02*
X13759956Y-11214956D01*
X13760000Y-6960000D02*
X13790000Y-6990000D01*
X13790000Y-6960000D02*
X13760000Y-6990000D01*
X13785000Y-9545000D02*
X13815000Y-9575000D01*
X13815000Y-9545000D02*
X13785000Y-9575000D01*
X13853670Y-11176095D02*
X13883670Y-11206095D01*
X13883670Y-11176095D02*
X13853670Y-11206095D01*
X13867388Y-10780597D02*
X13897388Y-10810597D01*
X13897388Y-10780597D02*
X13867388Y-10810597D01*
X13874066Y-10689066D02*
X13904066Y-10719066D01*
X13904066Y-10689066D02*
X13874066Y-10719066D01*
X13945000Y-10800000D02*
X13975000Y-10830000D01*
X13975000Y-10800000D02*
X13945000Y-10830000D01*
X13956961Y-10640000D02*
X13986961Y-10670000D01*
X13986961Y-10640000D02*
X13956961Y-10670000D01*
X13960000Y-11225000D02*
X13990000Y-11255000D01*
X13990000Y-11225000D02*
X13960000Y-11255000D01*
X14017470Y-10560000D02*
X14047470Y-10590000D01*
X14047470Y-10560000D02*
X14017470Y-10590000D01*
X14035000Y-10800000D02*
X14065000Y-10830000D01*
X14065000Y-10800000D02*
X14035000Y-10830000D01*
X14035000Y-11285000D02*
X14065000Y-11315000D01*
X14065000Y-11285000D02*
X14035000Y-11315000D01*
X14210000Y-6635000D02*
X14240000Y-6665000D01*
X14240000Y-6635000D02*
X14210000Y-6665000D01*
X14335000Y-10925000D02*
X14365000Y-10955000D01*
X14365000Y-10925000D02*
X14335000Y-10955000D01*
X14385000Y-12105000D02*
X14415000Y-12135000D01*
X14415000Y-12105000D02*
X14385000Y-12135000D01*
X14435000Y-6085000D02*
X14465000Y-6115000D01*
X14465000Y-6085000D02*
X14435000Y-6115000D01*
X14435000Y-6885000D02*
X14465000Y-6915000D01*
X14465000Y-6885000D02*
X14435000Y-6915000D01*
X14460147Y-10965000D02*
X14490147Y-10995000D01*
X14490147Y-10965000D02*
X14460147Y-10995000D01*
X14535000Y-10935000D02*
X14565000Y-10965000D01*
X14565000Y-10935000D02*
X14535000Y-10965000D01*
X14625000Y-10925000D02*
X14655000Y-10955000D01*
X14655000Y-10925000D02*
X14625000Y-10955000D01*
X14635001Y-12419601D02*
X14665001Y-12449601D01*
X14665001Y-12419601D02*
X14635001Y-12449601D01*
X14729437Y-12733052D02*
X14759437Y-12763052D01*
X14759437Y-12733052D02*
X14729437Y-12763052D01*
X14745000Y-12005000D02*
X14775000Y-12035000D01*
X14775000Y-12005000D02*
X14745000Y-12035000D01*
X14794600Y-12435000D02*
X14824600Y-12465000D01*
X14824600Y-12435000D02*
X14794600Y-12465000D01*
X14810000Y-10510000D02*
X14840000Y-10540000D01*
X14840000Y-10510000D02*
X14810000Y-10540000D01*
X14825000Y-9535000D02*
X14855000Y-9565000D01*
X14855000Y-9535000D02*
X14825000Y-9565000D01*
X14827384Y-12827384D02*
X14857384Y-12857384D01*
X14857384Y-12827384D02*
X14827384Y-12857384D01*
X14860000Y-10585000D02*
X14890000Y-10615000D01*
X14890000Y-10585000D02*
X14860000Y-10615000D01*
X14885000Y-10885000D02*
X14915000Y-10915000D01*
X14915000Y-10885000D02*
X14885000Y-10915000D01*
X14885000Y-11610000D02*
X14915000Y-11640000D01*
X14915000Y-11610000D02*
X14885000Y-11640000D01*
X14945000Y-11535000D02*
X14975000Y-11565000D01*
X14975000Y-11535000D02*
X14945000Y-11565000D01*
X14960000Y-10835000D02*
X14990000Y-10865000D01*
X14990000Y-10835000D02*
X14960000Y-10865000D01*
X14984998Y-6160000D02*
X15014998Y-6190000D01*
X15014998Y-6160000D02*
X14984998Y-6190000D01*
X15035001Y-6260000D02*
X15065001Y-6290000D01*
X15065001Y-6260000D02*
X15035001Y-6290000D01*
X15052353Y-10885000D02*
X15082353Y-10915000D01*
X15082353Y-10885000D02*
X15052353Y-10915000D01*
X15085000Y-5060000D02*
X15115000Y-5090000D01*
X15115000Y-5060000D02*
X15085000Y-5090000D01*
X15085000Y-5510000D02*
X15115000Y-5540000D01*
X15115000Y-5510000D02*
X15085000Y-5540000D01*
X15095000Y-12535000D02*
X15125000Y-12565000D01*
X15125000Y-12535000D02*
X15095000Y-12565000D01*
X15225000Y-12025000D02*
X15255000Y-12055000D01*
X15255000Y-12025000D02*
X15225000Y-12055000D01*
X15254200Y-10410000D02*
X15284200Y-10440000D01*
X15284200Y-10410000D02*
X15254200Y-10440000D01*
X15260000Y-10735000D02*
X15290000Y-10765000D01*
X15290000Y-10735000D02*
X15260000Y-10765000D01*
X15265000Y-9985000D02*
X15295000Y-10015000D01*
X15295000Y-9985000D02*
X15265000Y-10015000D01*
X15275000Y-12260000D02*
X15305000Y-12290000D01*
X15305000Y-12260000D02*
X15275000Y-12290000D01*
X15310000Y-5910000D02*
X15340000Y-5940000D01*
X15340000Y-5910000D02*
X15310000Y-5940000D01*
X15310000Y-11185000D02*
X15340000Y-11215000D01*
X15340000Y-11185000D02*
X15310000Y-11215000D01*
X15335000Y-13910000D02*
X15365000Y-13940000D01*
X15365000Y-13910000D02*
X15335000Y-13940000D01*
X15352000Y-5052000D02*
X15382000Y-5082000D01*
X15382000Y-5052000D02*
X15352000Y-5082000D01*
X15360000Y-10185000D02*
X15390000Y-10215000D01*
X15390000Y-10185000D02*
X15360000Y-10215000D01*
X15379513Y-10372997D02*
X15409513Y-10402997D01*
X15409513Y-10372997D02*
X15379513Y-10402997D01*
X15385000Y-12410000D02*
X15415000Y-12440000D01*
X15415000Y-12410000D02*
X15385000Y-12440000D01*
X15410000Y-10560000D02*
X15440000Y-10590000D01*
X15440000Y-10560000D02*
X15410000Y-10590000D01*
X15410000Y-11660000D02*
X15440000Y-11690000D01*
X15440000Y-11660000D02*
X15410000Y-11690000D01*
X15444289Y-5105711D02*
X15474289Y-5135711D01*
X15474289Y-5105711D02*
X15444289Y-5135711D01*
X15450400Y-12260000D02*
X15480400Y-12290000D01*
X15480400Y-12260000D02*
X15450400Y-12290000D01*
X15485000Y-11610000D02*
X15515000Y-11640000D01*
X15515000Y-11610000D02*
X15485000Y-11640000D01*
X15510000Y-12035000D02*
X15540000Y-12065000D01*
X15540000Y-12035000D02*
X15510000Y-12065000D01*
X15575400Y-10288755D02*
X15605400Y-10318755D01*
X15605400Y-10288755D02*
X15575400Y-10318755D01*
X15575784Y-12294216D02*
X15605784Y-12324216D01*
X15605784Y-12294216D02*
X15575784Y-12324216D01*
X15585000Y-9860000D02*
X15615000Y-9890000D01*
X15615000Y-9860000D02*
X15585000Y-9890000D01*
X15610000Y-10785000D02*
X15640000Y-10815000D01*
X15640000Y-10785000D02*
X15610000Y-10815000D01*
X15610000Y-11585000D02*
X15640000Y-11615000D01*
X15640000Y-11585000D02*
X15610000Y-11615000D01*
X15626443Y-11232615D02*
X15656443Y-11262615D01*
X15656443Y-11232615D02*
X15626443Y-11262615D01*
X15629080Y-10119600D02*
X15659080Y-10149600D01*
X15659080Y-10119600D02*
X15629080Y-10149600D01*
X15785000Y-10865000D02*
X15815000Y-10895000D01*
X15815000Y-10865000D02*
X15785000Y-10895000D01*
X15845000Y-12025000D02*
X15875000Y-12055000D01*
X15875000Y-12025000D02*
X15845000Y-12055000D01*
X15985000Y-13910000D02*
X16015000Y-13940000D01*
X16015000Y-13910000D02*
X15985000Y-13940000D01*
X10498000Y-4358500D02*
G75*
G02*
X10438000Y-4358500I-30000J0D01*
G01*
X10438000Y-4358500D02*
G75*
G02*
X10498000Y-4358500I30000J0D01*
G01*
X10498000Y-4398500D02*
X10498000Y-4318500D01*
X10438000Y-4318500D02*
G75*
G02*
X10498000Y-4318500I30000J0D01*
G01*
X10438000Y-4318500D02*
X10438000Y-4398500D01*
X10438000Y-4398500D02*
G75*
G03*
X10498000Y-4398500I30000J0D01*
G01*
X10498000Y-4776500D02*
G75*
G02*
X10438000Y-4776500I-30000J0D01*
G01*
X10438000Y-4776500D02*
G75*
G02*
X10498000Y-4776500I30000J0D01*
G01*
X10498000Y-4831500D02*
X10498000Y-4721500D01*
X10438000Y-4721500D02*
G75*
G02*
X10498000Y-4721500I30000J0D01*
G01*
X10438000Y-4721500D02*
X10438000Y-4831500D01*
X10438000Y-4831500D02*
G75*
G03*
X10498000Y-4831500I30000J0D01*
G01*
X11362000Y-4358500D02*
G75*
G02*
X11302000Y-4358500I-30000J0D01*
G01*
X11302000Y-4358500D02*
G75*
G02*
X11362000Y-4358500I30000J0D01*
G01*
X11362000Y-4398500D02*
X11362000Y-4318500D01*
X11302000Y-4318500D02*
G75*
G02*
X11362000Y-4318500I30000J0D01*
G01*
X11302000Y-4318500D02*
X11302000Y-4398500D01*
X11302000Y-4398500D02*
G75*
G03*
X11362000Y-4398500I30000J0D01*
G01*
X11362000Y-4776500D02*
G75*
G02*
X11302000Y-4776500I-30000J0D01*
G01*
X11302000Y-4776500D02*
G75*
G02*
X11362000Y-4776500I30000J0D01*
G01*
X11362000Y-4831500D02*
X11362000Y-4721500D01*
X11302000Y-4721500D02*
G75*
G02*
X11362000Y-4721500I30000J0D01*
G01*
X11302000Y-4721500D02*
X11302000Y-4831500D01*
X11302000Y-4831500D02*
G75*
G03*
X11362000Y-4831500I30000J0D01*
G01*
X14992000Y-9388000D02*
X14992000Y-9458000D01*
X14957000Y-9423000D02*
X15027000Y-9423000D01*
X14992000Y-9515000D02*
X14992000Y-9585000D01*
X14957000Y-9550000D02*
X15027000Y-9550000D01*
X15119000Y-9388000D02*
X15119000Y-9458000D01*
X15084000Y-9423000D02*
X15154000Y-9423000D01*
X15119000Y-9515000D02*
X15119000Y-9585000D01*
X15084000Y-9550000D02*
X15154000Y-9550000D01*
X15246000Y-9388000D02*
X15246000Y-9458000D01*
X15211000Y-9423000D02*
X15281000Y-9423000D01*
X15246000Y-9515000D02*
X15246000Y-9585000D01*
X15211000Y-9550000D02*
X15281000Y-9550000D01*
X15373000Y-9388000D02*
X15373000Y-9458000D01*
X15338000Y-9423000D02*
X15408000Y-9423000D01*
X15373000Y-9515000D02*
X15373000Y-9585000D01*
X15338000Y-9550000D02*
X15408000Y-9550000D01*
X15500000Y-9388000D02*
X15500000Y-9458000D01*
X15465000Y-9423000D02*
X15535000Y-9423000D01*
X15500000Y-9515000D02*
X15500000Y-9585000D01*
X15465000Y-9550000D02*
X15535000Y-9550000D01*
X6570284Y-6578284D02*
X6570284Y-6521715D01*
X6513715Y-6521715D01*
X6513715Y-6578284D01*
X6570284Y-6578284D01*
X6570284Y-7078284D02*
X6570284Y-7021715D01*
X6513715Y-7021715D01*
X6513715Y-7078284D01*
X6570284Y-7078284D01*
X6570284Y-7678284D02*
X6570284Y-7621715D01*
X6513715Y-7621715D01*
X6513715Y-7678284D01*
X6570284Y-7678284D01*
X6570284Y-8178284D02*
X6570284Y-8121715D01*
X6513715Y-8121715D01*
X6513715Y-8178284D01*
X6570284Y-8178284D01*
X7270284Y-6078284D02*
X7270284Y-6021715D01*
X7213715Y-6021715D01*
X7213715Y-6078284D01*
X7270284Y-6078284D01*
X7586284Y-6578284D02*
X7586284Y-6521715D01*
X7529715Y-6521715D01*
X7529715Y-6578284D01*
X7586284Y-6578284D01*
X7586284Y-7078284D02*
X7586284Y-7021715D01*
X7529715Y-7021715D01*
X7529715Y-7078284D01*
X7586284Y-7078284D01*
X7586284Y-7678284D02*
X7586284Y-7621715D01*
X7529715Y-7621715D01*
X7529715Y-7678284D01*
X7586284Y-7678284D01*
X7586284Y-8178284D02*
X7586284Y-8121715D01*
X7529715Y-8121715D01*
X7529715Y-8178284D01*
X7586284Y-8178284D01*
X7928284Y-11760284D02*
X7928284Y-11703715D01*
X7871715Y-11703715D01*
X7871715Y-11760284D01*
X7928284Y-11760284D01*
X7928284Y-12776284D02*
X7928284Y-12719715D01*
X7871715Y-12719715D01*
X7871715Y-12776284D01*
X7928284Y-12776284D01*
X8051284Y-8178284D02*
X8051284Y-8121715D01*
X7994715Y-8121715D01*
X7994715Y-8178284D01*
X8051284Y-8178284D01*
X8070284Y-6578284D02*
X8070284Y-6521715D01*
X8013715Y-6521715D01*
X8013715Y-6578284D01*
X8070284Y-6578284D01*
X8070284Y-7078284D02*
X8070284Y-7021715D01*
X8013715Y-7021715D01*
X8013715Y-7078284D01*
X8070284Y-7078284D01*
X8070284Y-7678284D02*
X8070284Y-7621715D01*
X8013715Y-7621715D01*
X8013715Y-7678284D01*
X8070284Y-7678284D01*
X8286284Y-6078284D02*
X8286284Y-6021715D01*
X8229715Y-6021715D01*
X8229715Y-6078284D01*
X8286284Y-6078284D01*
X8408285Y-11760284D02*
X8408285Y-11703715D01*
X8351715Y-11703715D01*
X8351715Y-11760284D01*
X8408285Y-11760284D01*
X8408285Y-12776284D02*
X8408285Y-12719715D01*
X8351715Y-12719715D01*
X8351715Y-12776284D01*
X8408285Y-12776284D01*
X9067285Y-8178284D02*
X9067285Y-8121715D01*
X9010716Y-8121715D01*
X9010716Y-8178284D01*
X9067285Y-8178284D01*
X9086285Y-6578284D02*
X9086285Y-6521715D01*
X9029716Y-6521715D01*
X9029716Y-6578284D01*
X9086285Y-6578284D01*
X9086285Y-7078284D02*
X9086285Y-7021715D01*
X9029716Y-7021715D01*
X9029716Y-7078284D01*
X9086285Y-7078284D01*
X9086285Y-7678284D02*
X9086285Y-7621715D01*
X9029716Y-7621715D01*
X9029716Y-7678284D01*
X9086285Y-7678284D01*
X10453285Y-6373284D02*
X10453285Y-6316715D01*
X10396716Y-6316715D01*
X10396716Y-6373284D01*
X10453285Y-6373284D01*
X10453285Y-7328284D02*
X10453285Y-7271715D01*
X10396716Y-7271715D01*
X10396716Y-7328284D01*
X10453285Y-7328284D01*
X10803285Y-6373284D02*
X10803285Y-6316715D01*
X10746716Y-6316715D01*
X10746716Y-6373284D01*
X10803285Y-6373284D01*
X10803285Y-7328284D02*
X10803285Y-7271715D01*
X10746716Y-7271715D01*
X10746716Y-7328284D01*
X10803285Y-7328284D01*
X6650000Y-10672500D02*
X6700000Y-10622500D01*
X6650000Y-10572500D01*
X6600000Y-10622500D01*
X6650000Y-10672500D01*
X6650000Y-10926500D02*
X6700000Y-10876500D01*
X6650000Y-10826500D01*
X6600000Y-10876500D01*
X6650000Y-10926500D01*
X6650000Y-11573500D02*
X6700000Y-11523500D01*
X6650000Y-11473500D01*
X6600000Y-11523500D01*
X6650000Y-11573500D01*
X6650000Y-11827500D02*
X6700000Y-11777500D01*
X6650000Y-11727500D01*
X6600000Y-11777500D01*
X6650000Y-11827500D01*
X6772500Y-12950000D02*
X6822500Y-12900000D01*
X6772500Y-12850000D01*
X6722500Y-12900000D01*
X6772500Y-12950000D01*
X6772500Y-13475000D02*
X6822500Y-13425000D01*
X6772500Y-13375000D01*
X6722500Y-13425000D01*
X6772500Y-13475000D01*
X7026500Y-12950000D02*
X7076500Y-12900000D01*
X7026500Y-12850000D01*
X6976500Y-12900000D01*
X7026500Y-12950000D01*
X7026500Y-13475000D02*
X7076500Y-13425000D01*
X7026500Y-13375000D01*
X6976500Y-13425000D01*
X7026500Y-13475000D01*
X7280500Y-12950000D02*
X7330500Y-12900000D01*
X7280500Y-12850000D01*
X7230500Y-12900000D01*
X7280500Y-12950000D01*
X7280500Y-13475000D02*
X7330500Y-13425000D01*
X7280500Y-13375000D01*
X7230500Y-13425000D01*
X7280500Y-13475000D01*
X9300000Y-9350000D02*
X9350000Y-9300000D01*
X9300000Y-9250000D01*
X9250000Y-9300000D01*
X9300000Y-9350000D01*
X9700000Y-11550000D02*
X9750000Y-11500000D01*
X9700000Y-11450000D01*
X9650000Y-11500000D01*
X9700000Y-11550000D01*
X10000000Y-9350000D02*
X10050000Y-9300000D01*
X10000000Y-9250000D01*
X9950000Y-9300000D01*
X10000000Y-9350000D01*
X10254000Y-9350000D02*
X10304000Y-9300000D01*
X10254000Y-9250000D01*
X10204000Y-9300000D01*
X10254000Y-9350000D01*
X10508000Y-9350000D02*
X10558000Y-9300000D01*
X10508000Y-9250000D01*
X10458000Y-9300000D01*
X10508000Y-9350000D01*
X10600000Y-12730000D02*
X10650000Y-12680000D01*
X10600000Y-12630000D01*
X10550000Y-12680000D01*
X10600000Y-12730000D01*
X10600000Y-13670000D02*
X10650000Y-13620000D01*
X10600000Y-13570000D01*
X10550000Y-13620000D01*
X10600000Y-13670000D01*
X10800000Y-8250000D02*
X10850000Y-8200000D01*
X10800000Y-8150000D01*
X10750000Y-8200000D01*
X10800000Y-8250000D01*
X11100000Y-9350000D02*
X11150000Y-9300000D01*
X11100000Y-9250000D01*
X11050000Y-9300000D01*
X11100000Y-9350000D01*
X11173500Y-11970000D02*
X11223500Y-11920000D01*
X11173500Y-11870000D01*
X11123500Y-11920000D01*
X11173500Y-11970000D01*
X11427500Y-11970000D02*
X11477500Y-11920000D01*
X11427500Y-11870000D01*
X11377500Y-11920000D01*
X11427500Y-11970000D01*
X11530000Y-13750000D02*
X11580000Y-13700000D01*
X11530000Y-13650000D01*
X11480000Y-13700000D01*
X11530000Y-13750000D01*
X11784000Y-13750000D02*
X11834000Y-13700000D01*
X11784000Y-13650000D01*
X11734000Y-13700000D01*
X11784000Y-13750000D01*
X11900000Y-8696000D02*
X11950000Y-8646000D01*
X11900000Y-8596000D01*
X11850000Y-8646000D01*
X11900000Y-8696000D01*
X11900000Y-8950000D02*
X11950000Y-8900000D01*
X11900000Y-8850000D01*
X11850000Y-8900000D01*
X11900000Y-8950000D01*
X11900000Y-9204000D02*
X11950000Y-9154000D01*
X11900000Y-9104000D01*
X11850000Y-9154000D01*
X11900000Y-9204000D01*
X12038000Y-13750000D02*
X12088000Y-13700000D01*
X12038000Y-13650000D01*
X11988000Y-13700000D01*
X12038000Y-13750000D01*
X12292000Y-13750000D02*
X12342000Y-13700000D01*
X12292000Y-13650000D01*
X12242000Y-13700000D01*
X12292000Y-13750000D01*
X12546000Y-13750000D02*
X12596000Y-13700000D01*
X12546000Y-13650000D01*
X12496000Y-13700000D01*
X12546000Y-13750000D01*
X12600000Y-7242500D02*
X12650000Y-7192500D01*
X12600000Y-7142500D01*
X12550000Y-7192500D01*
X12600000Y-7242500D01*
X12600000Y-7496500D02*
X12650000Y-7446500D01*
X12600000Y-7396500D01*
X12550000Y-7446500D01*
X12600000Y-7496500D01*
X12625000Y-4692000D02*
X12675000Y-4642000D01*
X12625000Y-4592000D01*
X12575000Y-4642000D01*
X12625000Y-4692000D01*
X12625000Y-4946000D02*
X12675000Y-4896000D01*
X12625000Y-4846000D01*
X12575000Y-4896000D01*
X12625000Y-4946000D01*
X12625000Y-5200000D02*
X12675000Y-5150000D01*
X12625000Y-5100000D01*
X12575000Y-5150000D01*
X12625000Y-5200000D01*
X12625000Y-5454000D02*
X12675000Y-5404000D01*
X12625000Y-5354000D01*
X12575000Y-5404000D01*
X12625000Y-5454000D01*
X12773500Y-8725000D02*
X12823500Y-8675000D01*
X12773500Y-8625000D01*
X12723500Y-8675000D01*
X12773500Y-8725000D01*
X12800000Y-13750000D02*
X12850000Y-13700000D01*
X12800000Y-13650000D01*
X12750000Y-13700000D01*
X12800000Y-13750000D01*
X13027500Y-8725000D02*
X13077500Y-8675000D01*
X13027500Y-8625000D01*
X12977500Y-8675000D01*
X13027500Y-8725000D01*
X13397500Y-13800000D02*
X13447500Y-13750000D01*
X13397500Y-13700000D01*
X13347500Y-13750000D01*
X13397500Y-13800000D01*
X13651500Y-13800000D02*
X13701500Y-13750000D01*
X13651500Y-13700000D01*
X13601500Y-13750000D01*
X13651500Y-13800000D01*
X13905500Y-13800000D02*
X13955500Y-13750000D01*
X13905500Y-13700000D01*
X13855500Y-13750000D01*
X13905500Y-13800000D01*
X14397500Y-13800000D02*
X14447500Y-13750000D01*
X14397500Y-13700000D01*
X14347500Y-13750000D01*
X14397500Y-13800000D01*
X14651500Y-13800000D02*
X14701500Y-13750000D01*
X14651500Y-13700000D01*
X14601500Y-13750000D01*
X14651500Y-13800000D01*
X14712500Y-10230000D02*
X14762500Y-10180000D01*
X14712500Y-10130000D01*
X14662500Y-10180000D01*
X14712500Y-10230000D01*
X14905500Y-13800000D02*
X14955500Y-13750000D01*
X14905500Y-13700000D01*
X14855500Y-13750000D01*
X14905500Y-13800000D01*
X14966500Y-10230000D02*
X15016500Y-10180000D01*
X14966500Y-10130000D01*
X14916500Y-10180000D01*
X14966500Y-10230000D01*
X15750000Y-4480000D02*
X15800000Y-4430000D01*
X15750000Y-4380000D01*
X15700000Y-4430000D01*
X15750000Y-4480000D01*
X15750000Y-4734000D02*
X15800000Y-4684000D01*
X15750000Y-4634000D01*
X15700000Y-4684000D01*
X15750000Y-4734000D01*
X15750000Y-4988000D02*
X15800000Y-4938000D01*
X15750000Y-4888000D01*
X15700000Y-4938000D01*
X15750000Y-4988000D01*
X15750000Y-5242000D02*
X15800000Y-5192000D01*
X15750000Y-5142000D01*
X15700000Y-5192000D01*
X15750000Y-5242000D01*
X15750000Y-5496000D02*
X15800000Y-5446000D01*
X15750000Y-5396000D01*
X15700000Y-5446000D01*
X15750000Y-5496000D01*
X15750000Y-5750000D02*
X15800000Y-5700000D01*
X15750000Y-5650000D01*
X15700000Y-5700000D01*
X15750000Y-5750000D01*
X15900000Y-10042000D02*
X15950000Y-9992000D01*
X15900000Y-9942000D01*
X15850000Y-9992000D01*
X15900000Y-10042000D01*
X15900000Y-10296000D02*
X15950000Y-10246000D01*
X15900000Y-10196000D01*
X15850000Y-10246000D01*
X15900000Y-10296000D01*
X15900000Y-10550000D02*
X15950000Y-10500000D01*
X15900000Y-10450000D01*
X15850000Y-10500000D01*
X15900000Y-10550000D01*
X15925000Y-12363000D02*
X15975000Y-12313000D01*
X15925000Y-12263000D01*
X15875000Y-12313000D01*
X15925000Y-12363000D01*
X15925000Y-12617000D02*
X15975000Y-12567000D01*
X15925000Y-12517000D01*
X15875000Y-12567000D01*
X15925000Y-12617000D01*
X15925000Y-12871000D02*
X15975000Y-12821000D01*
X15925000Y-12771000D01*
X15875000Y-12821000D01*
X15925000Y-12871000D01*
X15925000Y-13125000D02*
X15975000Y-13075000D01*
X15925000Y-13025000D01*
X15875000Y-13075000D01*
X15925000Y-13125000D01*
D12*
X8845000Y-4687000D02*
X8955000Y-4797000D01*
X8955000Y-4687000D02*
X8845000Y-4797000D01*
X8955000Y-4742000D02*
G75*
G02*
X8845000Y-4742000I-55000J0D01*
G01*
X8845000Y-4742000D02*
G75*
G02*
X8955000Y-4742000I55000J0D01*
G01*
X8845000Y-4941000D02*
X8955000Y-5051000D01*
X8955000Y-4941000D02*
X8845000Y-5051000D01*
X8955000Y-4996000D02*
G75*
G02*
X8845000Y-4996000I-55000J0D01*
G01*
X8845000Y-4996000D02*
G75*
G02*
X8955000Y-4996000I55000J0D01*
G01*
X8845000Y-5195000D02*
X8955000Y-5305000D01*
X8955000Y-5195000D02*
X8845000Y-5305000D01*
X8955000Y-5250000D02*
G75*
G02*
X8845000Y-5250000I-55000J0D01*
G01*
X8845000Y-5250000D02*
G75*
G02*
X8955000Y-5250000I55000J0D01*
G01*
D13*
X15375000Y-6650000D02*
X15525000Y-6800000D01*
X15525000Y-6650000D02*
X15375000Y-6800000D01*
X15450000Y-6650000D02*
X15450000Y-6800000D01*
X15375000Y-6725000D02*
X15525000Y-6725000D01*
D14*
X15116000Y-6391000D02*
X15276000Y-6551000D01*
X15276000Y-6391000D02*
X15116000Y-6551000D01*
X15252569Y-6527569D02*
X15252569Y-6414431D01*
X15139431Y-6414431D01*
X15139431Y-6527569D01*
X15252569Y-6527569D01*
X15116000Y-6899000D02*
X15276000Y-7059000D01*
X15276000Y-6899000D02*
X15116000Y-7059000D01*
X15252569Y-7035569D02*
X15252569Y-6922431D01*
X15139431Y-6922431D01*
X15139431Y-7035569D01*
X15252569Y-7035569D01*
X15624000Y-6391000D02*
X15784000Y-6551000D01*
X15784000Y-6391000D02*
X15624000Y-6551000D01*
X15760569Y-6527569D02*
X15760569Y-6414431D01*
X15647431Y-6414431D01*
X15647431Y-6527569D01*
X15760569Y-6527569D01*
X15624000Y-6899000D02*
X15784000Y-7059000D01*
X15784000Y-6899000D02*
X15624000Y-7059000D01*
X15760569Y-7035569D02*
X15760569Y-6922431D01*
X15647431Y-6922431D01*
X15647431Y-7035569D01*
X15760569Y-7035569D01*
D10*
X6450777Y-14421484D02*
X6450777Y-14221484D01*
X6450777Y-14221484D02*
X6498396Y-14221484D01*
X6498396Y-14221484D02*
X6526967Y-14231008D01*
X6526967Y-14231008D02*
X6546015Y-14250055D01*
X6546015Y-14250055D02*
X6555539Y-14269103D01*
X6555539Y-14269103D02*
X6565062Y-14307198D01*
X6565062Y-14307198D02*
X6565062Y-14335769D01*
X6565062Y-14335769D02*
X6555539Y-14373865D01*
X6555539Y-14373865D02*
X6546015Y-14392912D01*
X6546015Y-14392912D02*
X6526967Y-14411960D01*
X6526967Y-14411960D02*
X6498396Y-14421484D01*
X6498396Y-14421484D02*
X6450777Y-14421484D01*
X6650777Y-14421484D02*
X6650777Y-14288150D01*
X6650777Y-14326246D02*
X6660301Y-14307198D01*
X6660301Y-14307198D02*
X6669824Y-14297674D01*
X6669824Y-14297674D02*
X6688872Y-14288150D01*
X6688872Y-14288150D02*
X6707920Y-14288150D01*
X6774586Y-14421484D02*
X6774586Y-14288150D01*
X6774586Y-14221484D02*
X6765062Y-14231008D01*
X6765062Y-14231008D02*
X6774586Y-14240531D01*
X6774586Y-14240531D02*
X6784110Y-14231008D01*
X6784110Y-14231008D02*
X6774586Y-14221484D01*
X6774586Y-14221484D02*
X6774586Y-14240531D01*
X6898396Y-14421484D02*
X6879348Y-14411960D01*
X6879348Y-14411960D02*
X6869824Y-14392912D01*
X6869824Y-14392912D02*
X6869824Y-14221484D01*
X7003158Y-14421484D02*
X6984110Y-14411960D01*
X6984110Y-14411960D02*
X6974586Y-14392912D01*
X6974586Y-14392912D02*
X6974586Y-14221484D01*
X7231729Y-14421484D02*
X7231729Y-14221484D01*
X7231729Y-14221484D02*
X7298396Y-14364341D01*
X7298396Y-14364341D02*
X7365062Y-14221484D01*
X7365062Y-14221484D02*
X7365062Y-14421484D01*
X7546015Y-14421484D02*
X7546015Y-14316722D01*
X7546015Y-14316722D02*
X7536491Y-14297674D01*
X7536491Y-14297674D02*
X7517443Y-14288150D01*
X7517443Y-14288150D02*
X7479348Y-14288150D01*
X7479348Y-14288150D02*
X7460301Y-14297674D01*
X7546015Y-14411960D02*
X7526967Y-14421484D01*
X7526967Y-14421484D02*
X7479348Y-14421484D01*
X7479348Y-14421484D02*
X7460301Y-14411960D01*
X7460301Y-14411960D02*
X7450777Y-14392912D01*
X7450777Y-14392912D02*
X7450777Y-14373865D01*
X7450777Y-14373865D02*
X7460301Y-14354817D01*
X7460301Y-14354817D02*
X7479348Y-14345293D01*
X7479348Y-14345293D02*
X7526967Y-14345293D01*
X7526967Y-14345293D02*
X7546015Y-14335769D01*
X7641253Y-14288150D02*
X7641253Y-14488150D01*
X7641253Y-14297674D02*
X7660301Y-14288150D01*
X7660301Y-14288150D02*
X7698396Y-14288150D01*
X7698396Y-14288150D02*
X7717443Y-14297674D01*
X7717443Y-14297674D02*
X7726967Y-14307198D01*
X7726967Y-14307198D02*
X7736491Y-14326246D01*
X7736491Y-14326246D02*
X7736491Y-14383388D01*
X7736491Y-14383388D02*
X7726967Y-14402436D01*
X7726967Y-14402436D02*
X7717443Y-14411960D01*
X7717443Y-14411960D02*
X7698396Y-14421484D01*
X7698396Y-14421484D02*
X7660301Y-14421484D01*
X7660301Y-14421484D02*
X7641253Y-14411960D01*
X7822205Y-14402436D02*
X7831729Y-14411960D01*
X7831729Y-14411960D02*
X7822205Y-14421484D01*
X7822205Y-14421484D02*
X7812682Y-14411960D01*
X7812682Y-14411960D02*
X7822205Y-14402436D01*
X7822205Y-14402436D02*
X7822205Y-14421484D01*
X7822205Y-14297674D02*
X7831729Y-14307198D01*
X7831729Y-14307198D02*
X7822205Y-14316722D01*
X7822205Y-14316722D02*
X7812682Y-14307198D01*
X7812682Y-14307198D02*
X7822205Y-14297674D01*
X7822205Y-14297674D02*
X7822205Y-14316722D01*
D11*
X6160000Y-14735000D02*
X6190000Y-14765000D01*
X6190000Y-14735000D02*
X6160000Y-14765000D01*
D10*
X6488872Y-14641484D02*
X6507920Y-14641484D01*
X6507920Y-14641484D02*
X6526967Y-14651008D01*
X6526967Y-14651008D02*
X6536491Y-14660531D01*
X6536491Y-14660531D02*
X6546015Y-14679579D01*
X6546015Y-14679579D02*
X6555539Y-14717674D01*
X6555539Y-14717674D02*
X6555539Y-14765293D01*
X6555539Y-14765293D02*
X6546015Y-14803388D01*
X6546015Y-14803388D02*
X6536491Y-14822436D01*
X6536491Y-14822436D02*
X6526967Y-14831960D01*
X6526967Y-14831960D02*
X6507920Y-14841484D01*
X6507920Y-14841484D02*
X6488872Y-14841484D01*
X6488872Y-14841484D02*
X6469824Y-14831960D01*
X6469824Y-14831960D02*
X6460301Y-14822436D01*
X6460301Y-14822436D02*
X6450777Y-14803388D01*
X6450777Y-14803388D02*
X6441253Y-14765293D01*
X6441253Y-14765293D02*
X6441253Y-14717674D01*
X6441253Y-14717674D02*
X6450777Y-14679579D01*
X6450777Y-14679579D02*
X6460301Y-14660531D01*
X6460301Y-14660531D02*
X6469824Y-14651008D01*
X6469824Y-14651008D02*
X6488872Y-14641484D01*
X6641253Y-14822436D02*
X6650777Y-14831960D01*
X6650777Y-14831960D02*
X6641253Y-14841484D01*
X6641253Y-14841484D02*
X6631729Y-14831960D01*
X6631729Y-14831960D02*
X6641253Y-14822436D01*
X6641253Y-14822436D02*
X6641253Y-14841484D01*
X6717443Y-14641484D02*
X6841253Y-14641484D01*
X6841253Y-14641484D02*
X6774586Y-14717674D01*
X6774586Y-14717674D02*
X6803158Y-14717674D01*
X6803158Y-14717674D02*
X6822205Y-14727198D01*
X6822205Y-14727198D02*
X6831729Y-14736722D01*
X6831729Y-14736722D02*
X6841253Y-14755769D01*
X6841253Y-14755769D02*
X6841253Y-14803388D01*
X6841253Y-14803388D02*
X6831729Y-14822436D01*
X6831729Y-14822436D02*
X6822205Y-14831960D01*
X6822205Y-14831960D02*
X6803158Y-14841484D01*
X6803158Y-14841484D02*
X6746015Y-14841484D01*
X6746015Y-14841484D02*
X6726967Y-14831960D01*
X6726967Y-14831960D02*
X6717443Y-14822436D01*
X6965062Y-14641484D02*
X6984110Y-14641484D01*
X6984110Y-14641484D02*
X7003158Y-14651008D01*
X7003158Y-14651008D02*
X7012682Y-14660531D01*
X7012682Y-14660531D02*
X7022205Y-14679579D01*
X7022205Y-14679579D02*
X7031729Y-14717674D01*
X7031729Y-14717674D02*
X7031729Y-14765293D01*
X7031729Y-14765293D02*
X7022205Y-14803388D01*
X7022205Y-14803388D02*
X7012682Y-14822436D01*
X7012682Y-14822436D02*
X7003158Y-14831960D01*
X7003158Y-14831960D02*
X6984110Y-14841484D01*
X6984110Y-14841484D02*
X6965062Y-14841484D01*
X6965062Y-14841484D02*
X6946015Y-14831960D01*
X6946015Y-14831960D02*
X6936491Y-14822436D01*
X6936491Y-14822436D02*
X6926967Y-14803388D01*
X6926967Y-14803388D02*
X6917443Y-14765293D01*
X6917443Y-14765293D02*
X6917443Y-14717674D01*
X6917443Y-14717674D02*
X6926967Y-14679579D01*
X6926967Y-14679579D02*
X6936491Y-14660531D01*
X6936491Y-14660531D02*
X6946015Y-14651008D01*
X6946015Y-14651008D02*
X6965062Y-14641484D01*
X7155539Y-14641484D02*
X7174586Y-14641484D01*
X7174586Y-14641484D02*
X7193634Y-14651008D01*
X7193634Y-14651008D02*
X7203158Y-14660531D01*
X7203158Y-14660531D02*
X7212682Y-14679579D01*
X7212682Y-14679579D02*
X7222205Y-14717674D01*
X7222205Y-14717674D02*
X7222205Y-14765293D01*
X7222205Y-14765293D02*
X7212682Y-14803388D01*
X7212682Y-14803388D02*
X7203158Y-14822436D01*
X7203158Y-14822436D02*
X7193634Y-14831960D01*
X7193634Y-14831960D02*
X7174586Y-14841484D01*
X7174586Y-14841484D02*
X7155539Y-14841484D01*
X7155539Y-14841484D02*
X7136491Y-14831960D01*
X7136491Y-14831960D02*
X7126967Y-14822436D01*
X7126967Y-14822436D02*
X7117443Y-14803388D01*
X7117443Y-14803388D02*
X7107920Y-14765293D01*
X7107920Y-14765293D02*
X7107920Y-14717674D01*
X7107920Y-14717674D02*
X7117443Y-14679579D01*
X7117443Y-14679579D02*
X7126967Y-14660531D01*
X7126967Y-14660531D02*
X7136491Y-14651008D01*
X7136491Y-14651008D02*
X7155539Y-14641484D01*
X7307920Y-14841484D02*
X7307920Y-14708150D01*
X7307920Y-14727198D02*
X7317443Y-14717674D01*
X7317443Y-14717674D02*
X7336491Y-14708150D01*
X7336491Y-14708150D02*
X7365063Y-14708150D01*
X7365063Y-14708150D02*
X7384110Y-14717674D01*
X7384110Y-14717674D02*
X7393634Y-14736722D01*
X7393634Y-14736722D02*
X7393634Y-14841484D01*
X7393634Y-14736722D02*
X7403158Y-14717674D01*
X7403158Y-14717674D02*
X7422205Y-14708150D01*
X7422205Y-14708150D02*
X7450777Y-14708150D01*
X7450777Y-14708150D02*
X7469824Y-14717674D01*
X7469824Y-14717674D02*
X7479348Y-14736722D01*
X7479348Y-14736722D02*
X7479348Y-14841484D01*
X7574586Y-14841484D02*
X7574586Y-14708150D01*
X7574586Y-14727198D02*
X7584110Y-14717674D01*
X7584110Y-14717674D02*
X7603158Y-14708150D01*
X7603158Y-14708150D02*
X7631729Y-14708150D01*
X7631729Y-14708150D02*
X7650777Y-14717674D01*
X7650777Y-14717674D02*
X7660301Y-14736722D01*
X7660301Y-14736722D02*
X7660301Y-14841484D01*
X7660301Y-14736722D02*
X7669824Y-14717674D01*
X7669824Y-14717674D02*
X7688872Y-14708150D01*
X7688872Y-14708150D02*
X7717443Y-14708150D01*
X7717443Y-14708150D02*
X7736491Y-14717674D01*
X7736491Y-14717674D02*
X7746015Y-14736722D01*
X7746015Y-14736722D02*
X7746015Y-14841484D01*
X8136491Y-14631960D02*
X7965063Y-14889103D01*
X8393634Y-14641484D02*
X8412682Y-14641484D01*
X8412682Y-14641484D02*
X8431729Y-14651008D01*
X8431729Y-14651008D02*
X8441253Y-14660531D01*
X8441253Y-14660531D02*
X8450777Y-14679579D01*
X8450777Y-14679579D02*
X8460301Y-14717674D01*
X8460301Y-14717674D02*
X8460301Y-14765293D01*
X8460301Y-14765293D02*
X8450777Y-14803388D01*
X8450777Y-14803388D02*
X8441253Y-14822436D01*
X8441253Y-14822436D02*
X8431729Y-14831960D01*
X8431729Y-14831960D02*
X8412682Y-14841484D01*
X8412682Y-14841484D02*
X8393634Y-14841484D01*
X8393634Y-14841484D02*
X8374586Y-14831960D01*
X8374586Y-14831960D02*
X8365063Y-14822436D01*
X8365063Y-14822436D02*
X8355539Y-14803388D01*
X8355539Y-14803388D02*
X8346015Y-14765293D01*
X8346015Y-14765293D02*
X8346015Y-14717674D01*
X8346015Y-14717674D02*
X8355539Y-14679579D01*
X8355539Y-14679579D02*
X8365063Y-14660531D01*
X8365063Y-14660531D02*
X8374586Y-14651008D01*
X8374586Y-14651008D02*
X8393634Y-14641484D01*
X8546015Y-14822436D02*
X8555539Y-14831960D01*
X8555539Y-14831960D02*
X8546015Y-14841484D01*
X8546015Y-14841484D02*
X8536491Y-14831960D01*
X8536491Y-14831960D02*
X8546015Y-14822436D01*
X8546015Y-14822436D02*
X8546015Y-14841484D01*
X8679348Y-14641484D02*
X8698396Y-14641484D01*
X8698396Y-14641484D02*
X8717444Y-14651008D01*
X8717444Y-14651008D02*
X8726968Y-14660531D01*
X8726968Y-14660531D02*
X8736491Y-14679579D01*
X8736491Y-14679579D02*
X8746015Y-14717674D01*
X8746015Y-14717674D02*
X8746015Y-14765293D01*
X8746015Y-14765293D02*
X8736491Y-14803388D01*
X8736491Y-14803388D02*
X8726968Y-14822436D01*
X8726968Y-14822436D02*
X8717444Y-14831960D01*
X8717444Y-14831960D02*
X8698396Y-14841484D01*
X8698396Y-14841484D02*
X8679348Y-14841484D01*
X8679348Y-14841484D02*
X8660301Y-14831960D01*
X8660301Y-14831960D02*
X8650777Y-14822436D01*
X8650777Y-14822436D02*
X8641253Y-14803388D01*
X8641253Y-14803388D02*
X8631729Y-14765293D01*
X8631729Y-14765293D02*
X8631729Y-14717674D01*
X8631729Y-14717674D02*
X8641253Y-14679579D01*
X8641253Y-14679579D02*
X8650777Y-14660531D01*
X8650777Y-14660531D02*
X8660301Y-14651008D01*
X8660301Y-14651008D02*
X8679348Y-14641484D01*
X8936491Y-14841484D02*
X8822206Y-14841484D01*
X8879348Y-14841484D02*
X8879348Y-14641484D01*
X8879348Y-14641484D02*
X8860301Y-14670055D01*
X8860301Y-14670055D02*
X8841253Y-14689103D01*
X8841253Y-14689103D02*
X8822206Y-14698627D01*
X9126968Y-14841484D02*
X9012682Y-14841484D01*
X9069825Y-14841484D02*
X9069825Y-14641484D01*
X9069825Y-14641484D02*
X9050777Y-14670055D01*
X9050777Y-14670055D02*
X9031729Y-14689103D01*
X9031729Y-14689103D02*
X9012682Y-14698627D01*
X9241253Y-14727198D02*
X9222206Y-14717674D01*
X9222206Y-14717674D02*
X9212682Y-14708150D01*
X9212682Y-14708150D02*
X9203158Y-14689103D01*
X9203158Y-14689103D02*
X9203158Y-14679579D01*
X9203158Y-14679579D02*
X9212682Y-14660531D01*
X9212682Y-14660531D02*
X9222206Y-14651008D01*
X9222206Y-14651008D02*
X9241253Y-14641484D01*
X9241253Y-14641484D02*
X9279349Y-14641484D01*
X9279349Y-14641484D02*
X9298396Y-14651008D01*
X9298396Y-14651008D02*
X9307920Y-14660531D01*
X9307920Y-14660531D02*
X9317444Y-14679579D01*
X9317444Y-14679579D02*
X9317444Y-14689103D01*
X9317444Y-14689103D02*
X9307920Y-14708150D01*
X9307920Y-14708150D02*
X9298396Y-14717674D01*
X9298396Y-14717674D02*
X9279349Y-14727198D01*
X9279349Y-14727198D02*
X9241253Y-14727198D01*
X9241253Y-14727198D02*
X9222206Y-14736722D01*
X9222206Y-14736722D02*
X9212682Y-14746246D01*
X9212682Y-14746246D02*
X9203158Y-14765293D01*
X9203158Y-14765293D02*
X9203158Y-14803388D01*
X9203158Y-14803388D02*
X9212682Y-14822436D01*
X9212682Y-14822436D02*
X9222206Y-14831960D01*
X9222206Y-14831960D02*
X9241253Y-14841484D01*
X9241253Y-14841484D02*
X9279349Y-14841484D01*
X9279349Y-14841484D02*
X9298396Y-14831960D01*
X9298396Y-14831960D02*
X9307920Y-14822436D01*
X9307920Y-14822436D02*
X9317444Y-14803388D01*
X9317444Y-14803388D02*
X9317444Y-14765293D01*
X9317444Y-14765293D02*
X9307920Y-14746246D01*
X9307920Y-14746246D02*
X9298396Y-14736722D01*
X9298396Y-14736722D02*
X9279349Y-14727198D01*
X9393634Y-14641484D02*
X9393634Y-14679579D01*
X9469825Y-14641484D02*
X9469825Y-14679579D01*
X9765063Y-14917674D02*
X9755539Y-14908150D01*
X9755539Y-14908150D02*
X9736491Y-14879579D01*
X9736491Y-14879579D02*
X9726968Y-14860531D01*
X9726968Y-14860531D02*
X9717444Y-14831960D01*
X9717444Y-14831960D02*
X9707920Y-14784341D01*
X9707920Y-14784341D02*
X9707920Y-14746246D01*
X9707920Y-14746246D02*
X9717444Y-14698627D01*
X9717444Y-14698627D02*
X9726968Y-14670055D01*
X9726968Y-14670055D02*
X9736491Y-14651008D01*
X9736491Y-14651008D02*
X9755539Y-14622436D01*
X9755539Y-14622436D02*
X9765063Y-14612912D01*
X9946015Y-14841484D02*
X9831730Y-14841484D01*
X9888872Y-14841484D02*
X9888872Y-14641484D01*
X9888872Y-14641484D02*
X9869825Y-14670055D01*
X9869825Y-14670055D02*
X9850777Y-14689103D01*
X9850777Y-14689103D02*
X9831730Y-14698627D01*
X10012682Y-14641484D02*
X10136491Y-14641484D01*
X10136491Y-14641484D02*
X10069825Y-14717674D01*
X10069825Y-14717674D02*
X10098396Y-14717674D01*
X10098396Y-14717674D02*
X10117444Y-14727198D01*
X10117444Y-14727198D02*
X10126968Y-14736722D01*
X10126968Y-14736722D02*
X10136491Y-14755769D01*
X10136491Y-14755769D02*
X10136491Y-14803388D01*
X10136491Y-14803388D02*
X10126968Y-14822436D01*
X10126968Y-14822436D02*
X10117444Y-14831960D01*
X10117444Y-14831960D02*
X10098396Y-14841484D01*
X10098396Y-14841484D02*
X10041253Y-14841484D01*
X10041253Y-14841484D02*
X10022206Y-14831960D01*
X10022206Y-14831960D02*
X10012682Y-14822436D01*
X10212682Y-14660531D02*
X10222206Y-14651008D01*
X10222206Y-14651008D02*
X10241253Y-14641484D01*
X10241253Y-14641484D02*
X10288872Y-14641484D01*
X10288872Y-14641484D02*
X10307920Y-14651008D01*
X10307920Y-14651008D02*
X10317444Y-14660531D01*
X10317444Y-14660531D02*
X10326968Y-14679579D01*
X10326968Y-14679579D02*
X10326968Y-14698627D01*
X10326968Y-14698627D02*
X10317444Y-14727198D01*
X10317444Y-14727198D02*
X10203158Y-14841484D01*
X10203158Y-14841484D02*
X10326968Y-14841484D01*
X10565063Y-14841484D02*
X10565063Y-14641484D01*
X10650777Y-14841484D02*
X10650777Y-14736722D01*
X10650777Y-14736722D02*
X10641253Y-14717674D01*
X10641253Y-14717674D02*
X10622206Y-14708150D01*
X10622206Y-14708150D02*
X10593634Y-14708150D01*
X10593634Y-14708150D02*
X10574587Y-14717674D01*
X10574587Y-14717674D02*
X10565063Y-14727198D01*
X10774587Y-14841484D02*
X10755539Y-14831960D01*
X10755539Y-14831960D02*
X10746015Y-14822436D01*
X10746015Y-14822436D02*
X10736492Y-14803388D01*
X10736492Y-14803388D02*
X10736492Y-14746246D01*
X10736492Y-14746246D02*
X10746015Y-14727198D01*
X10746015Y-14727198D02*
X10755539Y-14717674D01*
X10755539Y-14717674D02*
X10774587Y-14708150D01*
X10774587Y-14708150D02*
X10803158Y-14708150D01*
X10803158Y-14708150D02*
X10822206Y-14717674D01*
X10822206Y-14717674D02*
X10831730Y-14727198D01*
X10831730Y-14727198D02*
X10841253Y-14746246D01*
X10841253Y-14746246D02*
X10841253Y-14803388D01*
X10841253Y-14803388D02*
X10831730Y-14822436D01*
X10831730Y-14822436D02*
X10822206Y-14831960D01*
X10822206Y-14831960D02*
X10803158Y-14841484D01*
X10803158Y-14841484D02*
X10774587Y-14841484D01*
X10955539Y-14841484D02*
X10936492Y-14831960D01*
X10936492Y-14831960D02*
X10926968Y-14812912D01*
X10926968Y-14812912D02*
X10926968Y-14641484D01*
X11107920Y-14831960D02*
X11088873Y-14841484D01*
X11088873Y-14841484D02*
X11050777Y-14841484D01*
X11050777Y-14841484D02*
X11031730Y-14831960D01*
X11031730Y-14831960D02*
X11022206Y-14812912D01*
X11022206Y-14812912D02*
X11022206Y-14736722D01*
X11022206Y-14736722D02*
X11031730Y-14717674D01*
X11031730Y-14717674D02*
X11050777Y-14708150D01*
X11050777Y-14708150D02*
X11088873Y-14708150D01*
X11088873Y-14708150D02*
X11107920Y-14717674D01*
X11107920Y-14717674D02*
X11117444Y-14736722D01*
X11117444Y-14736722D02*
X11117444Y-14755769D01*
X11117444Y-14755769D02*
X11022206Y-14774817D01*
X11193634Y-14831960D02*
X11212682Y-14841484D01*
X11212682Y-14841484D02*
X11250777Y-14841484D01*
X11250777Y-14841484D02*
X11269825Y-14831960D01*
X11269825Y-14831960D02*
X11279349Y-14812912D01*
X11279349Y-14812912D02*
X11279349Y-14803388D01*
X11279349Y-14803388D02*
X11269825Y-14784341D01*
X11269825Y-14784341D02*
X11250777Y-14774817D01*
X11250777Y-14774817D02*
X11222206Y-14774817D01*
X11222206Y-14774817D02*
X11203158Y-14765293D01*
X11203158Y-14765293D02*
X11193634Y-14746246D01*
X11193634Y-14746246D02*
X11193634Y-14736722D01*
X11193634Y-14736722D02*
X11203158Y-14717674D01*
X11203158Y-14717674D02*
X11222206Y-14708150D01*
X11222206Y-14708150D02*
X11250777Y-14708150D01*
X11250777Y-14708150D02*
X11269825Y-14717674D01*
X11346015Y-14917674D02*
X11355539Y-14908150D01*
X11355539Y-14908150D02*
X11374587Y-14879579D01*
X11374587Y-14879579D02*
X11384111Y-14860531D01*
X11384111Y-14860531D02*
X11393634Y-14831960D01*
X11393634Y-14831960D02*
X11403158Y-14784341D01*
X11403158Y-14784341D02*
X11403158Y-14746246D01*
X11403158Y-14746246D02*
X11393634Y-14698627D01*
X11393634Y-14698627D02*
X11384111Y-14670055D01*
X11384111Y-14670055D02*
X11374587Y-14651008D01*
X11374587Y-14651008D02*
X11355539Y-14622436D01*
X11355539Y-14622436D02*
X11346015Y-14612912D01*
D11*
X6190000Y-15014000D02*
G75*
G02*
X6130000Y-15014000I-30000J0D01*
G01*
X6130000Y-15014000D02*
G75*
G02*
X6190000Y-15014000I30000J0D01*
G01*
D10*
X6488872Y-14905484D02*
X6507920Y-14905484D01*
X6507920Y-14905484D02*
X6526967Y-14915008D01*
X6526967Y-14915008D02*
X6536491Y-14924531D01*
X6536491Y-14924531D02*
X6546015Y-14943579D01*
X6546015Y-14943579D02*
X6555539Y-14981674D01*
X6555539Y-14981674D02*
X6555539Y-15029293D01*
X6555539Y-15029293D02*
X6546015Y-15067388D01*
X6546015Y-15067388D02*
X6536491Y-15086436D01*
X6536491Y-15086436D02*
X6526967Y-15095960D01*
X6526967Y-15095960D02*
X6507920Y-15105484D01*
X6507920Y-15105484D02*
X6488872Y-15105484D01*
X6488872Y-15105484D02*
X6469824Y-15095960D01*
X6469824Y-15095960D02*
X6460301Y-15086436D01*
X6460301Y-15086436D02*
X6450777Y-15067388D01*
X6450777Y-15067388D02*
X6441253Y-15029293D01*
X6441253Y-15029293D02*
X6441253Y-14981674D01*
X6441253Y-14981674D02*
X6450777Y-14943579D01*
X6450777Y-14943579D02*
X6460301Y-14924531D01*
X6460301Y-14924531D02*
X6469824Y-14915008D01*
X6469824Y-14915008D02*
X6488872Y-14905484D01*
X6641253Y-15086436D02*
X6650777Y-15095960D01*
X6650777Y-15095960D02*
X6641253Y-15105484D01*
X6641253Y-15105484D02*
X6631729Y-15095960D01*
X6631729Y-15095960D02*
X6641253Y-15086436D01*
X6641253Y-15086436D02*
X6641253Y-15105484D01*
X6822205Y-14905484D02*
X6784110Y-14905484D01*
X6784110Y-14905484D02*
X6765062Y-14915008D01*
X6765062Y-14915008D02*
X6755539Y-14924531D01*
X6755539Y-14924531D02*
X6736491Y-14953103D01*
X6736491Y-14953103D02*
X6726967Y-14991198D01*
X6726967Y-14991198D02*
X6726967Y-15067388D01*
X6726967Y-15067388D02*
X6736491Y-15086436D01*
X6736491Y-15086436D02*
X6746015Y-15095960D01*
X6746015Y-15095960D02*
X6765062Y-15105484D01*
X6765062Y-15105484D02*
X6803158Y-15105484D01*
X6803158Y-15105484D02*
X6822205Y-15095960D01*
X6822205Y-15095960D02*
X6831729Y-15086436D01*
X6831729Y-15086436D02*
X6841253Y-15067388D01*
X6841253Y-15067388D02*
X6841253Y-15019769D01*
X6841253Y-15019769D02*
X6831729Y-15000722D01*
X6831729Y-15000722D02*
X6822205Y-14991198D01*
X6822205Y-14991198D02*
X6803158Y-14981674D01*
X6803158Y-14981674D02*
X6765062Y-14981674D01*
X6765062Y-14981674D02*
X6746015Y-14991198D01*
X6746015Y-14991198D02*
X6736491Y-15000722D01*
X6736491Y-15000722D02*
X6726967Y-15019769D01*
X6965062Y-14905484D02*
X6984110Y-14905484D01*
X6984110Y-14905484D02*
X7003158Y-14915008D01*
X7003158Y-14915008D02*
X7012682Y-14924531D01*
X7012682Y-14924531D02*
X7022205Y-14943579D01*
X7022205Y-14943579D02*
X7031729Y-14981674D01*
X7031729Y-14981674D02*
X7031729Y-15029293D01*
X7031729Y-15029293D02*
X7022205Y-15067388D01*
X7022205Y-15067388D02*
X7012682Y-15086436D01*
X7012682Y-15086436D02*
X7003158Y-15095960D01*
X7003158Y-15095960D02*
X6984110Y-15105484D01*
X6984110Y-15105484D02*
X6965062Y-15105484D01*
X6965062Y-15105484D02*
X6946015Y-15095960D01*
X6946015Y-15095960D02*
X6936491Y-15086436D01*
X6936491Y-15086436D02*
X6926967Y-15067388D01*
X6926967Y-15067388D02*
X6917443Y-15029293D01*
X6917443Y-15029293D02*
X6917443Y-14981674D01*
X6917443Y-14981674D02*
X6926967Y-14943579D01*
X6926967Y-14943579D02*
X6936491Y-14924531D01*
X6936491Y-14924531D02*
X6946015Y-14915008D01*
X6946015Y-14915008D02*
X6965062Y-14905484D01*
X7155539Y-14905484D02*
X7174586Y-14905484D01*
X7174586Y-14905484D02*
X7193634Y-14915008D01*
X7193634Y-14915008D02*
X7203158Y-14924531D01*
X7203158Y-14924531D02*
X7212682Y-14943579D01*
X7212682Y-14943579D02*
X7222205Y-14981674D01*
X7222205Y-14981674D02*
X7222205Y-15029293D01*
X7222205Y-15029293D02*
X7212682Y-15067388D01*
X7212682Y-15067388D02*
X7203158Y-15086436D01*
X7203158Y-15086436D02*
X7193634Y-15095960D01*
X7193634Y-15095960D02*
X7174586Y-15105484D01*
X7174586Y-15105484D02*
X7155539Y-15105484D01*
X7155539Y-15105484D02*
X7136491Y-15095960D01*
X7136491Y-15095960D02*
X7126967Y-15086436D01*
X7126967Y-15086436D02*
X7117443Y-15067388D01*
X7117443Y-15067388D02*
X7107920Y-15029293D01*
X7107920Y-15029293D02*
X7107920Y-14981674D01*
X7107920Y-14981674D02*
X7117443Y-14943579D01*
X7117443Y-14943579D02*
X7126967Y-14924531D01*
X7126967Y-14924531D02*
X7136491Y-14915008D01*
X7136491Y-14915008D02*
X7155539Y-14905484D01*
X7307920Y-15105484D02*
X7307920Y-14972150D01*
X7307920Y-14991198D02*
X7317443Y-14981674D01*
X7317443Y-14981674D02*
X7336491Y-14972150D01*
X7336491Y-14972150D02*
X7365063Y-14972150D01*
X7365063Y-14972150D02*
X7384110Y-14981674D01*
X7384110Y-14981674D02*
X7393634Y-15000722D01*
X7393634Y-15000722D02*
X7393634Y-15105484D01*
X7393634Y-15000722D02*
X7403158Y-14981674D01*
X7403158Y-14981674D02*
X7422205Y-14972150D01*
X7422205Y-14972150D02*
X7450777Y-14972150D01*
X7450777Y-14972150D02*
X7469824Y-14981674D01*
X7469824Y-14981674D02*
X7479348Y-15000722D01*
X7479348Y-15000722D02*
X7479348Y-15105484D01*
X7574586Y-15105484D02*
X7574586Y-14972150D01*
X7574586Y-14991198D02*
X7584110Y-14981674D01*
X7584110Y-14981674D02*
X7603158Y-14972150D01*
X7603158Y-14972150D02*
X7631729Y-14972150D01*
X7631729Y-14972150D02*
X7650777Y-14981674D01*
X7650777Y-14981674D02*
X7660301Y-15000722D01*
X7660301Y-15000722D02*
X7660301Y-15105484D01*
X7660301Y-15000722D02*
X7669824Y-14981674D01*
X7669824Y-14981674D02*
X7688872Y-14972150D01*
X7688872Y-14972150D02*
X7717443Y-14972150D01*
X7717443Y-14972150D02*
X7736491Y-14981674D01*
X7736491Y-14981674D02*
X7746015Y-15000722D01*
X7746015Y-15000722D02*
X7746015Y-15105484D01*
X8136491Y-14895960D02*
X7965063Y-15153103D01*
X8393634Y-14905484D02*
X8412682Y-14905484D01*
X8412682Y-14905484D02*
X8431729Y-14915008D01*
X8431729Y-14915008D02*
X8441253Y-14924531D01*
X8441253Y-14924531D02*
X8450777Y-14943579D01*
X8450777Y-14943579D02*
X8460301Y-14981674D01*
X8460301Y-14981674D02*
X8460301Y-15029293D01*
X8460301Y-15029293D02*
X8450777Y-15067388D01*
X8450777Y-15067388D02*
X8441253Y-15086436D01*
X8441253Y-15086436D02*
X8431729Y-15095960D01*
X8431729Y-15095960D02*
X8412682Y-15105484D01*
X8412682Y-15105484D02*
X8393634Y-15105484D01*
X8393634Y-15105484D02*
X8374586Y-15095960D01*
X8374586Y-15095960D02*
X8365063Y-15086436D01*
X8365063Y-15086436D02*
X8355539Y-15067388D01*
X8355539Y-15067388D02*
X8346015Y-15029293D01*
X8346015Y-15029293D02*
X8346015Y-14981674D01*
X8346015Y-14981674D02*
X8355539Y-14943579D01*
X8355539Y-14943579D02*
X8365063Y-14924531D01*
X8365063Y-14924531D02*
X8374586Y-14915008D01*
X8374586Y-14915008D02*
X8393634Y-14905484D01*
X8546015Y-15086436D02*
X8555539Y-15095960D01*
X8555539Y-15095960D02*
X8546015Y-15105484D01*
X8546015Y-15105484D02*
X8536491Y-15095960D01*
X8536491Y-15095960D02*
X8546015Y-15086436D01*
X8546015Y-15086436D02*
X8546015Y-15105484D01*
X8679348Y-14905484D02*
X8698396Y-14905484D01*
X8698396Y-14905484D02*
X8717444Y-14915008D01*
X8717444Y-14915008D02*
X8726968Y-14924531D01*
X8726968Y-14924531D02*
X8736491Y-14943579D01*
X8736491Y-14943579D02*
X8746015Y-14981674D01*
X8746015Y-14981674D02*
X8746015Y-15029293D01*
X8746015Y-15029293D02*
X8736491Y-15067388D01*
X8736491Y-15067388D02*
X8726968Y-15086436D01*
X8726968Y-15086436D02*
X8717444Y-15095960D01*
X8717444Y-15095960D02*
X8698396Y-15105484D01*
X8698396Y-15105484D02*
X8679348Y-15105484D01*
X8679348Y-15105484D02*
X8660301Y-15095960D01*
X8660301Y-15095960D02*
X8650777Y-15086436D01*
X8650777Y-15086436D02*
X8641253Y-15067388D01*
X8641253Y-15067388D02*
X8631729Y-15029293D01*
X8631729Y-15029293D02*
X8631729Y-14981674D01*
X8631729Y-14981674D02*
X8641253Y-14943579D01*
X8641253Y-14943579D02*
X8650777Y-14924531D01*
X8650777Y-14924531D02*
X8660301Y-14915008D01*
X8660301Y-14915008D02*
X8679348Y-14905484D01*
X8822206Y-14924531D02*
X8831729Y-14915008D01*
X8831729Y-14915008D02*
X8850777Y-14905484D01*
X8850777Y-14905484D02*
X8898396Y-14905484D01*
X8898396Y-14905484D02*
X8917444Y-14915008D01*
X8917444Y-14915008D02*
X8926968Y-14924531D01*
X8926968Y-14924531D02*
X8936491Y-14943579D01*
X8936491Y-14943579D02*
X8936491Y-14962627D01*
X8936491Y-14962627D02*
X8926968Y-14991198D01*
X8926968Y-14991198D02*
X8812682Y-15105484D01*
X8812682Y-15105484D02*
X8936491Y-15105484D01*
X9003158Y-14905484D02*
X9126968Y-14905484D01*
X9126968Y-14905484D02*
X9060301Y-14981674D01*
X9060301Y-14981674D02*
X9088872Y-14981674D01*
X9088872Y-14981674D02*
X9107920Y-14991198D01*
X9107920Y-14991198D02*
X9117444Y-15000722D01*
X9117444Y-15000722D02*
X9126968Y-15019769D01*
X9126968Y-15019769D02*
X9126968Y-15067388D01*
X9126968Y-15067388D02*
X9117444Y-15086436D01*
X9117444Y-15086436D02*
X9107920Y-15095960D01*
X9107920Y-15095960D02*
X9088872Y-15105484D01*
X9088872Y-15105484D02*
X9031729Y-15105484D01*
X9031729Y-15105484D02*
X9012682Y-15095960D01*
X9012682Y-15095960D02*
X9003158Y-15086436D01*
X9298396Y-14905484D02*
X9260301Y-14905484D01*
X9260301Y-14905484D02*
X9241253Y-14915008D01*
X9241253Y-14915008D02*
X9231729Y-14924531D01*
X9231729Y-14924531D02*
X9212682Y-14953103D01*
X9212682Y-14953103D02*
X9203158Y-14991198D01*
X9203158Y-14991198D02*
X9203158Y-15067388D01*
X9203158Y-15067388D02*
X9212682Y-15086436D01*
X9212682Y-15086436D02*
X9222206Y-15095960D01*
X9222206Y-15095960D02*
X9241253Y-15105484D01*
X9241253Y-15105484D02*
X9279349Y-15105484D01*
X9279349Y-15105484D02*
X9298396Y-15095960D01*
X9298396Y-15095960D02*
X9307920Y-15086436D01*
X9307920Y-15086436D02*
X9317444Y-15067388D01*
X9317444Y-15067388D02*
X9317444Y-15019769D01*
X9317444Y-15019769D02*
X9307920Y-15000722D01*
X9307920Y-15000722D02*
X9298396Y-14991198D01*
X9298396Y-14991198D02*
X9279349Y-14981674D01*
X9279349Y-14981674D02*
X9241253Y-14981674D01*
X9241253Y-14981674D02*
X9222206Y-14991198D01*
X9222206Y-14991198D02*
X9212682Y-15000722D01*
X9212682Y-15000722D02*
X9203158Y-15019769D01*
X9393634Y-14905484D02*
X9393634Y-14943579D01*
X9469825Y-14905484D02*
X9469825Y-14943579D01*
X9765063Y-15181674D02*
X9755539Y-15172150D01*
X9755539Y-15172150D02*
X9736491Y-15143579D01*
X9736491Y-15143579D02*
X9726968Y-15124531D01*
X9726968Y-15124531D02*
X9717444Y-15095960D01*
X9717444Y-15095960D02*
X9707920Y-15048341D01*
X9707920Y-15048341D02*
X9707920Y-15010246D01*
X9707920Y-15010246D02*
X9717444Y-14962627D01*
X9717444Y-14962627D02*
X9726968Y-14934055D01*
X9726968Y-14934055D02*
X9736491Y-14915008D01*
X9736491Y-14915008D02*
X9755539Y-14886436D01*
X9755539Y-14886436D02*
X9765063Y-14876912D01*
X9879349Y-14905484D02*
X9898396Y-14905484D01*
X9898396Y-14905484D02*
X9917444Y-14915008D01*
X9917444Y-14915008D02*
X9926968Y-14924531D01*
X9926968Y-14924531D02*
X9936491Y-14943579D01*
X9936491Y-14943579D02*
X9946015Y-14981674D01*
X9946015Y-14981674D02*
X9946015Y-15029293D01*
X9946015Y-15029293D02*
X9936491Y-15067388D01*
X9936491Y-15067388D02*
X9926968Y-15086436D01*
X9926968Y-15086436D02*
X9917444Y-15095960D01*
X9917444Y-15095960D02*
X9898396Y-15105484D01*
X9898396Y-15105484D02*
X9879349Y-15105484D01*
X9879349Y-15105484D02*
X9860301Y-15095960D01*
X9860301Y-15095960D02*
X9850777Y-15086436D01*
X9850777Y-15086436D02*
X9841253Y-15067388D01*
X9841253Y-15067388D02*
X9831730Y-15029293D01*
X9831730Y-15029293D02*
X9831730Y-14981674D01*
X9831730Y-14981674D02*
X9841253Y-14943579D01*
X9841253Y-14943579D02*
X9850777Y-14924531D01*
X9850777Y-14924531D02*
X9860301Y-14915008D01*
X9860301Y-14915008D02*
X9879349Y-14905484D01*
X10184111Y-15105484D02*
X10184111Y-14905484D01*
X10269825Y-15105484D02*
X10269825Y-15000722D01*
X10269825Y-15000722D02*
X10260301Y-14981674D01*
X10260301Y-14981674D02*
X10241253Y-14972150D01*
X10241253Y-14972150D02*
X10212682Y-14972150D01*
X10212682Y-14972150D02*
X10193634Y-14981674D01*
X10193634Y-14981674D02*
X10184111Y-14991198D01*
X10393634Y-15105484D02*
X10374587Y-15095960D01*
X10374587Y-15095960D02*
X10365063Y-15086436D01*
X10365063Y-15086436D02*
X10355539Y-15067388D01*
X10355539Y-15067388D02*
X10355539Y-15010246D01*
X10355539Y-15010246D02*
X10365063Y-14991198D01*
X10365063Y-14991198D02*
X10374587Y-14981674D01*
X10374587Y-14981674D02*
X10393634Y-14972150D01*
X10393634Y-14972150D02*
X10422206Y-14972150D01*
X10422206Y-14972150D02*
X10441253Y-14981674D01*
X10441253Y-14981674D02*
X10450777Y-14991198D01*
X10450777Y-14991198D02*
X10460301Y-15010246D01*
X10460301Y-15010246D02*
X10460301Y-15067388D01*
X10460301Y-15067388D02*
X10450777Y-15086436D01*
X10450777Y-15086436D02*
X10441253Y-15095960D01*
X10441253Y-15095960D02*
X10422206Y-15105484D01*
X10422206Y-15105484D02*
X10393634Y-15105484D01*
X10574587Y-15105484D02*
X10555539Y-15095960D01*
X10555539Y-15095960D02*
X10546015Y-15076912D01*
X10546015Y-15076912D02*
X10546015Y-14905484D01*
X10726968Y-15095960D02*
X10707920Y-15105484D01*
X10707920Y-15105484D02*
X10669825Y-15105484D01*
X10669825Y-15105484D02*
X10650777Y-15095960D01*
X10650777Y-15095960D02*
X10641253Y-15076912D01*
X10641253Y-15076912D02*
X10641253Y-15000722D01*
X10641253Y-15000722D02*
X10650777Y-14981674D01*
X10650777Y-14981674D02*
X10669825Y-14972150D01*
X10669825Y-14972150D02*
X10707920Y-14972150D01*
X10707920Y-14972150D02*
X10726968Y-14981674D01*
X10726968Y-14981674D02*
X10736492Y-15000722D01*
X10736492Y-15000722D02*
X10736492Y-15019769D01*
X10736492Y-15019769D02*
X10641253Y-15038817D01*
X10812682Y-15095960D02*
X10831730Y-15105484D01*
X10831730Y-15105484D02*
X10869825Y-15105484D01*
X10869825Y-15105484D02*
X10888873Y-15095960D01*
X10888873Y-15095960D02*
X10898396Y-15076912D01*
X10898396Y-15076912D02*
X10898396Y-15067388D01*
X10898396Y-15067388D02*
X10888873Y-15048341D01*
X10888873Y-15048341D02*
X10869825Y-15038817D01*
X10869825Y-15038817D02*
X10841253Y-15038817D01*
X10841253Y-15038817D02*
X10822206Y-15029293D01*
X10822206Y-15029293D02*
X10812682Y-15010246D01*
X10812682Y-15010246D02*
X10812682Y-15000722D01*
X10812682Y-15000722D02*
X10822206Y-14981674D01*
X10822206Y-14981674D02*
X10841253Y-14972150D01*
X10841253Y-14972150D02*
X10869825Y-14972150D01*
X10869825Y-14972150D02*
X10888873Y-14981674D01*
X11136492Y-15029293D02*
X11288873Y-15029293D01*
X11212682Y-15105484D02*
X11212682Y-14953103D01*
X11622206Y-14972150D02*
X11622206Y-15105484D01*
X11574587Y-14895960D02*
X11526968Y-15038817D01*
X11526968Y-15038817D02*
X11650777Y-15038817D01*
X11869825Y-15095960D02*
X11888873Y-15105484D01*
X11888873Y-15105484D02*
X11926968Y-15105484D01*
X11926968Y-15105484D02*
X11946015Y-15095960D01*
X11946015Y-15095960D02*
X11955539Y-15076912D01*
X11955539Y-15076912D02*
X11955539Y-15067388D01*
X11955539Y-15067388D02*
X11946015Y-15048341D01*
X11946015Y-15048341D02*
X11926968Y-15038817D01*
X11926968Y-15038817D02*
X11898396Y-15038817D01*
X11898396Y-15038817D02*
X11879349Y-15029293D01*
X11879349Y-15029293D02*
X11869825Y-15010246D01*
X11869825Y-15010246D02*
X11869825Y-15000722D01*
X11869825Y-15000722D02*
X11879349Y-14981674D01*
X11879349Y-14981674D02*
X11898396Y-14972150D01*
X11898396Y-14972150D02*
X11926968Y-14972150D01*
X11926968Y-14972150D02*
X11946015Y-14981674D01*
X12069825Y-15105484D02*
X12050777Y-15095960D01*
X12050777Y-15095960D02*
X12041254Y-15076912D01*
X12041254Y-15076912D02*
X12041254Y-14905484D01*
X12174587Y-15105484D02*
X12155539Y-15095960D01*
X12155539Y-15095960D02*
X12146015Y-15086436D01*
X12146015Y-15086436D02*
X12136492Y-15067388D01*
X12136492Y-15067388D02*
X12136492Y-15010246D01*
X12136492Y-15010246D02*
X12146015Y-14991198D01*
X12146015Y-14991198D02*
X12155539Y-14981674D01*
X12155539Y-14981674D02*
X12174587Y-14972150D01*
X12174587Y-14972150D02*
X12203158Y-14972150D01*
X12203158Y-14972150D02*
X12222206Y-14981674D01*
X12222206Y-14981674D02*
X12231730Y-14991198D01*
X12231730Y-14991198D02*
X12241254Y-15010246D01*
X12241254Y-15010246D02*
X12241254Y-15067388D01*
X12241254Y-15067388D02*
X12231730Y-15086436D01*
X12231730Y-15086436D02*
X12222206Y-15095960D01*
X12222206Y-15095960D02*
X12203158Y-15105484D01*
X12203158Y-15105484D02*
X12174587Y-15105484D01*
X12298396Y-14972150D02*
X12374587Y-14972150D01*
X12326968Y-14905484D02*
X12326968Y-15076912D01*
X12326968Y-15076912D02*
X12336492Y-15095960D01*
X12336492Y-15095960D02*
X12355539Y-15105484D01*
X12355539Y-15105484D02*
X12374587Y-15105484D01*
X12431730Y-15095960D02*
X12450777Y-15105484D01*
X12450777Y-15105484D02*
X12488873Y-15105484D01*
X12488873Y-15105484D02*
X12507920Y-15095960D01*
X12507920Y-15095960D02*
X12517444Y-15076912D01*
X12517444Y-15076912D02*
X12517444Y-15067388D01*
X12517444Y-15067388D02*
X12507920Y-15048341D01*
X12507920Y-15048341D02*
X12488873Y-15038817D01*
X12488873Y-15038817D02*
X12460301Y-15038817D01*
X12460301Y-15038817D02*
X12441254Y-15029293D01*
X12441254Y-15029293D02*
X12431730Y-15010246D01*
X12431730Y-15010246D02*
X12431730Y-15000722D01*
X12431730Y-15000722D02*
X12441254Y-14981674D01*
X12441254Y-14981674D02*
X12460301Y-14972150D01*
X12460301Y-14972150D02*
X12488873Y-14972150D01*
X12488873Y-14972150D02*
X12507920Y-14981674D01*
X12584111Y-15181674D02*
X12593635Y-15172150D01*
X12593635Y-15172150D02*
X12612682Y-15143579D01*
X12612682Y-15143579D02*
X12622206Y-15124531D01*
X12622206Y-15124531D02*
X12631730Y-15095960D01*
X12631730Y-15095960D02*
X12641254Y-15048341D01*
X12641254Y-15048341D02*
X12641254Y-15010246D01*
X12641254Y-15010246D02*
X12631730Y-14962627D01*
X12631730Y-14962627D02*
X12622206Y-14934055D01*
X12622206Y-14934055D02*
X12612682Y-14915008D01*
X12612682Y-14915008D02*
X12593635Y-14886436D01*
X12593635Y-14886436D02*
X12584111Y-14876912D01*
D11*
X6155000Y-15243000D02*
X6155000Y-15313000D01*
X6120000Y-15278000D02*
X6190000Y-15278000D01*
D10*
X6488872Y-15169484D02*
X6507920Y-15169484D01*
X6507920Y-15169484D02*
X6526967Y-15179008D01*
X6526967Y-15179008D02*
X6536491Y-15188531D01*
X6536491Y-15188531D02*
X6546015Y-15207579D01*
X6546015Y-15207579D02*
X6555539Y-15245674D01*
X6555539Y-15245674D02*
X6555539Y-15293293D01*
X6555539Y-15293293D02*
X6546015Y-15331388D01*
X6546015Y-15331388D02*
X6536491Y-15350436D01*
X6536491Y-15350436D02*
X6526967Y-15359960D01*
X6526967Y-15359960D02*
X6507920Y-15369484D01*
X6507920Y-15369484D02*
X6488872Y-15369484D01*
X6488872Y-15369484D02*
X6469824Y-15359960D01*
X6469824Y-15359960D02*
X6460301Y-15350436D01*
X6460301Y-15350436D02*
X6450777Y-15331388D01*
X6450777Y-15331388D02*
X6441253Y-15293293D01*
X6441253Y-15293293D02*
X6441253Y-15245674D01*
X6441253Y-15245674D02*
X6450777Y-15207579D01*
X6450777Y-15207579D02*
X6460301Y-15188531D01*
X6460301Y-15188531D02*
X6469824Y-15179008D01*
X6469824Y-15179008D02*
X6488872Y-15169484D01*
X6641253Y-15350436D02*
X6650777Y-15359960D01*
X6650777Y-15359960D02*
X6641253Y-15369484D01*
X6641253Y-15369484D02*
X6631729Y-15359960D01*
X6631729Y-15359960D02*
X6641253Y-15350436D01*
X6641253Y-15350436D02*
X6641253Y-15369484D01*
X6717443Y-15169484D02*
X6850777Y-15169484D01*
X6850777Y-15169484D02*
X6765062Y-15369484D01*
X6965062Y-15169484D02*
X6984110Y-15169484D01*
X6984110Y-15169484D02*
X7003158Y-15179008D01*
X7003158Y-15179008D02*
X7012682Y-15188531D01*
X7012682Y-15188531D02*
X7022205Y-15207579D01*
X7022205Y-15207579D02*
X7031729Y-15245674D01*
X7031729Y-15245674D02*
X7031729Y-15293293D01*
X7031729Y-15293293D02*
X7022205Y-15331388D01*
X7022205Y-15331388D02*
X7012682Y-15350436D01*
X7012682Y-15350436D02*
X7003158Y-15359960D01*
X7003158Y-15359960D02*
X6984110Y-15369484D01*
X6984110Y-15369484D02*
X6965062Y-15369484D01*
X6965062Y-15369484D02*
X6946015Y-15359960D01*
X6946015Y-15359960D02*
X6936491Y-15350436D01*
X6936491Y-15350436D02*
X6926967Y-15331388D01*
X6926967Y-15331388D02*
X6917443Y-15293293D01*
X6917443Y-15293293D02*
X6917443Y-15245674D01*
X6917443Y-15245674D02*
X6926967Y-15207579D01*
X6926967Y-15207579D02*
X6936491Y-15188531D01*
X6936491Y-15188531D02*
X6946015Y-15179008D01*
X6946015Y-15179008D02*
X6965062Y-15169484D01*
X7155539Y-15169484D02*
X7174586Y-15169484D01*
X7174586Y-15169484D02*
X7193634Y-15179008D01*
X7193634Y-15179008D02*
X7203158Y-15188531D01*
X7203158Y-15188531D02*
X7212682Y-15207579D01*
X7212682Y-15207579D02*
X7222205Y-15245674D01*
X7222205Y-15245674D02*
X7222205Y-15293293D01*
X7222205Y-15293293D02*
X7212682Y-15331388D01*
X7212682Y-15331388D02*
X7203158Y-15350436D01*
X7203158Y-15350436D02*
X7193634Y-15359960D01*
X7193634Y-15359960D02*
X7174586Y-15369484D01*
X7174586Y-15369484D02*
X7155539Y-15369484D01*
X7155539Y-15369484D02*
X7136491Y-15359960D01*
X7136491Y-15359960D02*
X7126967Y-15350436D01*
X7126967Y-15350436D02*
X7117443Y-15331388D01*
X7117443Y-15331388D02*
X7107920Y-15293293D01*
X7107920Y-15293293D02*
X7107920Y-15245674D01*
X7107920Y-15245674D02*
X7117443Y-15207579D01*
X7117443Y-15207579D02*
X7126967Y-15188531D01*
X7126967Y-15188531D02*
X7136491Y-15179008D01*
X7136491Y-15179008D02*
X7155539Y-15169484D01*
X7307920Y-15369484D02*
X7307920Y-15236150D01*
X7307920Y-15255198D02*
X7317443Y-15245674D01*
X7317443Y-15245674D02*
X7336491Y-15236150D01*
X7336491Y-15236150D02*
X7365063Y-15236150D01*
X7365063Y-15236150D02*
X7384110Y-15245674D01*
X7384110Y-15245674D02*
X7393634Y-15264722D01*
X7393634Y-15264722D02*
X7393634Y-15369484D01*
X7393634Y-15264722D02*
X7403158Y-15245674D01*
X7403158Y-15245674D02*
X7422205Y-15236150D01*
X7422205Y-15236150D02*
X7450777Y-15236150D01*
X7450777Y-15236150D02*
X7469824Y-15245674D01*
X7469824Y-15245674D02*
X7479348Y-15264722D01*
X7479348Y-15264722D02*
X7479348Y-15369484D01*
X7574586Y-15369484D02*
X7574586Y-15236150D01*
X7574586Y-15255198D02*
X7584110Y-15245674D01*
X7584110Y-15245674D02*
X7603158Y-15236150D01*
X7603158Y-15236150D02*
X7631729Y-15236150D01*
X7631729Y-15236150D02*
X7650777Y-15245674D01*
X7650777Y-15245674D02*
X7660301Y-15264722D01*
X7660301Y-15264722D02*
X7660301Y-15369484D01*
X7660301Y-15264722D02*
X7669824Y-15245674D01*
X7669824Y-15245674D02*
X7688872Y-15236150D01*
X7688872Y-15236150D02*
X7717443Y-15236150D01*
X7717443Y-15236150D02*
X7736491Y-15245674D01*
X7736491Y-15245674D02*
X7746015Y-15264722D01*
X7746015Y-15264722D02*
X7746015Y-15369484D01*
X8136491Y-15159960D02*
X7965063Y-15417103D01*
X8393634Y-15169484D02*
X8412682Y-15169484D01*
X8412682Y-15169484D02*
X8431729Y-15179008D01*
X8431729Y-15179008D02*
X8441253Y-15188531D01*
X8441253Y-15188531D02*
X8450777Y-15207579D01*
X8450777Y-15207579D02*
X8460301Y-15245674D01*
X8460301Y-15245674D02*
X8460301Y-15293293D01*
X8460301Y-15293293D02*
X8450777Y-15331388D01*
X8450777Y-15331388D02*
X8441253Y-15350436D01*
X8441253Y-15350436D02*
X8431729Y-15359960D01*
X8431729Y-15359960D02*
X8412682Y-15369484D01*
X8412682Y-15369484D02*
X8393634Y-15369484D01*
X8393634Y-15369484D02*
X8374586Y-15359960D01*
X8374586Y-15359960D02*
X8365063Y-15350436D01*
X8365063Y-15350436D02*
X8355539Y-15331388D01*
X8355539Y-15331388D02*
X8346015Y-15293293D01*
X8346015Y-15293293D02*
X8346015Y-15245674D01*
X8346015Y-15245674D02*
X8355539Y-15207579D01*
X8355539Y-15207579D02*
X8365063Y-15188531D01*
X8365063Y-15188531D02*
X8374586Y-15179008D01*
X8374586Y-15179008D02*
X8393634Y-15169484D01*
X8546015Y-15350436D02*
X8555539Y-15359960D01*
X8555539Y-15359960D02*
X8546015Y-15369484D01*
X8546015Y-15369484D02*
X8536491Y-15359960D01*
X8536491Y-15359960D02*
X8546015Y-15350436D01*
X8546015Y-15350436D02*
X8546015Y-15369484D01*
X8679348Y-15169484D02*
X8698396Y-15169484D01*
X8698396Y-15169484D02*
X8717444Y-15179008D01*
X8717444Y-15179008D02*
X8726968Y-15188531D01*
X8726968Y-15188531D02*
X8736491Y-15207579D01*
X8736491Y-15207579D02*
X8746015Y-15245674D01*
X8746015Y-15245674D02*
X8746015Y-15293293D01*
X8746015Y-15293293D02*
X8736491Y-15331388D01*
X8736491Y-15331388D02*
X8726968Y-15350436D01*
X8726968Y-15350436D02*
X8717444Y-15359960D01*
X8717444Y-15359960D02*
X8698396Y-15369484D01*
X8698396Y-15369484D02*
X8679348Y-15369484D01*
X8679348Y-15369484D02*
X8660301Y-15359960D01*
X8660301Y-15359960D02*
X8650777Y-15350436D01*
X8650777Y-15350436D02*
X8641253Y-15331388D01*
X8641253Y-15331388D02*
X8631729Y-15293293D01*
X8631729Y-15293293D02*
X8631729Y-15245674D01*
X8631729Y-15245674D02*
X8641253Y-15207579D01*
X8641253Y-15207579D02*
X8650777Y-15188531D01*
X8650777Y-15188531D02*
X8660301Y-15179008D01*
X8660301Y-15179008D02*
X8679348Y-15169484D01*
X8822206Y-15188531D02*
X8831729Y-15179008D01*
X8831729Y-15179008D02*
X8850777Y-15169484D01*
X8850777Y-15169484D02*
X8898396Y-15169484D01*
X8898396Y-15169484D02*
X8917444Y-15179008D01*
X8917444Y-15179008D02*
X8926968Y-15188531D01*
X8926968Y-15188531D02*
X8936491Y-15207579D01*
X8936491Y-15207579D02*
X8936491Y-15226627D01*
X8936491Y-15226627D02*
X8926968Y-15255198D01*
X8926968Y-15255198D02*
X8812682Y-15369484D01*
X8812682Y-15369484D02*
X8936491Y-15369484D01*
X9003158Y-15169484D02*
X9136491Y-15169484D01*
X9136491Y-15169484D02*
X9050777Y-15369484D01*
X9298396Y-15169484D02*
X9260301Y-15169484D01*
X9260301Y-15169484D02*
X9241253Y-15179008D01*
X9241253Y-15179008D02*
X9231729Y-15188531D01*
X9231729Y-15188531D02*
X9212682Y-15217103D01*
X9212682Y-15217103D02*
X9203158Y-15255198D01*
X9203158Y-15255198D02*
X9203158Y-15331388D01*
X9203158Y-15331388D02*
X9212682Y-15350436D01*
X9212682Y-15350436D02*
X9222206Y-15359960D01*
X9222206Y-15359960D02*
X9241253Y-15369484D01*
X9241253Y-15369484D02*
X9279349Y-15369484D01*
X9279349Y-15369484D02*
X9298396Y-15359960D01*
X9298396Y-15359960D02*
X9307920Y-15350436D01*
X9307920Y-15350436D02*
X9317444Y-15331388D01*
X9317444Y-15331388D02*
X9317444Y-15283769D01*
X9317444Y-15283769D02*
X9307920Y-15264722D01*
X9307920Y-15264722D02*
X9298396Y-15255198D01*
X9298396Y-15255198D02*
X9279349Y-15245674D01*
X9279349Y-15245674D02*
X9241253Y-15245674D01*
X9241253Y-15245674D02*
X9222206Y-15255198D01*
X9222206Y-15255198D02*
X9212682Y-15264722D01*
X9212682Y-15264722D02*
X9203158Y-15283769D01*
X9393634Y-15169484D02*
X9393634Y-15207579D01*
X9469825Y-15169484D02*
X9469825Y-15207579D01*
X9765063Y-15445674D02*
X9755539Y-15436150D01*
X9755539Y-15436150D02*
X9736491Y-15407579D01*
X9736491Y-15407579D02*
X9726968Y-15388531D01*
X9726968Y-15388531D02*
X9717444Y-15359960D01*
X9717444Y-15359960D02*
X9707920Y-15312341D01*
X9707920Y-15312341D02*
X9707920Y-15274246D01*
X9707920Y-15274246D02*
X9717444Y-15226627D01*
X9717444Y-15226627D02*
X9726968Y-15198055D01*
X9726968Y-15198055D02*
X9736491Y-15179008D01*
X9736491Y-15179008D02*
X9755539Y-15150436D01*
X9755539Y-15150436D02*
X9765063Y-15140912D01*
X9946015Y-15369484D02*
X9831730Y-15369484D01*
X9888872Y-15369484D02*
X9888872Y-15169484D01*
X9888872Y-15169484D02*
X9869825Y-15198055D01*
X9869825Y-15198055D02*
X9850777Y-15217103D01*
X9850777Y-15217103D02*
X9831730Y-15226627D01*
X10069825Y-15169484D02*
X10088872Y-15169484D01*
X10088872Y-15169484D02*
X10107920Y-15179008D01*
X10107920Y-15179008D02*
X10117444Y-15188531D01*
X10117444Y-15188531D02*
X10126968Y-15207579D01*
X10126968Y-15207579D02*
X10136491Y-15245674D01*
X10136491Y-15245674D02*
X10136491Y-15293293D01*
X10136491Y-15293293D02*
X10126968Y-15331388D01*
X10126968Y-15331388D02*
X10117444Y-15350436D01*
X10117444Y-15350436D02*
X10107920Y-15359960D01*
X10107920Y-15359960D02*
X10088872Y-15369484D01*
X10088872Y-15369484D02*
X10069825Y-15369484D01*
X10069825Y-15369484D02*
X10050777Y-15359960D01*
X10050777Y-15359960D02*
X10041253Y-15350436D01*
X10041253Y-15350436D02*
X10031730Y-15331388D01*
X10031730Y-15331388D02*
X10022206Y-15293293D01*
X10022206Y-15293293D02*
X10022206Y-15245674D01*
X10022206Y-15245674D02*
X10031730Y-15207579D01*
X10031730Y-15207579D02*
X10041253Y-15188531D01*
X10041253Y-15188531D02*
X10050777Y-15179008D01*
X10050777Y-15179008D02*
X10069825Y-15169484D01*
X10374587Y-15369484D02*
X10374587Y-15169484D01*
X10460301Y-15369484D02*
X10460301Y-15264722D01*
X10460301Y-15264722D02*
X10450777Y-15245674D01*
X10450777Y-15245674D02*
X10431730Y-15236150D01*
X10431730Y-15236150D02*
X10403158Y-15236150D01*
X10403158Y-15236150D02*
X10384111Y-15245674D01*
X10384111Y-15245674D02*
X10374587Y-15255198D01*
X10584111Y-15369484D02*
X10565063Y-15359960D01*
X10565063Y-15359960D02*
X10555539Y-15350436D01*
X10555539Y-15350436D02*
X10546015Y-15331388D01*
X10546015Y-15331388D02*
X10546015Y-15274246D01*
X10546015Y-15274246D02*
X10555539Y-15255198D01*
X10555539Y-15255198D02*
X10565063Y-15245674D01*
X10565063Y-15245674D02*
X10584111Y-15236150D01*
X10584111Y-15236150D02*
X10612682Y-15236150D01*
X10612682Y-15236150D02*
X10631730Y-15245674D01*
X10631730Y-15245674D02*
X10641253Y-15255198D01*
X10641253Y-15255198D02*
X10650777Y-15274246D01*
X10650777Y-15274246D02*
X10650777Y-15331388D01*
X10650777Y-15331388D02*
X10641253Y-15350436D01*
X10641253Y-15350436D02*
X10631730Y-15359960D01*
X10631730Y-15359960D02*
X10612682Y-15369484D01*
X10612682Y-15369484D02*
X10584111Y-15369484D01*
X10765063Y-15369484D02*
X10746015Y-15359960D01*
X10746015Y-15359960D02*
X10736492Y-15340912D01*
X10736492Y-15340912D02*
X10736492Y-15169484D01*
X10917444Y-15359960D02*
X10898396Y-15369484D01*
X10898396Y-15369484D02*
X10860301Y-15369484D01*
X10860301Y-15369484D02*
X10841253Y-15359960D01*
X10841253Y-15359960D02*
X10831730Y-15340912D01*
X10831730Y-15340912D02*
X10831730Y-15264722D01*
X10831730Y-15264722D02*
X10841253Y-15245674D01*
X10841253Y-15245674D02*
X10860301Y-15236150D01*
X10860301Y-15236150D02*
X10898396Y-15236150D01*
X10898396Y-15236150D02*
X10917444Y-15245674D01*
X10917444Y-15245674D02*
X10926968Y-15264722D01*
X10926968Y-15264722D02*
X10926968Y-15283769D01*
X10926968Y-15283769D02*
X10831730Y-15302817D01*
X11003158Y-15359960D02*
X11022206Y-15369484D01*
X11022206Y-15369484D02*
X11060301Y-15369484D01*
X11060301Y-15369484D02*
X11079349Y-15359960D01*
X11079349Y-15359960D02*
X11088873Y-15340912D01*
X11088873Y-15340912D02*
X11088873Y-15331388D01*
X11088873Y-15331388D02*
X11079349Y-15312341D01*
X11079349Y-15312341D02*
X11060301Y-15302817D01*
X11060301Y-15302817D02*
X11031730Y-15302817D01*
X11031730Y-15302817D02*
X11012682Y-15293293D01*
X11012682Y-15293293D02*
X11003158Y-15274246D01*
X11003158Y-15274246D02*
X11003158Y-15264722D01*
X11003158Y-15264722D02*
X11012682Y-15245674D01*
X11012682Y-15245674D02*
X11031730Y-15236150D01*
X11031730Y-15236150D02*
X11060301Y-15236150D01*
X11060301Y-15236150D02*
X11079349Y-15245674D01*
X11155539Y-15445674D02*
X11165063Y-15436150D01*
X11165063Y-15436150D02*
X11184111Y-15407579D01*
X11184111Y-15407579D02*
X11193634Y-15388531D01*
X11193634Y-15388531D02*
X11203158Y-15359960D01*
X11203158Y-15359960D02*
X11212682Y-15312341D01*
X11212682Y-15312341D02*
X11212682Y-15274246D01*
X11212682Y-15274246D02*
X11203158Y-15226627D01*
X11203158Y-15226627D02*
X11193634Y-15198055D01*
X11193634Y-15198055D02*
X11184111Y-15179008D01*
X11184111Y-15179008D02*
X11165063Y-15150436D01*
X11165063Y-15150436D02*
X11155539Y-15140912D01*
D11*
X6178284Y-15570284D02*
X6178284Y-15513715D01*
X6121715Y-15513715D01*
X6121715Y-15570284D01*
X6178284Y-15570284D01*
D10*
X6488872Y-15433484D02*
X6507920Y-15433484D01*
X6507920Y-15433484D02*
X6526967Y-15443008D01*
X6526967Y-15443008D02*
X6536491Y-15452531D01*
X6536491Y-15452531D02*
X6546015Y-15471579D01*
X6546015Y-15471579D02*
X6555539Y-15509674D01*
X6555539Y-15509674D02*
X6555539Y-15557293D01*
X6555539Y-15557293D02*
X6546015Y-15595388D01*
X6546015Y-15595388D02*
X6536491Y-15614436D01*
X6536491Y-15614436D02*
X6526967Y-15623960D01*
X6526967Y-15623960D02*
X6507920Y-15633484D01*
X6507920Y-15633484D02*
X6488872Y-15633484D01*
X6488872Y-15633484D02*
X6469824Y-15623960D01*
X6469824Y-15623960D02*
X6460301Y-15614436D01*
X6460301Y-15614436D02*
X6450777Y-15595388D01*
X6450777Y-15595388D02*
X6441253Y-15557293D01*
X6441253Y-15557293D02*
X6441253Y-15509674D01*
X6441253Y-15509674D02*
X6450777Y-15471579D01*
X6450777Y-15471579D02*
X6460301Y-15452531D01*
X6460301Y-15452531D02*
X6469824Y-15443008D01*
X6469824Y-15443008D02*
X6488872Y-15433484D01*
X6641253Y-15614436D02*
X6650777Y-15623960D01*
X6650777Y-15623960D02*
X6641253Y-15633484D01*
X6641253Y-15633484D02*
X6631729Y-15623960D01*
X6631729Y-15623960D02*
X6641253Y-15614436D01*
X6641253Y-15614436D02*
X6641253Y-15633484D01*
X6765062Y-15519198D02*
X6746015Y-15509674D01*
X6746015Y-15509674D02*
X6736491Y-15500150D01*
X6736491Y-15500150D02*
X6726967Y-15481103D01*
X6726967Y-15481103D02*
X6726967Y-15471579D01*
X6726967Y-15471579D02*
X6736491Y-15452531D01*
X6736491Y-15452531D02*
X6746015Y-15443008D01*
X6746015Y-15443008D02*
X6765062Y-15433484D01*
X6765062Y-15433484D02*
X6803158Y-15433484D01*
X6803158Y-15433484D02*
X6822205Y-15443008D01*
X6822205Y-15443008D02*
X6831729Y-15452531D01*
X6831729Y-15452531D02*
X6841253Y-15471579D01*
X6841253Y-15471579D02*
X6841253Y-15481103D01*
X6841253Y-15481103D02*
X6831729Y-15500150D01*
X6831729Y-15500150D02*
X6822205Y-15509674D01*
X6822205Y-15509674D02*
X6803158Y-15519198D01*
X6803158Y-15519198D02*
X6765062Y-15519198D01*
X6765062Y-15519198D02*
X6746015Y-15528722D01*
X6746015Y-15528722D02*
X6736491Y-15538246D01*
X6736491Y-15538246D02*
X6726967Y-15557293D01*
X6726967Y-15557293D02*
X6726967Y-15595388D01*
X6726967Y-15595388D02*
X6736491Y-15614436D01*
X6736491Y-15614436D02*
X6746015Y-15623960D01*
X6746015Y-15623960D02*
X6765062Y-15633484D01*
X6765062Y-15633484D02*
X6803158Y-15633484D01*
X6803158Y-15633484D02*
X6822205Y-15623960D01*
X6822205Y-15623960D02*
X6831729Y-15614436D01*
X6831729Y-15614436D02*
X6841253Y-15595388D01*
X6841253Y-15595388D02*
X6841253Y-15557293D01*
X6841253Y-15557293D02*
X6831729Y-15538246D01*
X6831729Y-15538246D02*
X6822205Y-15528722D01*
X6822205Y-15528722D02*
X6803158Y-15519198D01*
X6965062Y-15433484D02*
X6984110Y-15433484D01*
X6984110Y-15433484D02*
X7003158Y-15443008D01*
X7003158Y-15443008D02*
X7012682Y-15452531D01*
X7012682Y-15452531D02*
X7022205Y-15471579D01*
X7022205Y-15471579D02*
X7031729Y-15509674D01*
X7031729Y-15509674D02*
X7031729Y-15557293D01*
X7031729Y-15557293D02*
X7022205Y-15595388D01*
X7022205Y-15595388D02*
X7012682Y-15614436D01*
X7012682Y-15614436D02*
X7003158Y-15623960D01*
X7003158Y-15623960D02*
X6984110Y-15633484D01*
X6984110Y-15633484D02*
X6965062Y-15633484D01*
X6965062Y-15633484D02*
X6946015Y-15623960D01*
X6946015Y-15623960D02*
X6936491Y-15614436D01*
X6936491Y-15614436D02*
X6926967Y-15595388D01*
X6926967Y-15595388D02*
X6917443Y-15557293D01*
X6917443Y-15557293D02*
X6917443Y-15509674D01*
X6917443Y-15509674D02*
X6926967Y-15471579D01*
X6926967Y-15471579D02*
X6936491Y-15452531D01*
X6936491Y-15452531D02*
X6946015Y-15443008D01*
X6946015Y-15443008D02*
X6965062Y-15433484D01*
X7155539Y-15433484D02*
X7174586Y-15433484D01*
X7174586Y-15433484D02*
X7193634Y-15443008D01*
X7193634Y-15443008D02*
X7203158Y-15452531D01*
X7203158Y-15452531D02*
X7212682Y-15471579D01*
X7212682Y-15471579D02*
X7222205Y-15509674D01*
X7222205Y-15509674D02*
X7222205Y-15557293D01*
X7222205Y-15557293D02*
X7212682Y-15595388D01*
X7212682Y-15595388D02*
X7203158Y-15614436D01*
X7203158Y-15614436D02*
X7193634Y-15623960D01*
X7193634Y-15623960D02*
X7174586Y-15633484D01*
X7174586Y-15633484D02*
X7155539Y-15633484D01*
X7155539Y-15633484D02*
X7136491Y-15623960D01*
X7136491Y-15623960D02*
X7126967Y-15614436D01*
X7126967Y-15614436D02*
X7117443Y-15595388D01*
X7117443Y-15595388D02*
X7107920Y-15557293D01*
X7107920Y-15557293D02*
X7107920Y-15509674D01*
X7107920Y-15509674D02*
X7117443Y-15471579D01*
X7117443Y-15471579D02*
X7126967Y-15452531D01*
X7126967Y-15452531D02*
X7136491Y-15443008D01*
X7136491Y-15443008D02*
X7155539Y-15433484D01*
X7307920Y-15633484D02*
X7307920Y-15500150D01*
X7307920Y-15519198D02*
X7317443Y-15509674D01*
X7317443Y-15509674D02*
X7336491Y-15500150D01*
X7336491Y-15500150D02*
X7365063Y-15500150D01*
X7365063Y-15500150D02*
X7384110Y-15509674D01*
X7384110Y-15509674D02*
X7393634Y-15528722D01*
X7393634Y-15528722D02*
X7393634Y-15633484D01*
X7393634Y-15528722D02*
X7403158Y-15509674D01*
X7403158Y-15509674D02*
X7422205Y-15500150D01*
X7422205Y-15500150D02*
X7450777Y-15500150D01*
X7450777Y-15500150D02*
X7469824Y-15509674D01*
X7469824Y-15509674D02*
X7479348Y-15528722D01*
X7479348Y-15528722D02*
X7479348Y-15633484D01*
X7574586Y-15633484D02*
X7574586Y-15500150D01*
X7574586Y-15519198D02*
X7584110Y-15509674D01*
X7584110Y-15509674D02*
X7603158Y-15500150D01*
X7603158Y-15500150D02*
X7631729Y-15500150D01*
X7631729Y-15500150D02*
X7650777Y-15509674D01*
X7650777Y-15509674D02*
X7660301Y-15528722D01*
X7660301Y-15528722D02*
X7660301Y-15633484D01*
X7660301Y-15528722D02*
X7669824Y-15509674D01*
X7669824Y-15509674D02*
X7688872Y-15500150D01*
X7688872Y-15500150D02*
X7717443Y-15500150D01*
X7717443Y-15500150D02*
X7736491Y-15509674D01*
X7736491Y-15509674D02*
X7746015Y-15528722D01*
X7746015Y-15528722D02*
X7746015Y-15633484D01*
X8136491Y-15423960D02*
X7965063Y-15681103D01*
X8393634Y-15433484D02*
X8412682Y-15433484D01*
X8412682Y-15433484D02*
X8431729Y-15443008D01*
X8431729Y-15443008D02*
X8441253Y-15452531D01*
X8441253Y-15452531D02*
X8450777Y-15471579D01*
X8450777Y-15471579D02*
X8460301Y-15509674D01*
X8460301Y-15509674D02*
X8460301Y-15557293D01*
X8460301Y-15557293D02*
X8450777Y-15595388D01*
X8450777Y-15595388D02*
X8441253Y-15614436D01*
X8441253Y-15614436D02*
X8431729Y-15623960D01*
X8431729Y-15623960D02*
X8412682Y-15633484D01*
X8412682Y-15633484D02*
X8393634Y-15633484D01*
X8393634Y-15633484D02*
X8374586Y-15623960D01*
X8374586Y-15623960D02*
X8365063Y-15614436D01*
X8365063Y-15614436D02*
X8355539Y-15595388D01*
X8355539Y-15595388D02*
X8346015Y-15557293D01*
X8346015Y-15557293D02*
X8346015Y-15509674D01*
X8346015Y-15509674D02*
X8355539Y-15471579D01*
X8355539Y-15471579D02*
X8365063Y-15452531D01*
X8365063Y-15452531D02*
X8374586Y-15443008D01*
X8374586Y-15443008D02*
X8393634Y-15433484D01*
X8546015Y-15614436D02*
X8555539Y-15623960D01*
X8555539Y-15623960D02*
X8546015Y-15633484D01*
X8546015Y-15633484D02*
X8536491Y-15623960D01*
X8536491Y-15623960D02*
X8546015Y-15614436D01*
X8546015Y-15614436D02*
X8546015Y-15633484D01*
X8679348Y-15433484D02*
X8698396Y-15433484D01*
X8698396Y-15433484D02*
X8717444Y-15443008D01*
X8717444Y-15443008D02*
X8726968Y-15452531D01*
X8726968Y-15452531D02*
X8736491Y-15471579D01*
X8736491Y-15471579D02*
X8746015Y-15509674D01*
X8746015Y-15509674D02*
X8746015Y-15557293D01*
X8746015Y-15557293D02*
X8736491Y-15595388D01*
X8736491Y-15595388D02*
X8726968Y-15614436D01*
X8726968Y-15614436D02*
X8717444Y-15623960D01*
X8717444Y-15623960D02*
X8698396Y-15633484D01*
X8698396Y-15633484D02*
X8679348Y-15633484D01*
X8679348Y-15633484D02*
X8660301Y-15623960D01*
X8660301Y-15623960D02*
X8650777Y-15614436D01*
X8650777Y-15614436D02*
X8641253Y-15595388D01*
X8641253Y-15595388D02*
X8631729Y-15557293D01*
X8631729Y-15557293D02*
X8631729Y-15509674D01*
X8631729Y-15509674D02*
X8641253Y-15471579D01*
X8641253Y-15471579D02*
X8650777Y-15452531D01*
X8650777Y-15452531D02*
X8660301Y-15443008D01*
X8660301Y-15443008D02*
X8679348Y-15433484D01*
X8812682Y-15433484D02*
X8936491Y-15433484D01*
X8936491Y-15433484D02*
X8869825Y-15509674D01*
X8869825Y-15509674D02*
X8898396Y-15509674D01*
X8898396Y-15509674D02*
X8917444Y-15519198D01*
X8917444Y-15519198D02*
X8926968Y-15528722D01*
X8926968Y-15528722D02*
X8936491Y-15547769D01*
X8936491Y-15547769D02*
X8936491Y-15595388D01*
X8936491Y-15595388D02*
X8926968Y-15614436D01*
X8926968Y-15614436D02*
X8917444Y-15623960D01*
X8917444Y-15623960D02*
X8898396Y-15633484D01*
X8898396Y-15633484D02*
X8841253Y-15633484D01*
X8841253Y-15633484D02*
X8822206Y-15623960D01*
X8822206Y-15623960D02*
X8812682Y-15614436D01*
X9126968Y-15633484D02*
X9012682Y-15633484D01*
X9069825Y-15633484D02*
X9069825Y-15433484D01*
X9069825Y-15433484D02*
X9050777Y-15462055D01*
X9050777Y-15462055D02*
X9031729Y-15481103D01*
X9031729Y-15481103D02*
X9012682Y-15490627D01*
X9307920Y-15433484D02*
X9212682Y-15433484D01*
X9212682Y-15433484D02*
X9203158Y-15528722D01*
X9203158Y-15528722D02*
X9212682Y-15519198D01*
X9212682Y-15519198D02*
X9231729Y-15509674D01*
X9231729Y-15509674D02*
X9279349Y-15509674D01*
X9279349Y-15509674D02*
X9298396Y-15519198D01*
X9298396Y-15519198D02*
X9307920Y-15528722D01*
X9307920Y-15528722D02*
X9317444Y-15547769D01*
X9317444Y-15547769D02*
X9317444Y-15595388D01*
X9317444Y-15595388D02*
X9307920Y-15614436D01*
X9307920Y-15614436D02*
X9298396Y-15623960D01*
X9298396Y-15623960D02*
X9279349Y-15633484D01*
X9279349Y-15633484D02*
X9231729Y-15633484D01*
X9231729Y-15633484D02*
X9212682Y-15623960D01*
X9212682Y-15623960D02*
X9203158Y-15614436D01*
X9393634Y-15433484D02*
X9393634Y-15471579D01*
X9469825Y-15433484D02*
X9469825Y-15471579D01*
X9765063Y-15709674D02*
X9755539Y-15700150D01*
X9755539Y-15700150D02*
X9736491Y-15671579D01*
X9736491Y-15671579D02*
X9726968Y-15652531D01*
X9726968Y-15652531D02*
X9717444Y-15623960D01*
X9717444Y-15623960D02*
X9707920Y-15576341D01*
X9707920Y-15576341D02*
X9707920Y-15538246D01*
X9707920Y-15538246D02*
X9717444Y-15490627D01*
X9717444Y-15490627D02*
X9726968Y-15462055D01*
X9726968Y-15462055D02*
X9736491Y-15443008D01*
X9736491Y-15443008D02*
X9755539Y-15414436D01*
X9755539Y-15414436D02*
X9765063Y-15404912D01*
X9831730Y-15452531D02*
X9841253Y-15443008D01*
X9841253Y-15443008D02*
X9860301Y-15433484D01*
X9860301Y-15433484D02*
X9907920Y-15433484D01*
X9907920Y-15433484D02*
X9926968Y-15443008D01*
X9926968Y-15443008D02*
X9936491Y-15452531D01*
X9936491Y-15452531D02*
X9946015Y-15471579D01*
X9946015Y-15471579D02*
X9946015Y-15490627D01*
X9946015Y-15490627D02*
X9936491Y-15519198D01*
X9936491Y-15519198D02*
X9822206Y-15633484D01*
X9822206Y-15633484D02*
X9946015Y-15633484D01*
X10117444Y-15433484D02*
X10079349Y-15433484D01*
X10079349Y-15433484D02*
X10060301Y-15443008D01*
X10060301Y-15443008D02*
X10050777Y-15452531D01*
X10050777Y-15452531D02*
X10031730Y-15481103D01*
X10031730Y-15481103D02*
X10022206Y-15519198D01*
X10022206Y-15519198D02*
X10022206Y-15595388D01*
X10022206Y-15595388D02*
X10031730Y-15614436D01*
X10031730Y-15614436D02*
X10041253Y-15623960D01*
X10041253Y-15623960D02*
X10060301Y-15633484D01*
X10060301Y-15633484D02*
X10098396Y-15633484D01*
X10098396Y-15633484D02*
X10117444Y-15623960D01*
X10117444Y-15623960D02*
X10126968Y-15614436D01*
X10126968Y-15614436D02*
X10136491Y-15595388D01*
X10136491Y-15595388D02*
X10136491Y-15547769D01*
X10136491Y-15547769D02*
X10126968Y-15528722D01*
X10126968Y-15528722D02*
X10117444Y-15519198D01*
X10117444Y-15519198D02*
X10098396Y-15509674D01*
X10098396Y-15509674D02*
X10060301Y-15509674D01*
X10060301Y-15509674D02*
X10041253Y-15519198D01*
X10041253Y-15519198D02*
X10031730Y-15528722D01*
X10031730Y-15528722D02*
X10022206Y-15547769D01*
X10374587Y-15633484D02*
X10374587Y-15433484D01*
X10460301Y-15633484D02*
X10460301Y-15528722D01*
X10460301Y-15528722D02*
X10450777Y-15509674D01*
X10450777Y-15509674D02*
X10431730Y-15500150D01*
X10431730Y-15500150D02*
X10403158Y-15500150D01*
X10403158Y-15500150D02*
X10384111Y-15509674D01*
X10384111Y-15509674D02*
X10374587Y-15519198D01*
X10584111Y-15633484D02*
X10565063Y-15623960D01*
X10565063Y-15623960D02*
X10555539Y-15614436D01*
X10555539Y-15614436D02*
X10546015Y-15595388D01*
X10546015Y-15595388D02*
X10546015Y-15538246D01*
X10546015Y-15538246D02*
X10555539Y-15519198D01*
X10555539Y-15519198D02*
X10565063Y-15509674D01*
X10565063Y-15509674D02*
X10584111Y-15500150D01*
X10584111Y-15500150D02*
X10612682Y-15500150D01*
X10612682Y-15500150D02*
X10631730Y-15509674D01*
X10631730Y-15509674D02*
X10641253Y-15519198D01*
X10641253Y-15519198D02*
X10650777Y-15538246D01*
X10650777Y-15538246D02*
X10650777Y-15595388D01*
X10650777Y-15595388D02*
X10641253Y-15614436D01*
X10641253Y-15614436D02*
X10631730Y-15623960D01*
X10631730Y-15623960D02*
X10612682Y-15633484D01*
X10612682Y-15633484D02*
X10584111Y-15633484D01*
X10765063Y-15633484D02*
X10746015Y-15623960D01*
X10746015Y-15623960D02*
X10736492Y-15604912D01*
X10736492Y-15604912D02*
X10736492Y-15433484D01*
X10917444Y-15623960D02*
X10898396Y-15633484D01*
X10898396Y-15633484D02*
X10860301Y-15633484D01*
X10860301Y-15633484D02*
X10841253Y-15623960D01*
X10841253Y-15623960D02*
X10831730Y-15604912D01*
X10831730Y-15604912D02*
X10831730Y-15528722D01*
X10831730Y-15528722D02*
X10841253Y-15509674D01*
X10841253Y-15509674D02*
X10860301Y-15500150D01*
X10860301Y-15500150D02*
X10898396Y-15500150D01*
X10898396Y-15500150D02*
X10917444Y-15509674D01*
X10917444Y-15509674D02*
X10926968Y-15528722D01*
X10926968Y-15528722D02*
X10926968Y-15547769D01*
X10926968Y-15547769D02*
X10831730Y-15566817D01*
X11003158Y-15623960D02*
X11022206Y-15633484D01*
X11022206Y-15633484D02*
X11060301Y-15633484D01*
X11060301Y-15633484D02*
X11079349Y-15623960D01*
X11079349Y-15623960D02*
X11088873Y-15604912D01*
X11088873Y-15604912D02*
X11088873Y-15595388D01*
X11088873Y-15595388D02*
X11079349Y-15576341D01*
X11079349Y-15576341D02*
X11060301Y-15566817D01*
X11060301Y-15566817D02*
X11031730Y-15566817D01*
X11031730Y-15566817D02*
X11012682Y-15557293D01*
X11012682Y-15557293D02*
X11003158Y-15538246D01*
X11003158Y-15538246D02*
X11003158Y-15528722D01*
X11003158Y-15528722D02*
X11012682Y-15509674D01*
X11012682Y-15509674D02*
X11031730Y-15500150D01*
X11031730Y-15500150D02*
X11060301Y-15500150D01*
X11060301Y-15500150D02*
X11079349Y-15509674D01*
X11155539Y-15709674D02*
X11165063Y-15700150D01*
X11165063Y-15700150D02*
X11184111Y-15671579D01*
X11184111Y-15671579D02*
X11193634Y-15652531D01*
X11193634Y-15652531D02*
X11203158Y-15623960D01*
X11203158Y-15623960D02*
X11212682Y-15576341D01*
X11212682Y-15576341D02*
X11212682Y-15538246D01*
X11212682Y-15538246D02*
X11203158Y-15490627D01*
X11203158Y-15490627D02*
X11193634Y-15462055D01*
X11193634Y-15462055D02*
X11184111Y-15443008D01*
X11184111Y-15443008D02*
X11165063Y-15414436D01*
X11165063Y-15414436D02*
X11155539Y-15404912D01*
D11*
X6140000Y-15856000D02*
X6190000Y-15806000D01*
X6140000Y-15756000D01*
X6090000Y-15806000D01*
X6140000Y-15856000D01*
D10*
X6555539Y-15897484D02*
X6441253Y-15897484D01*
X6498396Y-15897484D02*
X6498396Y-15697484D01*
X6498396Y-15697484D02*
X6479348Y-15726055D01*
X6479348Y-15726055D02*
X6460301Y-15745103D01*
X6460301Y-15745103D02*
X6441253Y-15754627D01*
X6641253Y-15878436D02*
X6650777Y-15887960D01*
X6650777Y-15887960D02*
X6641253Y-15897484D01*
X6641253Y-15897484D02*
X6631729Y-15887960D01*
X6631729Y-15887960D02*
X6641253Y-15878436D01*
X6641253Y-15878436D02*
X6641253Y-15897484D01*
X6774586Y-15697484D02*
X6793634Y-15697484D01*
X6793634Y-15697484D02*
X6812682Y-15707008D01*
X6812682Y-15707008D02*
X6822205Y-15716531D01*
X6822205Y-15716531D02*
X6831729Y-15735579D01*
X6831729Y-15735579D02*
X6841253Y-15773674D01*
X6841253Y-15773674D02*
X6841253Y-15821293D01*
X6841253Y-15821293D02*
X6831729Y-15859388D01*
X6831729Y-15859388D02*
X6822205Y-15878436D01*
X6822205Y-15878436D02*
X6812682Y-15887960D01*
X6812682Y-15887960D02*
X6793634Y-15897484D01*
X6793634Y-15897484D02*
X6774586Y-15897484D01*
X6774586Y-15897484D02*
X6755539Y-15887960D01*
X6755539Y-15887960D02*
X6746015Y-15878436D01*
X6746015Y-15878436D02*
X6736491Y-15859388D01*
X6736491Y-15859388D02*
X6726967Y-15821293D01*
X6726967Y-15821293D02*
X6726967Y-15773674D01*
X6726967Y-15773674D02*
X6736491Y-15735579D01*
X6736491Y-15735579D02*
X6746015Y-15716531D01*
X6746015Y-15716531D02*
X6755539Y-15707008D01*
X6755539Y-15707008D02*
X6774586Y-15697484D01*
X6965062Y-15697484D02*
X6984110Y-15697484D01*
X6984110Y-15697484D02*
X7003158Y-15707008D01*
X7003158Y-15707008D02*
X7012682Y-15716531D01*
X7012682Y-15716531D02*
X7022205Y-15735579D01*
X7022205Y-15735579D02*
X7031729Y-15773674D01*
X7031729Y-15773674D02*
X7031729Y-15821293D01*
X7031729Y-15821293D02*
X7022205Y-15859388D01*
X7022205Y-15859388D02*
X7012682Y-15878436D01*
X7012682Y-15878436D02*
X7003158Y-15887960D01*
X7003158Y-15887960D02*
X6984110Y-15897484D01*
X6984110Y-15897484D02*
X6965062Y-15897484D01*
X6965062Y-15897484D02*
X6946015Y-15887960D01*
X6946015Y-15887960D02*
X6936491Y-15878436D01*
X6936491Y-15878436D02*
X6926967Y-15859388D01*
X6926967Y-15859388D02*
X6917443Y-15821293D01*
X6917443Y-15821293D02*
X6917443Y-15773674D01*
X6917443Y-15773674D02*
X6926967Y-15735579D01*
X6926967Y-15735579D02*
X6936491Y-15716531D01*
X6936491Y-15716531D02*
X6946015Y-15707008D01*
X6946015Y-15707008D02*
X6965062Y-15697484D01*
X7155539Y-15697484D02*
X7174586Y-15697484D01*
X7174586Y-15697484D02*
X7193634Y-15707008D01*
X7193634Y-15707008D02*
X7203158Y-15716531D01*
X7203158Y-15716531D02*
X7212682Y-15735579D01*
X7212682Y-15735579D02*
X7222205Y-15773674D01*
X7222205Y-15773674D02*
X7222205Y-15821293D01*
X7222205Y-15821293D02*
X7212682Y-15859388D01*
X7212682Y-15859388D02*
X7203158Y-15878436D01*
X7203158Y-15878436D02*
X7193634Y-15887960D01*
X7193634Y-15887960D02*
X7174586Y-15897484D01*
X7174586Y-15897484D02*
X7155539Y-15897484D01*
X7155539Y-15897484D02*
X7136491Y-15887960D01*
X7136491Y-15887960D02*
X7126967Y-15878436D01*
X7126967Y-15878436D02*
X7117443Y-15859388D01*
X7117443Y-15859388D02*
X7107920Y-15821293D01*
X7107920Y-15821293D02*
X7107920Y-15773674D01*
X7107920Y-15773674D02*
X7117443Y-15735579D01*
X7117443Y-15735579D02*
X7126967Y-15716531D01*
X7126967Y-15716531D02*
X7136491Y-15707008D01*
X7136491Y-15707008D02*
X7155539Y-15697484D01*
X7307920Y-15897484D02*
X7307920Y-15764150D01*
X7307920Y-15783198D02*
X7317443Y-15773674D01*
X7317443Y-15773674D02*
X7336491Y-15764150D01*
X7336491Y-15764150D02*
X7365063Y-15764150D01*
X7365063Y-15764150D02*
X7384110Y-15773674D01*
X7384110Y-15773674D02*
X7393634Y-15792722D01*
X7393634Y-15792722D02*
X7393634Y-15897484D01*
X7393634Y-15792722D02*
X7403158Y-15773674D01*
X7403158Y-15773674D02*
X7422205Y-15764150D01*
X7422205Y-15764150D02*
X7450777Y-15764150D01*
X7450777Y-15764150D02*
X7469824Y-15773674D01*
X7469824Y-15773674D02*
X7479348Y-15792722D01*
X7479348Y-15792722D02*
X7479348Y-15897484D01*
X7574586Y-15897484D02*
X7574586Y-15764150D01*
X7574586Y-15783198D02*
X7584110Y-15773674D01*
X7584110Y-15773674D02*
X7603158Y-15764150D01*
X7603158Y-15764150D02*
X7631729Y-15764150D01*
X7631729Y-15764150D02*
X7650777Y-15773674D01*
X7650777Y-15773674D02*
X7660301Y-15792722D01*
X7660301Y-15792722D02*
X7660301Y-15897484D01*
X7660301Y-15792722D02*
X7669824Y-15773674D01*
X7669824Y-15773674D02*
X7688872Y-15764150D01*
X7688872Y-15764150D02*
X7717443Y-15764150D01*
X7717443Y-15764150D02*
X7736491Y-15773674D01*
X7736491Y-15773674D02*
X7746015Y-15792722D01*
X7746015Y-15792722D02*
X7746015Y-15897484D01*
X8136491Y-15687960D02*
X7965063Y-15945103D01*
X8393634Y-15697484D02*
X8412682Y-15697484D01*
X8412682Y-15697484D02*
X8431729Y-15707008D01*
X8431729Y-15707008D02*
X8441253Y-15716531D01*
X8441253Y-15716531D02*
X8450777Y-15735579D01*
X8450777Y-15735579D02*
X8460301Y-15773674D01*
X8460301Y-15773674D02*
X8460301Y-15821293D01*
X8460301Y-15821293D02*
X8450777Y-15859388D01*
X8450777Y-15859388D02*
X8441253Y-15878436D01*
X8441253Y-15878436D02*
X8431729Y-15887960D01*
X8431729Y-15887960D02*
X8412682Y-15897484D01*
X8412682Y-15897484D02*
X8393634Y-15897484D01*
X8393634Y-15897484D02*
X8374586Y-15887960D01*
X8374586Y-15887960D02*
X8365063Y-15878436D01*
X8365063Y-15878436D02*
X8355539Y-15859388D01*
X8355539Y-15859388D02*
X8346015Y-15821293D01*
X8346015Y-15821293D02*
X8346015Y-15773674D01*
X8346015Y-15773674D02*
X8355539Y-15735579D01*
X8355539Y-15735579D02*
X8365063Y-15716531D01*
X8365063Y-15716531D02*
X8374586Y-15707008D01*
X8374586Y-15707008D02*
X8393634Y-15697484D01*
X8546015Y-15878436D02*
X8555539Y-15887960D01*
X8555539Y-15887960D02*
X8546015Y-15897484D01*
X8546015Y-15897484D02*
X8536491Y-15887960D01*
X8536491Y-15887960D02*
X8546015Y-15878436D01*
X8546015Y-15878436D02*
X8546015Y-15897484D01*
X8679348Y-15697484D02*
X8698396Y-15697484D01*
X8698396Y-15697484D02*
X8717444Y-15707008D01*
X8717444Y-15707008D02*
X8726968Y-15716531D01*
X8726968Y-15716531D02*
X8736491Y-15735579D01*
X8736491Y-15735579D02*
X8746015Y-15773674D01*
X8746015Y-15773674D02*
X8746015Y-15821293D01*
X8746015Y-15821293D02*
X8736491Y-15859388D01*
X8736491Y-15859388D02*
X8726968Y-15878436D01*
X8726968Y-15878436D02*
X8717444Y-15887960D01*
X8717444Y-15887960D02*
X8698396Y-15897484D01*
X8698396Y-15897484D02*
X8679348Y-15897484D01*
X8679348Y-15897484D02*
X8660301Y-15887960D01*
X8660301Y-15887960D02*
X8650777Y-15878436D01*
X8650777Y-15878436D02*
X8641253Y-15859388D01*
X8641253Y-15859388D02*
X8631729Y-15821293D01*
X8631729Y-15821293D02*
X8631729Y-15773674D01*
X8631729Y-15773674D02*
X8641253Y-15735579D01*
X8641253Y-15735579D02*
X8650777Y-15716531D01*
X8650777Y-15716531D02*
X8660301Y-15707008D01*
X8660301Y-15707008D02*
X8679348Y-15697484D01*
X8812682Y-15697484D02*
X8936491Y-15697484D01*
X8936491Y-15697484D02*
X8869825Y-15773674D01*
X8869825Y-15773674D02*
X8898396Y-15773674D01*
X8898396Y-15773674D02*
X8917444Y-15783198D01*
X8917444Y-15783198D02*
X8926968Y-15792722D01*
X8926968Y-15792722D02*
X8936491Y-15811769D01*
X8936491Y-15811769D02*
X8936491Y-15859388D01*
X8936491Y-15859388D02*
X8926968Y-15878436D01*
X8926968Y-15878436D02*
X8917444Y-15887960D01*
X8917444Y-15887960D02*
X8898396Y-15897484D01*
X8898396Y-15897484D02*
X8841253Y-15897484D01*
X8841253Y-15897484D02*
X8822206Y-15887960D01*
X8822206Y-15887960D02*
X8812682Y-15878436D01*
X9031729Y-15897484D02*
X9069825Y-15897484D01*
X9069825Y-15897484D02*
X9088872Y-15887960D01*
X9088872Y-15887960D02*
X9098396Y-15878436D01*
X9098396Y-15878436D02*
X9117444Y-15849865D01*
X9117444Y-15849865D02*
X9126968Y-15811769D01*
X9126968Y-15811769D02*
X9126968Y-15735579D01*
X9126968Y-15735579D02*
X9117444Y-15716531D01*
X9117444Y-15716531D02*
X9107920Y-15707008D01*
X9107920Y-15707008D02*
X9088872Y-15697484D01*
X9088872Y-15697484D02*
X9050777Y-15697484D01*
X9050777Y-15697484D02*
X9031729Y-15707008D01*
X9031729Y-15707008D02*
X9022206Y-15716531D01*
X9022206Y-15716531D02*
X9012682Y-15735579D01*
X9012682Y-15735579D02*
X9012682Y-15783198D01*
X9012682Y-15783198D02*
X9022206Y-15802246D01*
X9022206Y-15802246D02*
X9031729Y-15811769D01*
X9031729Y-15811769D02*
X9050777Y-15821293D01*
X9050777Y-15821293D02*
X9088872Y-15821293D01*
X9088872Y-15821293D02*
X9107920Y-15811769D01*
X9107920Y-15811769D02*
X9117444Y-15802246D01*
X9117444Y-15802246D02*
X9126968Y-15783198D01*
X9298396Y-15764150D02*
X9298396Y-15897484D01*
X9250777Y-15687960D02*
X9203158Y-15830817D01*
X9203158Y-15830817D02*
X9326968Y-15830817D01*
X9393634Y-15697484D02*
X9393634Y-15735579D01*
X9469825Y-15697484D02*
X9469825Y-15735579D01*
X9765063Y-15973674D02*
X9755539Y-15964150D01*
X9755539Y-15964150D02*
X9736491Y-15935579D01*
X9736491Y-15935579D02*
X9726968Y-15916531D01*
X9726968Y-15916531D02*
X9717444Y-15887960D01*
X9717444Y-15887960D02*
X9707920Y-15840341D01*
X9707920Y-15840341D02*
X9707920Y-15802246D01*
X9707920Y-15802246D02*
X9717444Y-15754627D01*
X9717444Y-15754627D02*
X9726968Y-15726055D01*
X9726968Y-15726055D02*
X9736491Y-15707008D01*
X9736491Y-15707008D02*
X9755539Y-15678436D01*
X9755539Y-15678436D02*
X9765063Y-15668912D01*
X9936491Y-15697484D02*
X9841253Y-15697484D01*
X9841253Y-15697484D02*
X9831730Y-15792722D01*
X9831730Y-15792722D02*
X9841253Y-15783198D01*
X9841253Y-15783198D02*
X9860301Y-15773674D01*
X9860301Y-15773674D02*
X9907920Y-15773674D01*
X9907920Y-15773674D02*
X9926968Y-15783198D01*
X9926968Y-15783198D02*
X9936491Y-15792722D01*
X9936491Y-15792722D02*
X9946015Y-15811769D01*
X9946015Y-15811769D02*
X9946015Y-15859388D01*
X9946015Y-15859388D02*
X9936491Y-15878436D01*
X9936491Y-15878436D02*
X9926968Y-15887960D01*
X9926968Y-15887960D02*
X9907920Y-15897484D01*
X9907920Y-15897484D02*
X9860301Y-15897484D01*
X9860301Y-15897484D02*
X9841253Y-15887960D01*
X9841253Y-15887960D02*
X9831730Y-15878436D01*
X10041253Y-15897484D02*
X10079349Y-15897484D01*
X10079349Y-15897484D02*
X10098396Y-15887960D01*
X10098396Y-15887960D02*
X10107920Y-15878436D01*
X10107920Y-15878436D02*
X10126968Y-15849865D01*
X10126968Y-15849865D02*
X10136491Y-15811769D01*
X10136491Y-15811769D02*
X10136491Y-15735579D01*
X10136491Y-15735579D02*
X10126968Y-15716531D01*
X10126968Y-15716531D02*
X10117444Y-15707008D01*
X10117444Y-15707008D02*
X10098396Y-15697484D01*
X10098396Y-15697484D02*
X10060301Y-15697484D01*
X10060301Y-15697484D02*
X10041253Y-15707008D01*
X10041253Y-15707008D02*
X10031730Y-15716531D01*
X10031730Y-15716531D02*
X10022206Y-15735579D01*
X10022206Y-15735579D02*
X10022206Y-15783198D01*
X10022206Y-15783198D02*
X10031730Y-15802246D01*
X10031730Y-15802246D02*
X10041253Y-15811769D01*
X10041253Y-15811769D02*
X10060301Y-15821293D01*
X10060301Y-15821293D02*
X10098396Y-15821293D01*
X10098396Y-15821293D02*
X10117444Y-15811769D01*
X10117444Y-15811769D02*
X10126968Y-15802246D01*
X10126968Y-15802246D02*
X10136491Y-15783198D01*
X10374587Y-15897484D02*
X10374587Y-15697484D01*
X10460301Y-15897484D02*
X10460301Y-15792722D01*
X10460301Y-15792722D02*
X10450777Y-15773674D01*
X10450777Y-15773674D02*
X10431730Y-15764150D01*
X10431730Y-15764150D02*
X10403158Y-15764150D01*
X10403158Y-15764150D02*
X10384111Y-15773674D01*
X10384111Y-15773674D02*
X10374587Y-15783198D01*
X10584111Y-15897484D02*
X10565063Y-15887960D01*
X10565063Y-15887960D02*
X10555539Y-15878436D01*
X10555539Y-15878436D02*
X10546015Y-15859388D01*
X10546015Y-15859388D02*
X10546015Y-15802246D01*
X10546015Y-15802246D02*
X10555539Y-15783198D01*
X10555539Y-15783198D02*
X10565063Y-15773674D01*
X10565063Y-15773674D02*
X10584111Y-15764150D01*
X10584111Y-15764150D02*
X10612682Y-15764150D01*
X10612682Y-15764150D02*
X10631730Y-15773674D01*
X10631730Y-15773674D02*
X10641253Y-15783198D01*
X10641253Y-15783198D02*
X10650777Y-15802246D01*
X10650777Y-15802246D02*
X10650777Y-15859388D01*
X10650777Y-15859388D02*
X10641253Y-15878436D01*
X10641253Y-15878436D02*
X10631730Y-15887960D01*
X10631730Y-15887960D02*
X10612682Y-15897484D01*
X10612682Y-15897484D02*
X10584111Y-15897484D01*
X10765063Y-15897484D02*
X10746015Y-15887960D01*
X10746015Y-15887960D02*
X10736492Y-15868912D01*
X10736492Y-15868912D02*
X10736492Y-15697484D01*
X10917444Y-15887960D02*
X10898396Y-15897484D01*
X10898396Y-15897484D02*
X10860301Y-15897484D01*
X10860301Y-15897484D02*
X10841253Y-15887960D01*
X10841253Y-15887960D02*
X10831730Y-15868912D01*
X10831730Y-15868912D02*
X10831730Y-15792722D01*
X10831730Y-15792722D02*
X10841253Y-15773674D01*
X10841253Y-15773674D02*
X10860301Y-15764150D01*
X10860301Y-15764150D02*
X10898396Y-15764150D01*
X10898396Y-15764150D02*
X10917444Y-15773674D01*
X10917444Y-15773674D02*
X10926968Y-15792722D01*
X10926968Y-15792722D02*
X10926968Y-15811769D01*
X10926968Y-15811769D02*
X10831730Y-15830817D01*
X11003158Y-15887960D02*
X11022206Y-15897484D01*
X11022206Y-15897484D02*
X11060301Y-15897484D01*
X11060301Y-15897484D02*
X11079349Y-15887960D01*
X11079349Y-15887960D02*
X11088873Y-15868912D01*
X11088873Y-15868912D02*
X11088873Y-15859388D01*
X11088873Y-15859388D02*
X11079349Y-15840341D01*
X11079349Y-15840341D02*
X11060301Y-15830817D01*
X11060301Y-15830817D02*
X11031730Y-15830817D01*
X11031730Y-15830817D02*
X11012682Y-15821293D01*
X11012682Y-15821293D02*
X11003158Y-15802246D01*
X11003158Y-15802246D02*
X11003158Y-15792722D01*
X11003158Y-15792722D02*
X11012682Y-15773674D01*
X11012682Y-15773674D02*
X11031730Y-15764150D01*
X11031730Y-15764150D02*
X11060301Y-15764150D01*
X11060301Y-15764150D02*
X11079349Y-15773674D01*
X11155539Y-15973674D02*
X11165063Y-15964150D01*
X11165063Y-15964150D02*
X11184111Y-15935579D01*
X11184111Y-15935579D02*
X11193634Y-15916531D01*
X11193634Y-15916531D02*
X11203158Y-15887960D01*
X11203158Y-15887960D02*
X11212682Y-15840341D01*
X11212682Y-15840341D02*
X11212682Y-15802246D01*
X11212682Y-15802246D02*
X11203158Y-15754627D01*
X11203158Y-15754627D02*
X11193634Y-15726055D01*
X11193634Y-15726055D02*
X11184111Y-15707008D01*
X11184111Y-15707008D02*
X11165063Y-15678436D01*
X11165063Y-15678436D02*
X11155539Y-15668912D01*
D12*
X6080000Y-16015000D02*
X6190000Y-16125000D01*
X6190000Y-16015000D02*
X6080000Y-16125000D01*
X6190000Y-16070000D02*
G75*
G02*
X6080000Y-16070000I-55000J0D01*
G01*
X6080000Y-16070000D02*
G75*
G02*
X6190000Y-16070000I55000J0D01*
G01*
D10*
X6555539Y-16161484D02*
X6441253Y-16161484D01*
X6498396Y-16161484D02*
X6498396Y-15961484D01*
X6498396Y-15961484D02*
X6479348Y-15990055D01*
X6479348Y-15990055D02*
X6460301Y-16009103D01*
X6460301Y-16009103D02*
X6441253Y-16018627D01*
X6641253Y-16142436D02*
X6650777Y-16151960D01*
X6650777Y-16151960D02*
X6641253Y-16161484D01*
X6641253Y-16161484D02*
X6631729Y-16151960D01*
X6631729Y-16151960D02*
X6641253Y-16142436D01*
X6641253Y-16142436D02*
X6641253Y-16161484D01*
X6841253Y-16161484D02*
X6726967Y-16161484D01*
X6784110Y-16161484D02*
X6784110Y-15961484D01*
X6784110Y-15961484D02*
X6765062Y-15990055D01*
X6765062Y-15990055D02*
X6746015Y-16009103D01*
X6746015Y-16009103D02*
X6726967Y-16018627D01*
X6965062Y-15961484D02*
X6984110Y-15961484D01*
X6984110Y-15961484D02*
X7003158Y-15971008D01*
X7003158Y-15971008D02*
X7012682Y-15980531D01*
X7012682Y-15980531D02*
X7022205Y-15999579D01*
X7022205Y-15999579D02*
X7031729Y-16037674D01*
X7031729Y-16037674D02*
X7031729Y-16085293D01*
X7031729Y-16085293D02*
X7022205Y-16123388D01*
X7022205Y-16123388D02*
X7012682Y-16142436D01*
X7012682Y-16142436D02*
X7003158Y-16151960D01*
X7003158Y-16151960D02*
X6984110Y-16161484D01*
X6984110Y-16161484D02*
X6965062Y-16161484D01*
X6965062Y-16161484D02*
X6946015Y-16151960D01*
X6946015Y-16151960D02*
X6936491Y-16142436D01*
X6936491Y-16142436D02*
X6926967Y-16123388D01*
X6926967Y-16123388D02*
X6917443Y-16085293D01*
X6917443Y-16085293D02*
X6917443Y-16037674D01*
X6917443Y-16037674D02*
X6926967Y-15999579D01*
X6926967Y-15999579D02*
X6936491Y-15980531D01*
X6936491Y-15980531D02*
X6946015Y-15971008D01*
X6946015Y-15971008D02*
X6965062Y-15961484D01*
X7155539Y-15961484D02*
X7174586Y-15961484D01*
X7174586Y-15961484D02*
X7193634Y-15971008D01*
X7193634Y-15971008D02*
X7203158Y-15980531D01*
X7203158Y-15980531D02*
X7212682Y-15999579D01*
X7212682Y-15999579D02*
X7222205Y-16037674D01*
X7222205Y-16037674D02*
X7222205Y-16085293D01*
X7222205Y-16085293D02*
X7212682Y-16123388D01*
X7212682Y-16123388D02*
X7203158Y-16142436D01*
X7203158Y-16142436D02*
X7193634Y-16151960D01*
X7193634Y-16151960D02*
X7174586Y-16161484D01*
X7174586Y-16161484D02*
X7155539Y-16161484D01*
X7155539Y-16161484D02*
X7136491Y-16151960D01*
X7136491Y-16151960D02*
X7126967Y-16142436D01*
X7126967Y-16142436D02*
X7117443Y-16123388D01*
X7117443Y-16123388D02*
X7107920Y-16085293D01*
X7107920Y-16085293D02*
X7107920Y-16037674D01*
X7107920Y-16037674D02*
X7117443Y-15999579D01*
X7117443Y-15999579D02*
X7126967Y-15980531D01*
X7126967Y-15980531D02*
X7136491Y-15971008D01*
X7136491Y-15971008D02*
X7155539Y-15961484D01*
X7307920Y-16161484D02*
X7307920Y-16028150D01*
X7307920Y-16047198D02*
X7317443Y-16037674D01*
X7317443Y-16037674D02*
X7336491Y-16028150D01*
X7336491Y-16028150D02*
X7365063Y-16028150D01*
X7365063Y-16028150D02*
X7384110Y-16037674D01*
X7384110Y-16037674D02*
X7393634Y-16056722D01*
X7393634Y-16056722D02*
X7393634Y-16161484D01*
X7393634Y-16056722D02*
X7403158Y-16037674D01*
X7403158Y-16037674D02*
X7422205Y-16028150D01*
X7422205Y-16028150D02*
X7450777Y-16028150D01*
X7450777Y-16028150D02*
X7469824Y-16037674D01*
X7469824Y-16037674D02*
X7479348Y-16056722D01*
X7479348Y-16056722D02*
X7479348Y-16161484D01*
X7574586Y-16161484D02*
X7574586Y-16028150D01*
X7574586Y-16047198D02*
X7584110Y-16037674D01*
X7584110Y-16037674D02*
X7603158Y-16028150D01*
X7603158Y-16028150D02*
X7631729Y-16028150D01*
X7631729Y-16028150D02*
X7650777Y-16037674D01*
X7650777Y-16037674D02*
X7660301Y-16056722D01*
X7660301Y-16056722D02*
X7660301Y-16161484D01*
X7660301Y-16056722D02*
X7669824Y-16037674D01*
X7669824Y-16037674D02*
X7688872Y-16028150D01*
X7688872Y-16028150D02*
X7717443Y-16028150D01*
X7717443Y-16028150D02*
X7736491Y-16037674D01*
X7736491Y-16037674D02*
X7746015Y-16056722D01*
X7746015Y-16056722D02*
X7746015Y-16161484D01*
X8136491Y-15951960D02*
X7965063Y-16209103D01*
X8393634Y-15961484D02*
X8412682Y-15961484D01*
X8412682Y-15961484D02*
X8431729Y-15971008D01*
X8431729Y-15971008D02*
X8441253Y-15980531D01*
X8441253Y-15980531D02*
X8450777Y-15999579D01*
X8450777Y-15999579D02*
X8460301Y-16037674D01*
X8460301Y-16037674D02*
X8460301Y-16085293D01*
X8460301Y-16085293D02*
X8450777Y-16123388D01*
X8450777Y-16123388D02*
X8441253Y-16142436D01*
X8441253Y-16142436D02*
X8431729Y-16151960D01*
X8431729Y-16151960D02*
X8412682Y-16161484D01*
X8412682Y-16161484D02*
X8393634Y-16161484D01*
X8393634Y-16161484D02*
X8374586Y-16151960D01*
X8374586Y-16151960D02*
X8365063Y-16142436D01*
X8365063Y-16142436D02*
X8355539Y-16123388D01*
X8355539Y-16123388D02*
X8346015Y-16085293D01*
X8346015Y-16085293D02*
X8346015Y-16037674D01*
X8346015Y-16037674D02*
X8355539Y-15999579D01*
X8355539Y-15999579D02*
X8365063Y-15980531D01*
X8365063Y-15980531D02*
X8374586Y-15971008D01*
X8374586Y-15971008D02*
X8393634Y-15961484D01*
X8546015Y-16142436D02*
X8555539Y-16151960D01*
X8555539Y-16151960D02*
X8546015Y-16161484D01*
X8546015Y-16161484D02*
X8536491Y-16151960D01*
X8536491Y-16151960D02*
X8546015Y-16142436D01*
X8546015Y-16142436D02*
X8546015Y-16161484D01*
X8679348Y-15961484D02*
X8698396Y-15961484D01*
X8698396Y-15961484D02*
X8717444Y-15971008D01*
X8717444Y-15971008D02*
X8726968Y-15980531D01*
X8726968Y-15980531D02*
X8736491Y-15999579D01*
X8736491Y-15999579D02*
X8746015Y-16037674D01*
X8746015Y-16037674D02*
X8746015Y-16085293D01*
X8746015Y-16085293D02*
X8736491Y-16123388D01*
X8736491Y-16123388D02*
X8726968Y-16142436D01*
X8726968Y-16142436D02*
X8717444Y-16151960D01*
X8717444Y-16151960D02*
X8698396Y-16161484D01*
X8698396Y-16161484D02*
X8679348Y-16161484D01*
X8679348Y-16161484D02*
X8660301Y-16151960D01*
X8660301Y-16151960D02*
X8650777Y-16142436D01*
X8650777Y-16142436D02*
X8641253Y-16123388D01*
X8641253Y-16123388D02*
X8631729Y-16085293D01*
X8631729Y-16085293D02*
X8631729Y-16037674D01*
X8631729Y-16037674D02*
X8641253Y-15999579D01*
X8641253Y-15999579D02*
X8650777Y-15980531D01*
X8650777Y-15980531D02*
X8660301Y-15971008D01*
X8660301Y-15971008D02*
X8679348Y-15961484D01*
X8917444Y-16028150D02*
X8917444Y-16161484D01*
X8869825Y-15951960D02*
X8822206Y-16094817D01*
X8822206Y-16094817D02*
X8946015Y-16094817D01*
X9003158Y-15961484D02*
X9126968Y-15961484D01*
X9126968Y-15961484D02*
X9060301Y-16037674D01*
X9060301Y-16037674D02*
X9088872Y-16037674D01*
X9088872Y-16037674D02*
X9107920Y-16047198D01*
X9107920Y-16047198D02*
X9117444Y-16056722D01*
X9117444Y-16056722D02*
X9126968Y-16075769D01*
X9126968Y-16075769D02*
X9126968Y-16123388D01*
X9126968Y-16123388D02*
X9117444Y-16142436D01*
X9117444Y-16142436D02*
X9107920Y-16151960D01*
X9107920Y-16151960D02*
X9088872Y-16161484D01*
X9088872Y-16161484D02*
X9031729Y-16161484D01*
X9031729Y-16161484D02*
X9012682Y-16151960D01*
X9012682Y-16151960D02*
X9003158Y-16142436D01*
X9193634Y-15961484D02*
X9317444Y-15961484D01*
X9317444Y-15961484D02*
X9250777Y-16037674D01*
X9250777Y-16037674D02*
X9279349Y-16037674D01*
X9279349Y-16037674D02*
X9298396Y-16047198D01*
X9298396Y-16047198D02*
X9307920Y-16056722D01*
X9307920Y-16056722D02*
X9317444Y-16075769D01*
X9317444Y-16075769D02*
X9317444Y-16123388D01*
X9317444Y-16123388D02*
X9307920Y-16142436D01*
X9307920Y-16142436D02*
X9298396Y-16151960D01*
X9298396Y-16151960D02*
X9279349Y-16161484D01*
X9279349Y-16161484D02*
X9222206Y-16161484D01*
X9222206Y-16161484D02*
X9203158Y-16151960D01*
X9203158Y-16151960D02*
X9193634Y-16142436D01*
X9393634Y-15961484D02*
X9393634Y-15999579D01*
X9469825Y-15961484D02*
X9469825Y-15999579D01*
X9765063Y-16237674D02*
X9755539Y-16228150D01*
X9755539Y-16228150D02*
X9736491Y-16199579D01*
X9736491Y-16199579D02*
X9726968Y-16180531D01*
X9726968Y-16180531D02*
X9717444Y-16151960D01*
X9717444Y-16151960D02*
X9707920Y-16104341D01*
X9707920Y-16104341D02*
X9707920Y-16066246D01*
X9707920Y-16066246D02*
X9717444Y-16018627D01*
X9717444Y-16018627D02*
X9726968Y-15990055D01*
X9726968Y-15990055D02*
X9736491Y-15971008D01*
X9736491Y-15971008D02*
X9755539Y-15942436D01*
X9755539Y-15942436D02*
X9765063Y-15932912D01*
X9822206Y-15961484D02*
X9946015Y-15961484D01*
X9946015Y-15961484D02*
X9879349Y-16037674D01*
X9879349Y-16037674D02*
X9907920Y-16037674D01*
X9907920Y-16037674D02*
X9926968Y-16047198D01*
X9926968Y-16047198D02*
X9936491Y-16056722D01*
X9936491Y-16056722D02*
X9946015Y-16075769D01*
X9946015Y-16075769D02*
X9946015Y-16123388D01*
X9946015Y-16123388D02*
X9936491Y-16142436D01*
X9936491Y-16142436D02*
X9926968Y-16151960D01*
X9926968Y-16151960D02*
X9907920Y-16161484D01*
X9907920Y-16161484D02*
X9850777Y-16161484D01*
X9850777Y-16161484D02*
X9831730Y-16151960D01*
X9831730Y-16151960D02*
X9822206Y-16142436D01*
X10184111Y-16161484D02*
X10184111Y-15961484D01*
X10269825Y-16161484D02*
X10269825Y-16056722D01*
X10269825Y-16056722D02*
X10260301Y-16037674D01*
X10260301Y-16037674D02*
X10241253Y-16028150D01*
X10241253Y-16028150D02*
X10212682Y-16028150D01*
X10212682Y-16028150D02*
X10193634Y-16037674D01*
X10193634Y-16037674D02*
X10184111Y-16047198D01*
X10393634Y-16161484D02*
X10374587Y-16151960D01*
X10374587Y-16151960D02*
X10365063Y-16142436D01*
X10365063Y-16142436D02*
X10355539Y-16123388D01*
X10355539Y-16123388D02*
X10355539Y-16066246D01*
X10355539Y-16066246D02*
X10365063Y-16047198D01*
X10365063Y-16047198D02*
X10374587Y-16037674D01*
X10374587Y-16037674D02*
X10393634Y-16028150D01*
X10393634Y-16028150D02*
X10422206Y-16028150D01*
X10422206Y-16028150D02*
X10441253Y-16037674D01*
X10441253Y-16037674D02*
X10450777Y-16047198D01*
X10450777Y-16047198D02*
X10460301Y-16066246D01*
X10460301Y-16066246D02*
X10460301Y-16123388D01*
X10460301Y-16123388D02*
X10450777Y-16142436D01*
X10450777Y-16142436D02*
X10441253Y-16151960D01*
X10441253Y-16151960D02*
X10422206Y-16161484D01*
X10422206Y-16161484D02*
X10393634Y-16161484D01*
X10574587Y-16161484D02*
X10555539Y-16151960D01*
X10555539Y-16151960D02*
X10546015Y-16132912D01*
X10546015Y-16132912D02*
X10546015Y-15961484D01*
X10726968Y-16151960D02*
X10707920Y-16161484D01*
X10707920Y-16161484D02*
X10669825Y-16161484D01*
X10669825Y-16161484D02*
X10650777Y-16151960D01*
X10650777Y-16151960D02*
X10641253Y-16132912D01*
X10641253Y-16132912D02*
X10641253Y-16056722D01*
X10641253Y-16056722D02*
X10650777Y-16037674D01*
X10650777Y-16037674D02*
X10669825Y-16028150D01*
X10669825Y-16028150D02*
X10707920Y-16028150D01*
X10707920Y-16028150D02*
X10726968Y-16037674D01*
X10726968Y-16037674D02*
X10736492Y-16056722D01*
X10736492Y-16056722D02*
X10736492Y-16075769D01*
X10736492Y-16075769D02*
X10641253Y-16094817D01*
X10812682Y-16151960D02*
X10831730Y-16161484D01*
X10831730Y-16161484D02*
X10869825Y-16161484D01*
X10869825Y-16161484D02*
X10888873Y-16151960D01*
X10888873Y-16151960D02*
X10898396Y-16132912D01*
X10898396Y-16132912D02*
X10898396Y-16123388D01*
X10898396Y-16123388D02*
X10888873Y-16104341D01*
X10888873Y-16104341D02*
X10869825Y-16094817D01*
X10869825Y-16094817D02*
X10841253Y-16094817D01*
X10841253Y-16094817D02*
X10822206Y-16085293D01*
X10822206Y-16085293D02*
X10812682Y-16066246D01*
X10812682Y-16066246D02*
X10812682Y-16056722D01*
X10812682Y-16056722D02*
X10822206Y-16037674D01*
X10822206Y-16037674D02*
X10841253Y-16028150D01*
X10841253Y-16028150D02*
X10869825Y-16028150D01*
X10869825Y-16028150D02*
X10888873Y-16037674D01*
X10965063Y-16237674D02*
X10974587Y-16228150D01*
X10974587Y-16228150D02*
X10993634Y-16199579D01*
X10993634Y-16199579D02*
X11003158Y-16180531D01*
X11003158Y-16180531D02*
X11012682Y-16151960D01*
X11012682Y-16151960D02*
X11022206Y-16104341D01*
X11022206Y-16104341D02*
X11022206Y-16066246D01*
X11022206Y-16066246D02*
X11012682Y-16018627D01*
X11012682Y-16018627D02*
X11003158Y-15990055D01*
X11003158Y-15990055D02*
X10993634Y-15971008D01*
X10993634Y-15971008D02*
X10974587Y-15942436D01*
X10974587Y-15942436D02*
X10965063Y-15932912D01*
D13*
X6040000Y-16259000D02*
X6190000Y-16409000D01*
X6190000Y-16259000D02*
X6040000Y-16409000D01*
X6115000Y-16259000D02*
X6115000Y-16409000D01*
X6040000Y-16334000D02*
X6190000Y-16334000D01*
D10*
X6555539Y-16425484D02*
X6441253Y-16425484D01*
X6498396Y-16425484D02*
X6498396Y-16225484D01*
X6498396Y-16225484D02*
X6479348Y-16254055D01*
X6479348Y-16254055D02*
X6460301Y-16273103D01*
X6460301Y-16273103D02*
X6441253Y-16282627D01*
X6641253Y-16406436D02*
X6650777Y-16415960D01*
X6650777Y-16415960D02*
X6641253Y-16425484D01*
X6641253Y-16425484D02*
X6631729Y-16415960D01*
X6631729Y-16415960D02*
X6641253Y-16406436D01*
X6641253Y-16406436D02*
X6641253Y-16425484D01*
X6831729Y-16225484D02*
X6736491Y-16225484D01*
X6736491Y-16225484D02*
X6726967Y-16320722D01*
X6726967Y-16320722D02*
X6736491Y-16311198D01*
X6736491Y-16311198D02*
X6755539Y-16301674D01*
X6755539Y-16301674D02*
X6803158Y-16301674D01*
X6803158Y-16301674D02*
X6822205Y-16311198D01*
X6822205Y-16311198D02*
X6831729Y-16320722D01*
X6831729Y-16320722D02*
X6841253Y-16339769D01*
X6841253Y-16339769D02*
X6841253Y-16387388D01*
X6841253Y-16387388D02*
X6831729Y-16406436D01*
X6831729Y-16406436D02*
X6822205Y-16415960D01*
X6822205Y-16415960D02*
X6803158Y-16425484D01*
X6803158Y-16425484D02*
X6755539Y-16425484D01*
X6755539Y-16425484D02*
X6736491Y-16415960D01*
X6736491Y-16415960D02*
X6726967Y-16406436D01*
X6965062Y-16225484D02*
X6984110Y-16225484D01*
X6984110Y-16225484D02*
X7003158Y-16235008D01*
X7003158Y-16235008D02*
X7012682Y-16244531D01*
X7012682Y-16244531D02*
X7022205Y-16263579D01*
X7022205Y-16263579D02*
X7031729Y-16301674D01*
X7031729Y-16301674D02*
X7031729Y-16349293D01*
X7031729Y-16349293D02*
X7022205Y-16387388D01*
X7022205Y-16387388D02*
X7012682Y-16406436D01*
X7012682Y-16406436D02*
X7003158Y-16415960D01*
X7003158Y-16415960D02*
X6984110Y-16425484D01*
X6984110Y-16425484D02*
X6965062Y-16425484D01*
X6965062Y-16425484D02*
X6946015Y-16415960D01*
X6946015Y-16415960D02*
X6936491Y-16406436D01*
X6936491Y-16406436D02*
X6926967Y-16387388D01*
X6926967Y-16387388D02*
X6917443Y-16349293D01*
X6917443Y-16349293D02*
X6917443Y-16301674D01*
X6917443Y-16301674D02*
X6926967Y-16263579D01*
X6926967Y-16263579D02*
X6936491Y-16244531D01*
X6936491Y-16244531D02*
X6946015Y-16235008D01*
X6946015Y-16235008D02*
X6965062Y-16225484D01*
X7155539Y-16225484D02*
X7174586Y-16225484D01*
X7174586Y-16225484D02*
X7193634Y-16235008D01*
X7193634Y-16235008D02*
X7203158Y-16244531D01*
X7203158Y-16244531D02*
X7212682Y-16263579D01*
X7212682Y-16263579D02*
X7222205Y-16301674D01*
X7222205Y-16301674D02*
X7222205Y-16349293D01*
X7222205Y-16349293D02*
X7212682Y-16387388D01*
X7212682Y-16387388D02*
X7203158Y-16406436D01*
X7203158Y-16406436D02*
X7193634Y-16415960D01*
X7193634Y-16415960D02*
X7174586Y-16425484D01*
X7174586Y-16425484D02*
X7155539Y-16425484D01*
X7155539Y-16425484D02*
X7136491Y-16415960D01*
X7136491Y-16415960D02*
X7126967Y-16406436D01*
X7126967Y-16406436D02*
X7117443Y-16387388D01*
X7117443Y-16387388D02*
X7107920Y-16349293D01*
X7107920Y-16349293D02*
X7107920Y-16301674D01*
X7107920Y-16301674D02*
X7117443Y-16263579D01*
X7117443Y-16263579D02*
X7126967Y-16244531D01*
X7126967Y-16244531D02*
X7136491Y-16235008D01*
X7136491Y-16235008D02*
X7155539Y-16225484D01*
X7307920Y-16425484D02*
X7307920Y-16292150D01*
X7307920Y-16311198D02*
X7317443Y-16301674D01*
X7317443Y-16301674D02*
X7336491Y-16292150D01*
X7336491Y-16292150D02*
X7365063Y-16292150D01*
X7365063Y-16292150D02*
X7384110Y-16301674D01*
X7384110Y-16301674D02*
X7393634Y-16320722D01*
X7393634Y-16320722D02*
X7393634Y-16425484D01*
X7393634Y-16320722D02*
X7403158Y-16301674D01*
X7403158Y-16301674D02*
X7422205Y-16292150D01*
X7422205Y-16292150D02*
X7450777Y-16292150D01*
X7450777Y-16292150D02*
X7469824Y-16301674D01*
X7469824Y-16301674D02*
X7479348Y-16320722D01*
X7479348Y-16320722D02*
X7479348Y-16425484D01*
X7574586Y-16425484D02*
X7574586Y-16292150D01*
X7574586Y-16311198D02*
X7584110Y-16301674D01*
X7584110Y-16301674D02*
X7603158Y-16292150D01*
X7603158Y-16292150D02*
X7631729Y-16292150D01*
X7631729Y-16292150D02*
X7650777Y-16301674D01*
X7650777Y-16301674D02*
X7660301Y-16320722D01*
X7660301Y-16320722D02*
X7660301Y-16425484D01*
X7660301Y-16320722D02*
X7669824Y-16301674D01*
X7669824Y-16301674D02*
X7688872Y-16292150D01*
X7688872Y-16292150D02*
X7717443Y-16292150D01*
X7717443Y-16292150D02*
X7736491Y-16301674D01*
X7736491Y-16301674D02*
X7746015Y-16320722D01*
X7746015Y-16320722D02*
X7746015Y-16425484D01*
X8136491Y-16215960D02*
X7965063Y-16473103D01*
X8393634Y-16225484D02*
X8412682Y-16225484D01*
X8412682Y-16225484D02*
X8431729Y-16235008D01*
X8431729Y-16235008D02*
X8441253Y-16244531D01*
X8441253Y-16244531D02*
X8450777Y-16263579D01*
X8450777Y-16263579D02*
X8460301Y-16301674D01*
X8460301Y-16301674D02*
X8460301Y-16349293D01*
X8460301Y-16349293D02*
X8450777Y-16387388D01*
X8450777Y-16387388D02*
X8441253Y-16406436D01*
X8441253Y-16406436D02*
X8431729Y-16415960D01*
X8431729Y-16415960D02*
X8412682Y-16425484D01*
X8412682Y-16425484D02*
X8393634Y-16425484D01*
X8393634Y-16425484D02*
X8374586Y-16415960D01*
X8374586Y-16415960D02*
X8365063Y-16406436D01*
X8365063Y-16406436D02*
X8355539Y-16387388D01*
X8355539Y-16387388D02*
X8346015Y-16349293D01*
X8346015Y-16349293D02*
X8346015Y-16301674D01*
X8346015Y-16301674D02*
X8355539Y-16263579D01*
X8355539Y-16263579D02*
X8365063Y-16244531D01*
X8365063Y-16244531D02*
X8374586Y-16235008D01*
X8374586Y-16235008D02*
X8393634Y-16225484D01*
X8546015Y-16406436D02*
X8555539Y-16415960D01*
X8555539Y-16415960D02*
X8546015Y-16425484D01*
X8546015Y-16425484D02*
X8536491Y-16415960D01*
X8536491Y-16415960D02*
X8546015Y-16406436D01*
X8546015Y-16406436D02*
X8546015Y-16425484D01*
X8679348Y-16225484D02*
X8698396Y-16225484D01*
X8698396Y-16225484D02*
X8717444Y-16235008D01*
X8717444Y-16235008D02*
X8726968Y-16244531D01*
X8726968Y-16244531D02*
X8736491Y-16263579D01*
X8736491Y-16263579D02*
X8746015Y-16301674D01*
X8746015Y-16301674D02*
X8746015Y-16349293D01*
X8746015Y-16349293D02*
X8736491Y-16387388D01*
X8736491Y-16387388D02*
X8726968Y-16406436D01*
X8726968Y-16406436D02*
X8717444Y-16415960D01*
X8717444Y-16415960D02*
X8698396Y-16425484D01*
X8698396Y-16425484D02*
X8679348Y-16425484D01*
X8679348Y-16425484D02*
X8660301Y-16415960D01*
X8660301Y-16415960D02*
X8650777Y-16406436D01*
X8650777Y-16406436D02*
X8641253Y-16387388D01*
X8641253Y-16387388D02*
X8631729Y-16349293D01*
X8631729Y-16349293D02*
X8631729Y-16301674D01*
X8631729Y-16301674D02*
X8641253Y-16263579D01*
X8641253Y-16263579D02*
X8650777Y-16244531D01*
X8650777Y-16244531D02*
X8660301Y-16235008D01*
X8660301Y-16235008D02*
X8679348Y-16225484D01*
X8926968Y-16225484D02*
X8831729Y-16225484D01*
X8831729Y-16225484D02*
X8822206Y-16320722D01*
X8822206Y-16320722D02*
X8831729Y-16311198D01*
X8831729Y-16311198D02*
X8850777Y-16301674D01*
X8850777Y-16301674D02*
X8898396Y-16301674D01*
X8898396Y-16301674D02*
X8917444Y-16311198D01*
X8917444Y-16311198D02*
X8926968Y-16320722D01*
X8926968Y-16320722D02*
X8936491Y-16339769D01*
X8936491Y-16339769D02*
X8936491Y-16387388D01*
X8936491Y-16387388D02*
X8926968Y-16406436D01*
X8926968Y-16406436D02*
X8917444Y-16415960D01*
X8917444Y-16415960D02*
X8898396Y-16425484D01*
X8898396Y-16425484D02*
X8850777Y-16425484D01*
X8850777Y-16425484D02*
X8831729Y-16415960D01*
X8831729Y-16415960D02*
X8822206Y-16406436D01*
X9031729Y-16425484D02*
X9069825Y-16425484D01*
X9069825Y-16425484D02*
X9088872Y-16415960D01*
X9088872Y-16415960D02*
X9098396Y-16406436D01*
X9098396Y-16406436D02*
X9117444Y-16377865D01*
X9117444Y-16377865D02*
X9126968Y-16339769D01*
X9126968Y-16339769D02*
X9126968Y-16263579D01*
X9126968Y-16263579D02*
X9117444Y-16244531D01*
X9117444Y-16244531D02*
X9107920Y-16235008D01*
X9107920Y-16235008D02*
X9088872Y-16225484D01*
X9088872Y-16225484D02*
X9050777Y-16225484D01*
X9050777Y-16225484D02*
X9031729Y-16235008D01*
X9031729Y-16235008D02*
X9022206Y-16244531D01*
X9022206Y-16244531D02*
X9012682Y-16263579D01*
X9012682Y-16263579D02*
X9012682Y-16311198D01*
X9012682Y-16311198D02*
X9022206Y-16330246D01*
X9022206Y-16330246D02*
X9031729Y-16339769D01*
X9031729Y-16339769D02*
X9050777Y-16349293D01*
X9050777Y-16349293D02*
X9088872Y-16349293D01*
X9088872Y-16349293D02*
X9107920Y-16339769D01*
X9107920Y-16339769D02*
X9117444Y-16330246D01*
X9117444Y-16330246D02*
X9126968Y-16311198D01*
X9317444Y-16425484D02*
X9203158Y-16425484D01*
X9260301Y-16425484D02*
X9260301Y-16225484D01*
X9260301Y-16225484D02*
X9241253Y-16254055D01*
X9241253Y-16254055D02*
X9222206Y-16273103D01*
X9222206Y-16273103D02*
X9203158Y-16282627D01*
X9393634Y-16225484D02*
X9393634Y-16263579D01*
X9469825Y-16225484D02*
X9469825Y-16263579D01*
X9765063Y-16501674D02*
X9755539Y-16492150D01*
X9755539Y-16492150D02*
X9736491Y-16463579D01*
X9736491Y-16463579D02*
X9726968Y-16444531D01*
X9726968Y-16444531D02*
X9717444Y-16415960D01*
X9717444Y-16415960D02*
X9707920Y-16368341D01*
X9707920Y-16368341D02*
X9707920Y-16330246D01*
X9707920Y-16330246D02*
X9717444Y-16282627D01*
X9717444Y-16282627D02*
X9726968Y-16254055D01*
X9726968Y-16254055D02*
X9736491Y-16235008D01*
X9736491Y-16235008D02*
X9755539Y-16206436D01*
X9755539Y-16206436D02*
X9765063Y-16196912D01*
X9946015Y-16425484D02*
X9831730Y-16425484D01*
X9888872Y-16425484D02*
X9888872Y-16225484D01*
X9888872Y-16225484D02*
X9869825Y-16254055D01*
X9869825Y-16254055D02*
X9850777Y-16273103D01*
X9850777Y-16273103D02*
X9831730Y-16282627D01*
X10184111Y-16425484D02*
X10184111Y-16225484D01*
X10269825Y-16425484D02*
X10269825Y-16320722D01*
X10269825Y-16320722D02*
X10260301Y-16301674D01*
X10260301Y-16301674D02*
X10241253Y-16292150D01*
X10241253Y-16292150D02*
X10212682Y-16292150D01*
X10212682Y-16292150D02*
X10193634Y-16301674D01*
X10193634Y-16301674D02*
X10184111Y-16311198D01*
X10393634Y-16425484D02*
X10374587Y-16415960D01*
X10374587Y-16415960D02*
X10365063Y-16406436D01*
X10365063Y-16406436D02*
X10355539Y-16387388D01*
X10355539Y-16387388D02*
X10355539Y-16330246D01*
X10355539Y-16330246D02*
X10365063Y-16311198D01*
X10365063Y-16311198D02*
X10374587Y-16301674D01*
X10374587Y-16301674D02*
X10393634Y-16292150D01*
X10393634Y-16292150D02*
X10422206Y-16292150D01*
X10422206Y-16292150D02*
X10441253Y-16301674D01*
X10441253Y-16301674D02*
X10450777Y-16311198D01*
X10450777Y-16311198D02*
X10460301Y-16330246D01*
X10460301Y-16330246D02*
X10460301Y-16387388D01*
X10460301Y-16387388D02*
X10450777Y-16406436D01*
X10450777Y-16406436D02*
X10441253Y-16415960D01*
X10441253Y-16415960D02*
X10422206Y-16425484D01*
X10422206Y-16425484D02*
X10393634Y-16425484D01*
X10574587Y-16425484D02*
X10555539Y-16415960D01*
X10555539Y-16415960D02*
X10546015Y-16396912D01*
X10546015Y-16396912D02*
X10546015Y-16225484D01*
X10726968Y-16415960D02*
X10707920Y-16425484D01*
X10707920Y-16425484D02*
X10669825Y-16425484D01*
X10669825Y-16425484D02*
X10650777Y-16415960D01*
X10650777Y-16415960D02*
X10641253Y-16396912D01*
X10641253Y-16396912D02*
X10641253Y-16320722D01*
X10641253Y-16320722D02*
X10650777Y-16301674D01*
X10650777Y-16301674D02*
X10669825Y-16292150D01*
X10669825Y-16292150D02*
X10707920Y-16292150D01*
X10707920Y-16292150D02*
X10726968Y-16301674D01*
X10726968Y-16301674D02*
X10736492Y-16320722D01*
X10736492Y-16320722D02*
X10736492Y-16339769D01*
X10736492Y-16339769D02*
X10641253Y-16358817D01*
X10803158Y-16501674D02*
X10812682Y-16492150D01*
X10812682Y-16492150D02*
X10831730Y-16463579D01*
X10831730Y-16463579D02*
X10841253Y-16444531D01*
X10841253Y-16444531D02*
X10850777Y-16415960D01*
X10850777Y-16415960D02*
X10860301Y-16368341D01*
X10860301Y-16368341D02*
X10860301Y-16330246D01*
X10860301Y-16330246D02*
X10850777Y-16282627D01*
X10850777Y-16282627D02*
X10841253Y-16254055D01*
X10841253Y-16254055D02*
X10831730Y-16235008D01*
X10831730Y-16235008D02*
X10812682Y-16206436D01*
X10812682Y-16206436D02*
X10803158Y-16196912D01*
D14*
X6030000Y-16524000D02*
X6190000Y-16684000D01*
X6190000Y-16524000D02*
X6030000Y-16684000D01*
X6166569Y-16660569D02*
X6166569Y-16547431D01*
X6053431Y-16547431D01*
X6053431Y-16660569D01*
X6166569Y-16660569D01*
D10*
X6555539Y-16695484D02*
X6441253Y-16695484D01*
X6498396Y-16695484D02*
X6498396Y-16495484D01*
X6498396Y-16495484D02*
X6479348Y-16524055D01*
X6479348Y-16524055D02*
X6460301Y-16543103D01*
X6460301Y-16543103D02*
X6441253Y-16552627D01*
X6641253Y-16676436D02*
X6650777Y-16685960D01*
X6650777Y-16685960D02*
X6641253Y-16695484D01*
X6641253Y-16695484D02*
X6631729Y-16685960D01*
X6631729Y-16685960D02*
X6641253Y-16676436D01*
X6641253Y-16676436D02*
X6641253Y-16695484D01*
X6822205Y-16495484D02*
X6784110Y-16495484D01*
X6784110Y-16495484D02*
X6765062Y-16505008D01*
X6765062Y-16505008D02*
X6755539Y-16514531D01*
X6755539Y-16514531D02*
X6736491Y-16543103D01*
X6736491Y-16543103D02*
X6726967Y-16581198D01*
X6726967Y-16581198D02*
X6726967Y-16657388D01*
X6726967Y-16657388D02*
X6736491Y-16676436D01*
X6736491Y-16676436D02*
X6746015Y-16685960D01*
X6746015Y-16685960D02*
X6765062Y-16695484D01*
X6765062Y-16695484D02*
X6803158Y-16695484D01*
X6803158Y-16695484D02*
X6822205Y-16685960D01*
X6822205Y-16685960D02*
X6831729Y-16676436D01*
X6831729Y-16676436D02*
X6841253Y-16657388D01*
X6841253Y-16657388D02*
X6841253Y-16609769D01*
X6841253Y-16609769D02*
X6831729Y-16590722D01*
X6831729Y-16590722D02*
X6822205Y-16581198D01*
X6822205Y-16581198D02*
X6803158Y-16571674D01*
X6803158Y-16571674D02*
X6765062Y-16571674D01*
X6765062Y-16571674D02*
X6746015Y-16581198D01*
X6746015Y-16581198D02*
X6736491Y-16590722D01*
X6736491Y-16590722D02*
X6726967Y-16609769D01*
X6965062Y-16495484D02*
X6984110Y-16495484D01*
X6984110Y-16495484D02*
X7003158Y-16505008D01*
X7003158Y-16505008D02*
X7012682Y-16514531D01*
X7012682Y-16514531D02*
X7022205Y-16533579D01*
X7022205Y-16533579D02*
X7031729Y-16571674D01*
X7031729Y-16571674D02*
X7031729Y-16619293D01*
X7031729Y-16619293D02*
X7022205Y-16657388D01*
X7022205Y-16657388D02*
X7012682Y-16676436D01*
X7012682Y-16676436D02*
X7003158Y-16685960D01*
X7003158Y-16685960D02*
X6984110Y-16695484D01*
X6984110Y-16695484D02*
X6965062Y-16695484D01*
X6965062Y-16695484D02*
X6946015Y-16685960D01*
X6946015Y-16685960D02*
X6936491Y-16676436D01*
X6936491Y-16676436D02*
X6926967Y-16657388D01*
X6926967Y-16657388D02*
X6917443Y-16619293D01*
X6917443Y-16619293D02*
X6917443Y-16571674D01*
X6917443Y-16571674D02*
X6926967Y-16533579D01*
X6926967Y-16533579D02*
X6936491Y-16514531D01*
X6936491Y-16514531D02*
X6946015Y-16505008D01*
X6946015Y-16505008D02*
X6965062Y-16495484D01*
X7155539Y-16495484D02*
X7174586Y-16495484D01*
X7174586Y-16495484D02*
X7193634Y-16505008D01*
X7193634Y-16505008D02*
X7203158Y-16514531D01*
X7203158Y-16514531D02*
X7212682Y-16533579D01*
X7212682Y-16533579D02*
X7222205Y-16571674D01*
X7222205Y-16571674D02*
X7222205Y-16619293D01*
X7222205Y-16619293D02*
X7212682Y-16657388D01*
X7212682Y-16657388D02*
X7203158Y-16676436D01*
X7203158Y-16676436D02*
X7193634Y-16685960D01*
X7193634Y-16685960D02*
X7174586Y-16695484D01*
X7174586Y-16695484D02*
X7155539Y-16695484D01*
X7155539Y-16695484D02*
X7136491Y-16685960D01*
X7136491Y-16685960D02*
X7126967Y-16676436D01*
X7126967Y-16676436D02*
X7117443Y-16657388D01*
X7117443Y-16657388D02*
X7107920Y-16619293D01*
X7107920Y-16619293D02*
X7107920Y-16571674D01*
X7107920Y-16571674D02*
X7117443Y-16533579D01*
X7117443Y-16533579D02*
X7126967Y-16514531D01*
X7126967Y-16514531D02*
X7136491Y-16505008D01*
X7136491Y-16505008D02*
X7155539Y-16495484D01*
X7307920Y-16695484D02*
X7307920Y-16562150D01*
X7307920Y-16581198D02*
X7317443Y-16571674D01*
X7317443Y-16571674D02*
X7336491Y-16562150D01*
X7336491Y-16562150D02*
X7365063Y-16562150D01*
X7365063Y-16562150D02*
X7384110Y-16571674D01*
X7384110Y-16571674D02*
X7393634Y-16590722D01*
X7393634Y-16590722D02*
X7393634Y-16695484D01*
X7393634Y-16590722D02*
X7403158Y-16571674D01*
X7403158Y-16571674D02*
X7422205Y-16562150D01*
X7422205Y-16562150D02*
X7450777Y-16562150D01*
X7450777Y-16562150D02*
X7469824Y-16571674D01*
X7469824Y-16571674D02*
X7479348Y-16590722D01*
X7479348Y-16590722D02*
X7479348Y-16695484D01*
X7574586Y-16695484D02*
X7574586Y-16562150D01*
X7574586Y-16581198D02*
X7584110Y-16571674D01*
X7584110Y-16571674D02*
X7603158Y-16562150D01*
X7603158Y-16562150D02*
X7631729Y-16562150D01*
X7631729Y-16562150D02*
X7650777Y-16571674D01*
X7650777Y-16571674D02*
X7660301Y-16590722D01*
X7660301Y-16590722D02*
X7660301Y-16695484D01*
X7660301Y-16590722D02*
X7669824Y-16571674D01*
X7669824Y-16571674D02*
X7688872Y-16562150D01*
X7688872Y-16562150D02*
X7717443Y-16562150D01*
X7717443Y-16562150D02*
X7736491Y-16571674D01*
X7736491Y-16571674D02*
X7746015Y-16590722D01*
X7746015Y-16590722D02*
X7746015Y-16695484D01*
X8136491Y-16485960D02*
X7965063Y-16743103D01*
X8393634Y-16495484D02*
X8412682Y-16495484D01*
X8412682Y-16495484D02*
X8431729Y-16505008D01*
X8431729Y-16505008D02*
X8441253Y-16514531D01*
X8441253Y-16514531D02*
X8450777Y-16533579D01*
X8450777Y-16533579D02*
X8460301Y-16571674D01*
X8460301Y-16571674D02*
X8460301Y-16619293D01*
X8460301Y-16619293D02*
X8450777Y-16657388D01*
X8450777Y-16657388D02*
X8441253Y-16676436D01*
X8441253Y-16676436D02*
X8431729Y-16685960D01*
X8431729Y-16685960D02*
X8412682Y-16695484D01*
X8412682Y-16695484D02*
X8393634Y-16695484D01*
X8393634Y-16695484D02*
X8374586Y-16685960D01*
X8374586Y-16685960D02*
X8365063Y-16676436D01*
X8365063Y-16676436D02*
X8355539Y-16657388D01*
X8355539Y-16657388D02*
X8346015Y-16619293D01*
X8346015Y-16619293D02*
X8346015Y-16571674D01*
X8346015Y-16571674D02*
X8355539Y-16533579D01*
X8355539Y-16533579D02*
X8365063Y-16514531D01*
X8365063Y-16514531D02*
X8374586Y-16505008D01*
X8374586Y-16505008D02*
X8393634Y-16495484D01*
X8546015Y-16676436D02*
X8555539Y-16685960D01*
X8555539Y-16685960D02*
X8546015Y-16695484D01*
X8546015Y-16695484D02*
X8536491Y-16685960D01*
X8536491Y-16685960D02*
X8546015Y-16676436D01*
X8546015Y-16676436D02*
X8546015Y-16695484D01*
X8679348Y-16495484D02*
X8698396Y-16495484D01*
X8698396Y-16495484D02*
X8717444Y-16505008D01*
X8717444Y-16505008D02*
X8726968Y-16514531D01*
X8726968Y-16514531D02*
X8736491Y-16533579D01*
X8736491Y-16533579D02*
X8746015Y-16571674D01*
X8746015Y-16571674D02*
X8746015Y-16619293D01*
X8746015Y-16619293D02*
X8736491Y-16657388D01*
X8736491Y-16657388D02*
X8726968Y-16676436D01*
X8726968Y-16676436D02*
X8717444Y-16685960D01*
X8717444Y-16685960D02*
X8698396Y-16695484D01*
X8698396Y-16695484D02*
X8679348Y-16695484D01*
X8679348Y-16695484D02*
X8660301Y-16685960D01*
X8660301Y-16685960D02*
X8650777Y-16676436D01*
X8650777Y-16676436D02*
X8641253Y-16657388D01*
X8641253Y-16657388D02*
X8631729Y-16619293D01*
X8631729Y-16619293D02*
X8631729Y-16571674D01*
X8631729Y-16571674D02*
X8641253Y-16533579D01*
X8641253Y-16533579D02*
X8650777Y-16514531D01*
X8650777Y-16514531D02*
X8660301Y-16505008D01*
X8660301Y-16505008D02*
X8679348Y-16495484D01*
X8917444Y-16495484D02*
X8879348Y-16495484D01*
X8879348Y-16495484D02*
X8860301Y-16505008D01*
X8860301Y-16505008D02*
X8850777Y-16514531D01*
X8850777Y-16514531D02*
X8831729Y-16543103D01*
X8831729Y-16543103D02*
X8822206Y-16581198D01*
X8822206Y-16581198D02*
X8822206Y-16657388D01*
X8822206Y-16657388D02*
X8831729Y-16676436D01*
X8831729Y-16676436D02*
X8841253Y-16685960D01*
X8841253Y-16685960D02*
X8860301Y-16695484D01*
X8860301Y-16695484D02*
X8898396Y-16695484D01*
X8898396Y-16695484D02*
X8917444Y-16685960D01*
X8917444Y-16685960D02*
X8926968Y-16676436D01*
X8926968Y-16676436D02*
X8936491Y-16657388D01*
X8936491Y-16657388D02*
X8936491Y-16609769D01*
X8936491Y-16609769D02*
X8926968Y-16590722D01*
X8926968Y-16590722D02*
X8917444Y-16581198D01*
X8917444Y-16581198D02*
X8898396Y-16571674D01*
X8898396Y-16571674D02*
X8860301Y-16571674D01*
X8860301Y-16571674D02*
X8841253Y-16581198D01*
X8841253Y-16581198D02*
X8831729Y-16590722D01*
X8831729Y-16590722D02*
X8822206Y-16609769D01*
X9003158Y-16495484D02*
X9126968Y-16495484D01*
X9126968Y-16495484D02*
X9060301Y-16571674D01*
X9060301Y-16571674D02*
X9088872Y-16571674D01*
X9088872Y-16571674D02*
X9107920Y-16581198D01*
X9107920Y-16581198D02*
X9117444Y-16590722D01*
X9117444Y-16590722D02*
X9126968Y-16609769D01*
X9126968Y-16609769D02*
X9126968Y-16657388D01*
X9126968Y-16657388D02*
X9117444Y-16676436D01*
X9117444Y-16676436D02*
X9107920Y-16685960D01*
X9107920Y-16685960D02*
X9088872Y-16695484D01*
X9088872Y-16695484D02*
X9031729Y-16695484D01*
X9031729Y-16695484D02*
X9012682Y-16685960D01*
X9012682Y-16685960D02*
X9003158Y-16676436D01*
X9250777Y-16495484D02*
X9269825Y-16495484D01*
X9269825Y-16495484D02*
X9288872Y-16505008D01*
X9288872Y-16505008D02*
X9298396Y-16514531D01*
X9298396Y-16514531D02*
X9307920Y-16533579D01*
X9307920Y-16533579D02*
X9317444Y-16571674D01*
X9317444Y-16571674D02*
X9317444Y-16619293D01*
X9317444Y-16619293D02*
X9307920Y-16657388D01*
X9307920Y-16657388D02*
X9298396Y-16676436D01*
X9298396Y-16676436D02*
X9288872Y-16685960D01*
X9288872Y-16685960D02*
X9269825Y-16695484D01*
X9269825Y-16695484D02*
X9250777Y-16695484D01*
X9250777Y-16695484D02*
X9231729Y-16685960D01*
X9231729Y-16685960D02*
X9222206Y-16676436D01*
X9222206Y-16676436D02*
X9212682Y-16657388D01*
X9212682Y-16657388D02*
X9203158Y-16619293D01*
X9203158Y-16619293D02*
X9203158Y-16571674D01*
X9203158Y-16571674D02*
X9212682Y-16533579D01*
X9212682Y-16533579D02*
X9222206Y-16514531D01*
X9222206Y-16514531D02*
X9231729Y-16505008D01*
X9231729Y-16505008D02*
X9250777Y-16495484D01*
X9393634Y-16495484D02*
X9393634Y-16533579D01*
X9469825Y-16495484D02*
X9469825Y-16533579D01*
X9765063Y-16771674D02*
X9755539Y-16762150D01*
X9755539Y-16762150D02*
X9736491Y-16733579D01*
X9736491Y-16733579D02*
X9726968Y-16714531D01*
X9726968Y-16714531D02*
X9717444Y-16685960D01*
X9717444Y-16685960D02*
X9707920Y-16638341D01*
X9707920Y-16638341D02*
X9707920Y-16600246D01*
X9707920Y-16600246D02*
X9717444Y-16552627D01*
X9717444Y-16552627D02*
X9726968Y-16524055D01*
X9726968Y-16524055D02*
X9736491Y-16505008D01*
X9736491Y-16505008D02*
X9755539Y-16476436D01*
X9755539Y-16476436D02*
X9765063Y-16466912D01*
X9926968Y-16562150D02*
X9926968Y-16695484D01*
X9879349Y-16485960D02*
X9831730Y-16628817D01*
X9831730Y-16628817D02*
X9955539Y-16628817D01*
X10184111Y-16695484D02*
X10184111Y-16495484D01*
X10269825Y-16695484D02*
X10269825Y-16590722D01*
X10269825Y-16590722D02*
X10260301Y-16571674D01*
X10260301Y-16571674D02*
X10241253Y-16562150D01*
X10241253Y-16562150D02*
X10212682Y-16562150D01*
X10212682Y-16562150D02*
X10193634Y-16571674D01*
X10193634Y-16571674D02*
X10184111Y-16581198D01*
X10393634Y-16695484D02*
X10374587Y-16685960D01*
X10374587Y-16685960D02*
X10365063Y-16676436D01*
X10365063Y-16676436D02*
X10355539Y-16657388D01*
X10355539Y-16657388D02*
X10355539Y-16600246D01*
X10355539Y-16600246D02*
X10365063Y-16581198D01*
X10365063Y-16581198D02*
X10374587Y-16571674D01*
X10374587Y-16571674D02*
X10393634Y-16562150D01*
X10393634Y-16562150D02*
X10422206Y-16562150D01*
X10422206Y-16562150D02*
X10441253Y-16571674D01*
X10441253Y-16571674D02*
X10450777Y-16581198D01*
X10450777Y-16581198D02*
X10460301Y-16600246D01*
X10460301Y-16600246D02*
X10460301Y-16657388D01*
X10460301Y-16657388D02*
X10450777Y-16676436D01*
X10450777Y-16676436D02*
X10441253Y-16685960D01*
X10441253Y-16685960D02*
X10422206Y-16695484D01*
X10422206Y-16695484D02*
X10393634Y-16695484D01*
X10574587Y-16695484D02*
X10555539Y-16685960D01*
X10555539Y-16685960D02*
X10546015Y-16666912D01*
X10546015Y-16666912D02*
X10546015Y-16495484D01*
X10726968Y-16685960D02*
X10707920Y-16695484D01*
X10707920Y-16695484D02*
X10669825Y-16695484D01*
X10669825Y-16695484D02*
X10650777Y-16685960D01*
X10650777Y-16685960D02*
X10641253Y-16666912D01*
X10641253Y-16666912D02*
X10641253Y-16590722D01*
X10641253Y-16590722D02*
X10650777Y-16571674D01*
X10650777Y-16571674D02*
X10669825Y-16562150D01*
X10669825Y-16562150D02*
X10707920Y-16562150D01*
X10707920Y-16562150D02*
X10726968Y-16571674D01*
X10726968Y-16571674D02*
X10736492Y-16590722D01*
X10736492Y-16590722D02*
X10736492Y-16609769D01*
X10736492Y-16609769D02*
X10641253Y-16628817D01*
X10812682Y-16685960D02*
X10831730Y-16695484D01*
X10831730Y-16695484D02*
X10869825Y-16695484D01*
X10869825Y-16695484D02*
X10888873Y-16685960D01*
X10888873Y-16685960D02*
X10898396Y-16666912D01*
X10898396Y-16666912D02*
X10898396Y-16657388D01*
X10898396Y-16657388D02*
X10888873Y-16638341D01*
X10888873Y-16638341D02*
X10869825Y-16628817D01*
X10869825Y-16628817D02*
X10841253Y-16628817D01*
X10841253Y-16628817D02*
X10822206Y-16619293D01*
X10822206Y-16619293D02*
X10812682Y-16600246D01*
X10812682Y-16600246D02*
X10812682Y-16590722D01*
X10812682Y-16590722D02*
X10822206Y-16571674D01*
X10822206Y-16571674D02*
X10841253Y-16562150D01*
X10841253Y-16562150D02*
X10869825Y-16562150D01*
X10869825Y-16562150D02*
X10888873Y-16571674D01*
X10965063Y-16771674D02*
X10974587Y-16762150D01*
X10974587Y-16762150D02*
X10993634Y-16733579D01*
X10993634Y-16733579D02*
X11003158Y-16714531D01*
X11003158Y-16714531D02*
X11012682Y-16685960D01*
X11012682Y-16685960D02*
X11022206Y-16638341D01*
X11022206Y-16638341D02*
X11022206Y-16600246D01*
X11022206Y-16600246D02*
X11012682Y-16552627D01*
X11012682Y-16552627D02*
X11003158Y-16524055D01*
X11003158Y-16524055D02*
X10993634Y-16505008D01*
X10993634Y-16505008D02*
X10974587Y-16476436D01*
X10974587Y-16476436D02*
X10965063Y-16466912D01*
M02*
