M48
; DRILL file {KiCad 8.0.2-8.0.2-0~ubuntu20.04.1} date 2024-05-16T16:26:23-0700
; FORMAT={-:-/ absolute / metric / decimal}
; #@! TF.CreationDate,2024-05-16T16:26:23-07:00
; #@! TF.GenerationSoftware,Kicad,Pcbnew,8.0.2-8.0.2-0~ubuntu20.04.1
; #@! TF.FileFunction,Plated,1,2,PTH
FMAT,2
METRIC
; #@! TA.AperFunction,Plated,PTH,ViaDrill
T1C0.300
; #@! TA.AperFunction,Plated,PTH,ComponentDrill
T2C0.600
; #@! TA.AperFunction,Plated,PTH,ComponentDrill
T3C0.700
; #@! TA.AperFunction,Plated,PTH,ComponentDrill
T4C0.800
; #@! TA.AperFunction,Plated,PTH,ComponentDrill
T5C1.000
; #@! TA.AperFunction,Plated,PTH,ComponentDrill
T6C1.100
; #@! TA.AperFunction,Plated,PTH,ComponentDrill
T7C1.500
; #@! TA.AperFunction,Plated,PTH,ComponentDrill
T8C1.600
%
G90
G05
T1
X71.0Y-99.25
X73.48Y-101.5
X74.1Y-99.0
X74.234Y-104.266
X74.98Y-102.75
X75.2Y-115.6
X75.8Y-114.8
X76.18Y-103.029
X80.024Y-105.15
X80.4Y-111.8
X80.8Y-104.2
X81.0Y-109.25
X82.45Y-111.2
X82.6Y-103.4
X82.8Y-100.2
X83.25Y-104.0
X84.4Y-110.0
X84.8Y-104.6
X85.919Y-105.2
X90.2Y-108.8
X90.8Y-100.2
X92.4Y-44.4
X94.2Y-105.2
X94.4Y-135.0
X95.0Y-104.6
X97.2Y-98.8
X98.501Y-105.2
X100.4Y-127.2
X100.5Y-63.5
X101.8Y-109.0
X105.0Y-54.0
X105.5Y-97.5
X106.2Y-100.8
X106.5Y-50.0
X107.25Y-110.0
X108.0Y-53.75
X108.0Y-106.0
X108.4Y-99.6
X109.4Y-104.6
X109.75Y-53.75
X110.412Y-98.444
X111.25Y-50.0
X111.4Y-104.6
X116.75Y-134.5
X119.0Y-134.5
X121.25Y-134.5
X123.5Y-134.5
X124.5Y-128.0
X125.25Y-128.75
X125.75Y-134.5
X127.75Y-134.5
X128.75Y-51.25
X128.75Y-53.75
X129.25Y-42.75
X130.0Y-54.75
X131.2Y-43.6
X131.2Y-58.6
X131.75Y-82.0
X133.424Y-112.924
X133.75Y-108.75
X134.75Y-131.5
X135.0Y-102.25
X135.0Y-119.0
X135.75Y-125.0
X136.75Y-134.25
X137.499Y-116.067
X137.75Y-112.0
X137.75Y-69.75
X138.0Y-95.6
X138.687Y-111.911
X138.824Y-107.956
X138.891Y-107.041
X139.6Y-108.15
X139.72Y-106.55
X139.75Y-112.4
X140.325Y-105.75
X140.5Y-108.15
X140.5Y-113.0
X142.25Y-66.5
X143.5Y-109.4
X144.0Y-121.2
X144.5Y-61.0
X144.5Y-69.0
X144.751Y-109.8
X145.5Y-109.5
X146.4Y-109.4
X146.5Y-124.346
X147.444Y-127.481
X147.6Y-120.2
X148.096Y-124.5
X148.25Y-105.25
X148.4Y-95.5
X148.424Y-128.424
X148.75Y-106.0
X149.0Y-109.0
X149.0Y-116.25
X149.6Y-115.5
X149.75Y-108.5
X150.0Y-61.75
X150.5Y-62.75
X150.674Y-109.0
X151.0Y-50.75
X151.0Y-55.25
X151.1Y-125.5
X152.4Y-120.4
X152.692Y-104.25
X152.75Y-107.5
X152.8Y-100.0
X152.9Y-122.75
X153.25Y-59.25
X153.25Y-112.0
X153.5Y-139.25
X153.67Y-50.67
X153.75Y-102.0
X153.945Y-103.88
X154.0Y-124.25
X154.25Y-105.75
X154.25Y-116.75
X154.593Y-51.207
X154.654Y-122.75
X155.0Y-116.25
X155.25Y-120.5
X155.904Y-103.038
X155.908Y-123.092
X156.0Y-98.75
X156.25Y-108.0
X156.25Y-116.0
X156.414Y-112.476
X156.441Y-101.346
X158.0Y-108.8
X158.6Y-120.4
X160.0Y-139.25
T3
X149.92Y-94.23
X149.92Y-95.5
X151.19Y-94.23
X151.19Y-95.5
X152.46Y-94.23
X152.46Y-95.5
X153.73Y-94.23
X153.73Y-95.5
X155.0Y-94.23
X155.0Y-95.5
T4
X65.42Y-65.5
X65.42Y-70.5
X65.42Y-76.5
X65.42Y-81.5
X72.42Y-60.5
X75.58Y-65.5
X75.58Y-70.5
X75.58Y-76.5
X75.58Y-81.5
X79.0Y-117.32
X79.0Y-127.48
X80.23Y-81.5
X80.42Y-65.5
X80.42Y-70.5
X80.42Y-76.5
X82.58Y-60.5
X83.8Y-117.32
X83.8Y-127.48
X90.39Y-81.5
X90.58Y-65.5
X90.58Y-70.5
X90.58Y-76.5
X104.25Y-63.45
X104.25Y-73.0
X107.75Y-63.45
X107.75Y-73.0
T5
X66.5Y-106.225
X66.5Y-108.765
X66.5Y-115.235
X66.5Y-117.775
X67.725Y-129.0
X67.725Y-134.25
X70.265Y-129.0
X70.265Y-134.25
X72.805Y-129.0
X72.805Y-134.25
X93.0Y-93.0
X97.0Y-115.0
X100.0Y-93.0
X102.54Y-93.0
X105.08Y-93.0
X106.0Y-126.8
X106.0Y-136.2
X108.0Y-82.0
X111.0Y-93.0
X111.735Y-119.2
X114.275Y-119.2
X115.3Y-137.0
X117.84Y-137.0
X119.0Y-86.46
X119.0Y-89.0
X119.0Y-91.54
X120.38Y-137.0
X122.92Y-137.0
X125.46Y-137.0
X126.0Y-71.925
X126.0Y-74.465
X126.25Y-46.42
X126.25Y-48.96
X126.25Y-51.5
X126.25Y-54.04
X127.735Y-86.75
X128.0Y-137.0
X130.275Y-86.75
X133.975Y-137.5
X136.515Y-137.5
X139.055Y-137.5
X143.975Y-137.5
X146.515Y-137.5
X147.125Y-101.8
X149.055Y-137.5
X149.665Y-101.8
X157.5Y-44.3
X157.5Y-46.84
X157.5Y-49.38
X157.5Y-51.92
X157.5Y-54.46
X157.5Y-57.0
X159.0Y-99.92
X159.0Y-102.46
X159.0Y-105.0
X159.25Y-123.13
X159.25Y-125.67
X159.25Y-128.21
X159.25Y-130.75
T6
X89.0Y-47.42
X89.0Y-49.96
X89.0Y-52.5
T7
X154.5Y-67.25
T8
X151.96Y-64.71
X151.96Y-69.79
X157.04Y-64.71
X157.04Y-69.79
T2
X104.68Y-43.985G85X104.68Y-43.185
G05
X104.68Y-48.315G85X104.68Y-47.215
G05
X113.32Y-43.985G85X113.32Y-43.185
G05
X113.32Y-48.315G85X113.32Y-47.215
G05
M30
