G04 #@! TF.GenerationSoftware,KiCad,Pcbnew,8.0.2-8.0.2-0~ubuntu20.04.1*
G04 #@! TF.CreationDate,2024-05-16T16:26:20-07:00*
G04 #@! TF.ProjectId,cpm_proj,63706d5f-7072-46f6-9a2e-6b696361645f,rev?*
G04 #@! TF.SameCoordinates,Original*
G04 #@! TF.FileFunction,Soldermask,Top*
G04 #@! TF.FilePolarity,Negative*
%FSLAX46Y46*%
G04 Gerber Fmt 4.6, Leading zero omitted, Abs format (unit mm)*
G04 Created by KiCad (PCBNEW 8.0.2-8.0.2-0~ubuntu20.04.1) date 2024-05-16 16:26:20*
%MOMM*%
%LPD*%
G01*
G04 APERTURE LIST*
G04 Aperture macros list*
%AMRoundRect*
0 Rectangle with rounded corners*
0 $1 Rounding radius*
0 $2 $3 $4 $5 $6 $7 $8 $9 X,Y pos of 4 corners*
0 Add a 4 corners polygon primitive as box body*
4,1,4,$2,$3,$4,$5,$6,$7,$8,$9,$2,$3,0*
0 Add four circle primitives for the rounded corners*
1,1,$1+$1,$2,$3*
1,1,$1+$1,$4,$5*
1,1,$1+$1,$6,$7*
1,1,$1+$1,$8,$9*
0 Add four rect primitives between the rounded corners*
20,1,$1+$1,$2,$3,$4,$5,0*
20,1,$1+$1,$4,$5,$6,$7,0*
20,1,$1+$1,$6,$7,$8,$9,0*
20,1,$1+$1,$8,$9,$2,$3,0*%
%AMFreePoly0*
4,1,19,0.000000,0.744911,0.071157,0.744911,0.207708,0.704816,0.327430,0.627875,0.420627,0.520320,0.479746,0.390866,0.500000,0.250000,0.500000,-0.250000,0.479746,-0.390866,0.420627,-0.520320,0.327430,-0.627875,0.207708,-0.704816,0.071157,-0.744911,0.000000,-0.744911,0.000000,-0.750000,-0.500000,-0.750000,-0.500000,0.750000,0.000000,0.750000,0.000000,0.744911,0.000000,0.744911,
$1*%
%AMFreePoly1*
4,1,19,0.500000,-0.750000,0.000000,-0.750000,0.000000,-0.744911,-0.071157,-0.744911,-0.207708,-0.704816,-0.327430,-0.627875,-0.420627,-0.520320,-0.479746,-0.390866,-0.500000,-0.250000,-0.500000,0.250000,-0.479746,0.390866,-0.420627,0.520320,-0.327430,0.627875,-0.207708,0.704816,-0.071157,0.744911,0.000000,0.744911,0.000000,0.750000,0.500000,0.750000,0.500000,-0.750000,0.500000,-0.750000,
$1*%
%AMFreePoly2*
4,1,18,1.539298,1.666124,1.284085,1.499472,1.010804,1.275196,0.786528,1.001915,0.619876,0.690131,0.517252,0.351826,0.536000,0.000000,0.517252,-0.351826,0.619876,-0.690131,0.786528,-1.001915,1.010804,-1.275196,1.284085,-1.499472,1.539298,-1.666124,1.539298,-2.654300,-0.467302,-2.654300,-0.467302,2.654300,1.539298,2.654300,1.539298,1.666124,1.539298,1.666124,$1*%
%AMFreePoly3*
4,1,18,0.467302,-2.654300,-1.539298,-2.654300,-1.539298,-1.666124,-1.284085,-1.499472,-1.010804,-1.275196,-0.786528,-1.001915,-0.619876,-0.690131,-0.517252,-0.351826,-0.536000,0.000000,-0.517252,0.351826,-0.619876,0.690131,-0.786528,1.001915,-1.010804,1.275196,-1.284085,1.499472,-1.539298,1.666124,-1.539298,2.654300,0.467302,2.654300,0.467302,-2.654300,0.467302,-2.654300,$1*%
G04 Aperture macros list end*
%ADD10C,0.150000*%
%ADD11RoundRect,0.237500X-0.250000X-0.237500X0.250000X-0.237500X0.250000X0.237500X-0.250000X0.237500X0*%
%ADD12FreePoly0,0.000000*%
%ADD13FreePoly1,0.000000*%
%ADD14RoundRect,0.237500X0.237500X-0.300000X0.237500X0.300000X-0.237500X0.300000X-0.237500X-0.300000X0*%
%ADD15R,1.700000X1.700000*%
%ADD16O,1.700000X1.700000*%
%ADD17C,1.600000*%
%ADD18O,1.600000X1.600000*%
%ADD19O,2.000000X1.905000*%
%ADD20R,2.000000X1.905000*%
%ADD21O,3.500000X3.500000*%
%ADD22RoundRect,0.237500X-0.287500X-0.237500X0.287500X-0.237500X0.287500X0.237500X-0.287500X0.237500X0*%
%ADD23RoundRect,0.317500X-1.157500X-0.317500X1.157500X-0.317500X1.157500X0.317500X-1.157500X0.317500X0*%
%ADD24RoundRect,0.150000X-0.150000X0.512500X-0.150000X-0.512500X0.150000X-0.512500X0.150000X0.512500X0*%
%ADD25RoundRect,0.237500X0.300000X0.237500X-0.300000X0.237500X-0.300000X-0.237500X0.300000X-0.237500X0*%
%ADD26R,0.558800X0.952500*%
%ADD27RoundRect,0.237500X0.237500X-0.250000X0.237500X0.250000X-0.237500X0.250000X-0.237500X-0.250000X0*%
%ADD28FreePoly2,180.000000*%
%ADD29FreePoly3,180.000000*%
%ADD30RoundRect,0.237500X0.287500X0.237500X-0.287500X0.237500X-0.287500X-0.237500X0.287500X-0.237500X0*%
%ADD31RoundRect,0.237500X-0.237500X0.250000X-0.237500X-0.250000X0.237500X-0.250000X0.237500X0.250000X0*%
%ADD32RoundRect,0.150000X0.512500X0.150000X-0.512500X0.150000X-0.512500X-0.150000X0.512500X-0.150000X0*%
%ADD33C,2.540000*%
%ADD34C,2.640000*%
%ADD35RoundRect,0.237500X-0.237500X0.300000X-0.237500X-0.300000X0.237500X-0.300000X0.237500X0.300000X0*%
%ADD36R,2.300000X2.300000*%
%ADD37RoundRect,0.062500X-0.062500X-0.375000X0.062500X-0.375000X0.062500X0.375000X-0.062500X0.375000X0*%
%ADD38RoundRect,0.062500X-0.375000X-0.062500X0.375000X-0.062500X0.375000X0.062500X-0.375000X0.062500X0*%
%ADD39R,1.295400X0.965200*%
%ADD40C,1.050000*%
%ADD41R,0.952500X0.558800*%
%ADD42O,1.000000X1.800000*%
%ADD43O,1.000000X2.100000*%
%ADD44RoundRect,0.075000X0.075000X0.500000X-0.075000X0.500000X-0.075000X-0.500000X0.075000X-0.500000X0*%
%ADD45RoundRect,0.150000X0.150000X0.425000X-0.150000X0.425000X-0.150000X-0.425000X0.150000X-0.425000X0*%
%ADD46C,0.650000*%
%ADD47RoundRect,0.237500X0.237500X-0.287500X0.237500X0.287500X-0.237500X0.287500X-0.237500X-0.287500X0*%
%ADD48RoundRect,0.100000X-0.200000X-0.300000X0.200000X-0.300000X0.200000X0.300000X-0.200000X0.300000X0*%
%ADD49RoundRect,0.100000X-0.300000X-0.300000X0.300000X-0.300000X0.300000X0.300000X-0.300000X0.300000X0*%
%ADD50RoundRect,0.100000X-0.300000X-0.200000X0.300000X-0.200000X0.300000X0.200000X-0.300000X0.200000X0*%
%ADD51RoundRect,0.237500X0.250000X0.237500X-0.250000X0.237500X-0.250000X-0.237500X0.250000X-0.237500X0*%
%ADD52C,3.500000*%
G04 APERTURE END LIST*
D10*
X181622493Y-53619819D02*
X181622493Y-54334104D01*
X181622493Y-54334104D02*
X181574874Y-54476961D01*
X181574874Y-54476961D02*
X181479636Y-54572200D01*
X181479636Y-54572200D02*
X181336779Y-54619819D01*
X181336779Y-54619819D02*
X181241541Y-54619819D01*
X182574874Y-54619819D02*
X182098684Y-54619819D01*
X182098684Y-54619819D02*
X182098684Y-53619819D01*
X183479636Y-54524580D02*
X183432017Y-54572200D01*
X183432017Y-54572200D02*
X183289160Y-54619819D01*
X183289160Y-54619819D02*
X183193922Y-54619819D01*
X183193922Y-54619819D02*
X183051065Y-54572200D01*
X183051065Y-54572200D02*
X182955827Y-54476961D01*
X182955827Y-54476961D02*
X182908208Y-54381723D01*
X182908208Y-54381723D02*
X182860589Y-54191247D01*
X182860589Y-54191247D02*
X182860589Y-54048390D01*
X182860589Y-54048390D02*
X182908208Y-53857914D01*
X182908208Y-53857914D02*
X182955827Y-53762676D01*
X182955827Y-53762676D02*
X183051065Y-53667438D01*
X183051065Y-53667438D02*
X183193922Y-53619819D01*
X183193922Y-53619819D02*
X183289160Y-53619819D01*
X183289160Y-53619819D02*
X183432017Y-53667438D01*
X183432017Y-53667438D02*
X183479636Y-53715057D01*
X184193922Y-53619819D02*
X184193922Y-54334104D01*
X184193922Y-54334104D02*
X184146303Y-54476961D01*
X184146303Y-54476961D02*
X184051065Y-54572200D01*
X184051065Y-54572200D02*
X183908208Y-54619819D01*
X183908208Y-54619819D02*
X183812970Y-54619819D01*
X185146303Y-54619819D02*
X184670113Y-54619819D01*
X184670113Y-54619819D02*
X184670113Y-53619819D01*
X186051065Y-54524580D02*
X186003446Y-54572200D01*
X186003446Y-54572200D02*
X185860589Y-54619819D01*
X185860589Y-54619819D02*
X185765351Y-54619819D01*
X185765351Y-54619819D02*
X185622494Y-54572200D01*
X185622494Y-54572200D02*
X185527256Y-54476961D01*
X185527256Y-54476961D02*
X185479637Y-54381723D01*
X185479637Y-54381723D02*
X185432018Y-54191247D01*
X185432018Y-54191247D02*
X185432018Y-54048390D01*
X185432018Y-54048390D02*
X185479637Y-53857914D01*
X185479637Y-53857914D02*
X185527256Y-53762676D01*
X185527256Y-53762676D02*
X185622494Y-53667438D01*
X185622494Y-53667438D02*
X185765351Y-53619819D01*
X185765351Y-53619819D02*
X185860589Y-53619819D01*
X185860589Y-53619819D02*
X186003446Y-53667438D01*
X186003446Y-53667438D02*
X186051065Y-53715057D01*
X186765351Y-53619819D02*
X186765351Y-54334104D01*
X186765351Y-54334104D02*
X186717732Y-54476961D01*
X186717732Y-54476961D02*
X186622494Y-54572200D01*
X186622494Y-54572200D02*
X186479637Y-54619819D01*
X186479637Y-54619819D02*
X186384399Y-54619819D01*
X187717732Y-54619819D02*
X187241542Y-54619819D01*
X187241542Y-54619819D02*
X187241542Y-53619819D01*
X188622494Y-54524580D02*
X188574875Y-54572200D01*
X188574875Y-54572200D02*
X188432018Y-54619819D01*
X188432018Y-54619819D02*
X188336780Y-54619819D01*
X188336780Y-54619819D02*
X188193923Y-54572200D01*
X188193923Y-54572200D02*
X188098685Y-54476961D01*
X188098685Y-54476961D02*
X188051066Y-54381723D01*
X188051066Y-54381723D02*
X188003447Y-54191247D01*
X188003447Y-54191247D02*
X188003447Y-54048390D01*
X188003447Y-54048390D02*
X188051066Y-53857914D01*
X188051066Y-53857914D02*
X188098685Y-53762676D01*
X188098685Y-53762676D02*
X188193923Y-53667438D01*
X188193923Y-53667438D02*
X188336780Y-53619819D01*
X188336780Y-53619819D02*
X188432018Y-53619819D01*
X188432018Y-53619819D02*
X188574875Y-53667438D01*
X188574875Y-53667438D02*
X188622494Y-53715057D01*
X189336780Y-53619819D02*
X189336780Y-54334104D01*
X189336780Y-54334104D02*
X189289161Y-54476961D01*
X189289161Y-54476961D02*
X189193923Y-54572200D01*
X189193923Y-54572200D02*
X189051066Y-54619819D01*
X189051066Y-54619819D02*
X188955828Y-54619819D01*
X190289161Y-54619819D02*
X189812971Y-54619819D01*
X189812971Y-54619819D02*
X189812971Y-53619819D01*
X191193923Y-54524580D02*
X191146304Y-54572200D01*
X191146304Y-54572200D02*
X191003447Y-54619819D01*
X191003447Y-54619819D02*
X190908209Y-54619819D01*
X190908209Y-54619819D02*
X190765352Y-54572200D01*
X190765352Y-54572200D02*
X190670114Y-54476961D01*
X190670114Y-54476961D02*
X190622495Y-54381723D01*
X190622495Y-54381723D02*
X190574876Y-54191247D01*
X190574876Y-54191247D02*
X190574876Y-54048390D01*
X190574876Y-54048390D02*
X190622495Y-53857914D01*
X190622495Y-53857914D02*
X190670114Y-53762676D01*
X190670114Y-53762676D02*
X190765352Y-53667438D01*
X190765352Y-53667438D02*
X190908209Y-53619819D01*
X190908209Y-53619819D02*
X191003447Y-53619819D01*
X191003447Y-53619819D02*
X191146304Y-53667438D01*
X191146304Y-53667438D02*
X191193923Y-53715057D01*
D11*
X116500000Y-112500000D03*
X118325000Y-112500000D03*
X116500000Y-115250000D03*
X118325000Y-115250000D03*
D12*
X113650000Y-112500000D03*
D13*
X112350000Y-112500000D03*
D14*
X121250000Y-133362500D03*
X121250000Y-131637500D03*
D15*
X119000000Y-91540000D03*
D16*
X119000000Y-89000000D03*
X119000000Y-86460000D03*
D15*
X157500000Y-57000000D03*
D16*
X157500000Y-54460000D03*
X157500000Y-51920000D03*
X157500000Y-49380000D03*
X157500000Y-46840000D03*
X157500000Y-44300000D03*
D17*
X65420000Y-81500000D03*
D18*
X75580000Y-81500000D03*
D17*
X65420000Y-65500000D03*
D18*
X75580000Y-65500000D03*
D17*
X65420000Y-70500000D03*
D18*
X75580000Y-70500000D03*
D11*
X151087500Y-129750000D03*
X152912500Y-129750000D03*
D14*
X119000000Y-133362500D03*
X119000000Y-131637500D03*
D17*
X80230000Y-81500000D03*
D18*
X90390000Y-81500000D03*
D14*
X89800000Y-101862500D03*
X89800000Y-100137500D03*
D17*
X107750000Y-73000000D03*
X104250000Y-73000000D03*
D15*
X147125000Y-101800000D03*
D16*
X149665000Y-101800000D03*
D19*
X89000000Y-47420000D03*
X89000000Y-49960000D03*
D20*
X89000000Y-52500000D03*
D21*
X72340000Y-49960000D03*
D15*
X106000000Y-126800000D03*
X143975000Y-137500000D03*
D16*
X146515000Y-137500000D03*
X149055000Y-137500000D03*
D17*
X65420000Y-76500000D03*
D18*
X75580000Y-76500000D03*
D22*
X128875000Y-83750000D03*
X130625000Y-83750000D03*
D15*
X159250000Y-130750000D03*
D16*
X159250000Y-128210000D03*
X159250000Y-125670000D03*
X159250000Y-123130000D03*
D17*
X107750000Y-63450000D03*
X104250000Y-63450000D03*
D23*
X133475000Y-44000000D03*
X133475000Y-46000000D03*
X133475000Y-48000000D03*
X133475000Y-50000000D03*
X133475000Y-52000000D03*
X133475000Y-54000000D03*
X133475000Y-56000000D03*
X133475000Y-58000000D03*
X148525000Y-58000000D03*
X148525000Y-56000000D03*
X148525000Y-54000000D03*
X148525000Y-52000000D03*
X148525000Y-50000000D03*
X148525000Y-48000000D03*
X148525000Y-46000000D03*
X148525000Y-44000000D03*
D17*
X79000000Y-117320000D03*
D18*
X79000000Y-127480000D03*
D24*
X145450000Y-63862500D03*
X144500000Y-63862500D03*
X143550000Y-63862500D03*
X143550000Y-66137500D03*
X144500000Y-66137500D03*
X145450000Y-66137500D03*
D25*
X145412500Y-67862500D03*
X143687500Y-67862500D03*
D26*
X101854200Y-127818650D03*
X101854200Y-134181350D03*
X98145800Y-127818650D03*
X98145800Y-134181350D03*
D14*
X123500000Y-133362500D03*
X123500000Y-131637500D03*
D17*
X80420000Y-70500000D03*
D18*
X90580000Y-70500000D03*
D17*
X80420000Y-65500000D03*
D18*
X90580000Y-65500000D03*
D15*
X114275000Y-119200000D03*
D16*
X111735000Y-119200000D03*
D25*
X145412500Y-61862500D03*
X143687500Y-61862500D03*
D27*
X83800000Y-102112500D03*
X83800000Y-100287500D03*
D14*
X84600000Y-112862500D03*
X84600000Y-111137500D03*
D13*
X112350000Y-115000000D03*
D12*
X113650000Y-115000000D03*
D28*
X91000000Y-114000000D03*
D29*
X86428000Y-114000000D03*
D27*
X152750000Y-102912500D03*
X152750000Y-101087500D03*
D30*
X99875000Y-54000000D03*
X98125000Y-54000000D03*
D15*
X66500000Y-106225000D03*
D16*
X66500000Y-108765000D03*
D15*
X66500000Y-117775000D03*
D16*
X66500000Y-115235000D03*
D31*
X108000000Y-50587500D03*
X108000000Y-52412500D03*
D15*
X133975000Y-137500000D03*
D16*
X136515000Y-137500000D03*
X139055000Y-137500000D03*
D17*
X83800000Y-117320000D03*
D18*
X83800000Y-127480000D03*
D32*
X111525000Y-99500000D03*
X111525000Y-98550000D03*
X111525000Y-97600000D03*
X109250000Y-97600000D03*
X109250000Y-98550000D03*
X109250000Y-99500000D03*
D15*
X93000000Y-93000000D03*
X67725000Y-129000000D03*
D16*
X70265000Y-129000000D03*
X72805000Y-129000000D03*
D14*
X81400000Y-112662500D03*
X81400000Y-110937500D03*
D15*
X97000000Y-115000000D03*
D25*
X140662500Y-114400000D03*
X138937500Y-114400000D03*
D33*
X154500000Y-67250000D03*
D34*
X151960000Y-64710000D03*
X151960000Y-69790000D03*
X157040000Y-64710000D03*
X157040000Y-69790000D03*
D14*
X92000000Y-47362500D03*
X92000000Y-45637500D03*
D13*
X112250000Y-110000000D03*
D12*
X113550000Y-110000000D03*
D15*
X126000000Y-71925000D03*
D16*
X126000000Y-74465000D03*
D15*
X106000000Y-136200000D03*
D25*
X140662500Y-116600000D03*
X138937500Y-116600000D03*
D35*
X89000000Y-107137500D03*
X89000000Y-108862500D03*
D31*
X94400000Y-132087500D03*
X94400000Y-133912500D03*
D14*
X116750000Y-133362500D03*
X116750000Y-131637500D03*
D35*
X143000000Y-119137500D03*
X143000000Y-120862500D03*
D17*
X72420000Y-60500000D03*
D18*
X82580000Y-60500000D03*
D22*
X140375000Y-125000000D03*
X142125000Y-125000000D03*
D15*
X115300000Y-137000000D03*
D16*
X117840000Y-137000000D03*
X120380000Y-137000000D03*
X122920000Y-137000000D03*
X125460000Y-137000000D03*
X128000000Y-137000000D03*
D36*
X83000000Y-107000000D03*
D37*
X81750000Y-105062500D03*
X82250000Y-105062500D03*
X82750000Y-105062500D03*
X83250000Y-105062500D03*
X83750000Y-105062500D03*
X84250000Y-105062500D03*
D38*
X84937500Y-105750000D03*
X84937500Y-106250000D03*
X84937500Y-106750000D03*
X84937500Y-107250000D03*
X84937500Y-107750000D03*
X84937500Y-108250000D03*
D37*
X84250000Y-108937500D03*
X83750000Y-108937500D03*
X83250000Y-108937500D03*
X82750000Y-108937500D03*
X82250000Y-108937500D03*
X81750000Y-108937500D03*
D38*
X81062500Y-108250000D03*
X81062500Y-107750000D03*
X81062500Y-107250000D03*
X81062500Y-106750000D03*
X81062500Y-106250000D03*
X81062500Y-105750000D03*
D39*
X143000000Y-116771600D03*
X143000000Y-114028400D03*
D11*
X102087500Y-54000000D03*
X103912500Y-54000000D03*
D31*
X109750000Y-50587500D03*
X109750000Y-52412500D03*
D27*
X81800000Y-102112500D03*
X81800000Y-100287500D03*
D35*
X140800000Y-119137500D03*
X140800000Y-120862500D03*
X138600000Y-119137500D03*
X138600000Y-120862500D03*
D15*
X130275000Y-86750000D03*
D16*
X127735000Y-86750000D03*
D15*
X111000000Y-93000000D03*
D40*
X149920000Y-95500000D03*
X149920000Y-94230000D03*
X151190000Y-95500000D03*
X151190000Y-94230000D03*
X152460000Y-95500000D03*
X152460000Y-94230000D03*
X153730000Y-95500000D03*
X153730000Y-94230000D03*
X155000000Y-95500000D03*
X155000000Y-94230000D03*
D13*
X112250000Y-107500000D03*
D12*
X113550000Y-107500000D03*
D11*
X128837500Y-82000000D03*
X130662500Y-82000000D03*
D15*
X67725000Y-134250000D03*
D16*
X70265000Y-134250000D03*
X72805000Y-134250000D03*
D41*
X153637300Y-134791600D03*
X160000000Y-134791600D03*
X153637300Y-138500000D03*
X160000000Y-138500000D03*
D14*
X127750000Y-133362500D03*
X127750000Y-131637500D03*
D17*
X80420000Y-76500000D03*
D18*
X90580000Y-76500000D03*
D42*
X104680000Y-43585000D03*
D43*
X104680000Y-47765000D03*
D42*
X113320000Y-43585000D03*
D43*
X113320000Y-47765000D03*
D44*
X110750000Y-48340000D03*
X109750000Y-48340000D03*
X108250000Y-48340000D03*
X107250000Y-48340000D03*
D45*
X105800000Y-48340000D03*
X106600000Y-48340000D03*
D44*
X107750000Y-48340000D03*
X108750000Y-48340000D03*
X109250000Y-48340000D03*
X110250000Y-48340000D03*
D45*
X111400000Y-48340000D03*
X112200000Y-48340000D03*
D46*
X106110000Y-47265000D03*
X111890000Y-47265000D03*
D47*
X94400000Y-128875000D03*
X94400000Y-127125000D03*
D15*
X159000000Y-105000000D03*
D16*
X159000000Y-102460000D03*
X159000000Y-99920000D03*
D15*
X100000000Y-93000000D03*
D16*
X102540000Y-93000000D03*
X105080000Y-93000000D03*
D48*
X158000000Y-110000000D03*
X157500000Y-110800000D03*
X157000000Y-110000000D03*
X156500000Y-110800000D03*
X156000000Y-110000000D03*
X155500000Y-110800000D03*
X155000000Y-110000000D03*
X154500000Y-110800000D03*
X154000000Y-110000000D03*
X153500000Y-110800000D03*
X153000000Y-110000000D03*
X152500000Y-110800000D03*
X152000000Y-110000000D03*
X151500000Y-110800000D03*
X151000000Y-110000000D03*
X150500000Y-110800000D03*
X150000000Y-110000000D03*
X149500000Y-110800000D03*
X149000000Y-110000000D03*
X148500000Y-110800000D03*
X148000000Y-110000000D03*
D49*
X147000000Y-110000000D03*
D50*
X147000000Y-111000000D03*
X147800000Y-111500000D03*
X147000000Y-112000000D03*
X147800000Y-112500000D03*
X147000000Y-113000000D03*
X147800000Y-113500000D03*
X147000000Y-114000000D03*
X147800000Y-114500000D03*
X147000000Y-115000000D03*
X147800000Y-115500000D03*
X147000000Y-116000000D03*
X147800000Y-116500000D03*
X147000000Y-117000000D03*
X147800000Y-117500000D03*
X147000000Y-118000000D03*
D49*
X147000000Y-119000000D03*
D48*
X148000000Y-119000000D03*
X148500000Y-118200000D03*
X149000000Y-119000000D03*
X149500000Y-118200000D03*
X150000000Y-119000000D03*
X150500000Y-118200000D03*
X151000000Y-119000000D03*
X151500000Y-118200000D03*
X152000000Y-119000000D03*
X152500000Y-118200000D03*
X153000000Y-119000000D03*
X153500000Y-118200000D03*
X154000000Y-119000000D03*
X154500000Y-118200000D03*
X155000000Y-119000000D03*
X155500000Y-118200000D03*
X156000000Y-119000000D03*
X156500000Y-118200000D03*
X157000000Y-119000000D03*
X157500000Y-118200000D03*
X158000000Y-119000000D03*
D35*
X111387500Y-101687500D03*
X111387500Y-103412500D03*
D15*
X126250000Y-46420000D03*
D16*
X126250000Y-48960000D03*
X126250000Y-51500000D03*
X126250000Y-54040000D03*
D15*
X108000000Y-82000000D03*
D35*
X92000000Y-50637500D03*
X92000000Y-52362500D03*
D14*
X125750000Y-133362500D03*
X125750000Y-131637500D03*
D51*
X138412500Y-125000000D03*
X136587500Y-125000000D03*
D14*
X87850000Y-101912500D03*
X87850000Y-100187500D03*
D35*
X109387500Y-101687500D03*
X109387500Y-103412500D03*
D52*
X125000000Y-100000000D03*
X85000000Y-134500000D03*
X66500000Y-94000000D03*
X119250000Y-47500000D03*
M02*
