G04 #@! TF.GenerationSoftware,KiCad,Pcbnew,8.0.2-8.0.2-0~ubuntu20.04.1*
G04 #@! TF.CreationDate,2024-05-16T16:26:20-07:00*
G04 #@! TF.ProjectId,cpm_proj,63706d5f-7072-46f6-9a2e-6b696361645f,rev?*
G04 #@! TF.SameCoordinates,Original*
G04 #@! TF.FileFunction,Copper,L1,Top*
G04 #@! TF.FilePolarity,Positive*
%FSLAX46Y46*%
G04 Gerber Fmt 4.6, Leading zero omitted, Abs format (unit mm)*
G04 Created by KiCad (PCBNEW 8.0.2-8.0.2-0~ubuntu20.04.1) date 2024-05-16 16:26:20*
%MOMM*%
%LPD*%
G01*
G04 APERTURE LIST*
G04 Aperture macros list*
%AMRoundRect*
0 Rectangle with rounded corners*
0 $1 Rounding radius*
0 $2 $3 $4 $5 $6 $7 $8 $9 X,Y pos of 4 corners*
0 Add a 4 corners polygon primitive as box body*
4,1,4,$2,$3,$4,$5,$6,$7,$8,$9,$2,$3,0*
0 Add four circle primitives for the rounded corners*
1,1,$1+$1,$2,$3*
1,1,$1+$1,$4,$5*
1,1,$1+$1,$6,$7*
1,1,$1+$1,$8,$9*
0 Add four rect primitives between the rounded corners*
20,1,$1+$1,$2,$3,$4,$5,0*
20,1,$1+$1,$4,$5,$6,$7,0*
20,1,$1+$1,$6,$7,$8,$9,0*
20,1,$1+$1,$8,$9,$2,$3,0*%
%AMFreePoly0*
4,1,19,0.000000,0.744911,0.071157,0.744911,0.207708,0.704816,0.327430,0.627875,0.420627,0.520320,0.479746,0.390866,0.500000,0.250000,0.500000,-0.250000,0.479746,-0.390866,0.420627,-0.520320,0.327430,-0.627875,0.207708,-0.704816,0.071157,-0.744911,0.000000,-0.744911,0.000000,-0.750000,-0.500000,-0.750000,-0.500000,0.750000,0.000000,0.750000,0.000000,0.744911,0.000000,0.744911,
$1*%
%AMFreePoly1*
4,1,19,0.500000,-0.750000,0.000000,-0.750000,0.000000,-0.744911,-0.071157,-0.744911,-0.207708,-0.704816,-0.327430,-0.627875,-0.420627,-0.520320,-0.479746,-0.390866,-0.500000,-0.250000,-0.500000,0.250000,-0.479746,0.390866,-0.420627,0.520320,-0.327430,0.627875,-0.207708,0.704816,-0.071157,0.744911,0.000000,0.744911,0.000000,0.750000,0.500000,0.750000,0.500000,-0.750000,0.500000,-0.750000,
$1*%
%AMFreePoly2*
4,1,18,1.539298,1.666124,1.284085,1.499472,1.010804,1.275196,0.786528,1.001915,0.619876,0.690131,0.517252,0.351826,0.536000,0.000000,0.517252,-0.351826,0.619876,-0.690131,0.786528,-1.001915,1.010804,-1.275196,1.284085,-1.499472,1.539298,-1.666124,1.539298,-2.654300,-0.467302,-2.654300,-0.467302,2.654300,1.539298,2.654300,1.539298,1.666124,1.539298,1.666124,$1*%
%AMFreePoly3*
4,1,18,0.467302,-2.654300,-1.539298,-2.654300,-1.539298,-1.666124,-1.284085,-1.499472,-1.010804,-1.275196,-0.786528,-1.001915,-0.619876,-0.690131,-0.517252,-0.351826,-0.536000,0.000000,-0.517252,0.351826,-0.619876,0.690131,-0.786528,1.001915,-1.010804,1.275196,-1.284085,1.499472,-1.539298,1.666124,-1.539298,2.654300,0.467302,2.654300,0.467302,-2.654300,0.467302,-2.654300,$1*%
G04 Aperture macros list end*
G04 #@! TA.AperFunction,EtchedComponent*
%ADD10C,0.000000*%
G04 #@! TD*
G04 #@! TA.AperFunction,SMDPad,CuDef*
%ADD11RoundRect,0.237500X-0.250000X-0.237500X0.250000X-0.237500X0.250000X0.237500X-0.250000X0.237500X0*%
G04 #@! TD*
G04 #@! TA.AperFunction,SMDPad,CuDef*
%ADD12FreePoly0,0.000000*%
G04 #@! TD*
G04 #@! TA.AperFunction,SMDPad,CuDef*
%ADD13FreePoly1,0.000000*%
G04 #@! TD*
G04 #@! TA.AperFunction,SMDPad,CuDef*
%ADD14RoundRect,0.237500X0.237500X-0.300000X0.237500X0.300000X-0.237500X0.300000X-0.237500X-0.300000X0*%
G04 #@! TD*
G04 #@! TA.AperFunction,ComponentPad*
%ADD15R,1.700000X1.700000*%
G04 #@! TD*
G04 #@! TA.AperFunction,ComponentPad*
%ADD16O,1.700000X1.700000*%
G04 #@! TD*
G04 #@! TA.AperFunction,ComponentPad*
%ADD17C,1.600000*%
G04 #@! TD*
G04 #@! TA.AperFunction,ComponentPad*
%ADD18O,1.600000X1.600000*%
G04 #@! TD*
G04 #@! TA.AperFunction,ComponentPad*
%ADD19O,2.000000X1.905000*%
G04 #@! TD*
G04 #@! TA.AperFunction,ComponentPad*
%ADD20R,2.000000X1.905000*%
G04 #@! TD*
G04 #@! TA.AperFunction,SMDPad,CuDef*
%ADD21RoundRect,0.237500X-0.287500X-0.237500X0.287500X-0.237500X0.287500X0.237500X-0.287500X0.237500X0*%
G04 #@! TD*
G04 #@! TA.AperFunction,SMDPad,CuDef*
%ADD22RoundRect,0.317500X-1.157500X-0.317500X1.157500X-0.317500X1.157500X0.317500X-1.157500X0.317500X0*%
G04 #@! TD*
G04 #@! TA.AperFunction,SMDPad,CuDef*
%ADD23RoundRect,0.150000X-0.150000X0.512500X-0.150000X-0.512500X0.150000X-0.512500X0.150000X0.512500X0*%
G04 #@! TD*
G04 #@! TA.AperFunction,SMDPad,CuDef*
%ADD24RoundRect,0.237500X0.300000X0.237500X-0.300000X0.237500X-0.300000X-0.237500X0.300000X-0.237500X0*%
G04 #@! TD*
G04 #@! TA.AperFunction,SMDPad,CuDef*
%ADD25R,0.558800X0.952500*%
G04 #@! TD*
G04 #@! TA.AperFunction,SMDPad,CuDef*
%ADD26RoundRect,0.237500X0.237500X-0.250000X0.237500X0.250000X-0.237500X0.250000X-0.237500X-0.250000X0*%
G04 #@! TD*
G04 #@! TA.AperFunction,SMDPad,CuDef*
%ADD27FreePoly2,180.000000*%
G04 #@! TD*
G04 #@! TA.AperFunction,SMDPad,CuDef*
%ADD28FreePoly3,180.000000*%
G04 #@! TD*
G04 #@! TA.AperFunction,SMDPad,CuDef*
%ADD29RoundRect,0.237500X0.287500X0.237500X-0.287500X0.237500X-0.287500X-0.237500X0.287500X-0.237500X0*%
G04 #@! TD*
G04 #@! TA.AperFunction,SMDPad,CuDef*
%ADD30RoundRect,0.237500X-0.237500X0.250000X-0.237500X-0.250000X0.237500X-0.250000X0.237500X0.250000X0*%
G04 #@! TD*
G04 #@! TA.AperFunction,SMDPad,CuDef*
%ADD31RoundRect,0.150000X0.512500X0.150000X-0.512500X0.150000X-0.512500X-0.150000X0.512500X-0.150000X0*%
G04 #@! TD*
G04 #@! TA.AperFunction,ComponentPad*
%ADD32C,2.540000*%
G04 #@! TD*
G04 #@! TA.AperFunction,ComponentPad*
%ADD33C,2.640000*%
G04 #@! TD*
G04 #@! TA.AperFunction,SMDPad,CuDef*
%ADD34RoundRect,0.237500X-0.237500X0.300000X-0.237500X-0.300000X0.237500X-0.300000X0.237500X0.300000X0*%
G04 #@! TD*
G04 #@! TA.AperFunction,HeatsinkPad*
%ADD35R,2.300000X2.300000*%
G04 #@! TD*
G04 #@! TA.AperFunction,SMDPad,CuDef*
%ADD36RoundRect,0.062500X-0.062500X-0.375000X0.062500X-0.375000X0.062500X0.375000X-0.062500X0.375000X0*%
G04 #@! TD*
G04 #@! TA.AperFunction,SMDPad,CuDef*
%ADD37RoundRect,0.062500X-0.375000X-0.062500X0.375000X-0.062500X0.375000X0.062500X-0.375000X0.062500X0*%
G04 #@! TD*
G04 #@! TA.AperFunction,SMDPad,CuDef*
%ADD38R,1.295400X0.965200*%
G04 #@! TD*
G04 #@! TA.AperFunction,ComponentPad*
%ADD39C,1.050000*%
G04 #@! TD*
G04 #@! TA.AperFunction,SMDPad,CuDef*
%ADD40R,0.952500X0.558800*%
G04 #@! TD*
G04 #@! TA.AperFunction,ComponentPad*
%ADD41O,1.000000X1.800000*%
G04 #@! TD*
G04 #@! TA.AperFunction,ComponentPad*
%ADD42O,1.000000X2.100000*%
G04 #@! TD*
G04 #@! TA.AperFunction,SMDPad,CuDef*
%ADD43RoundRect,0.075000X0.075000X0.500000X-0.075000X0.500000X-0.075000X-0.500000X0.075000X-0.500000X0*%
G04 #@! TD*
G04 #@! TA.AperFunction,SMDPad,CuDef*
%ADD44RoundRect,0.150000X0.150000X0.425000X-0.150000X0.425000X-0.150000X-0.425000X0.150000X-0.425000X0*%
G04 #@! TD*
G04 #@! TA.AperFunction,SMDPad,CuDef*
%ADD45RoundRect,0.237500X0.237500X-0.287500X0.237500X0.287500X-0.237500X0.287500X-0.237500X-0.287500X0*%
G04 #@! TD*
G04 #@! TA.AperFunction,SMDPad,CuDef*
%ADD46R,0.400000X0.600000*%
G04 #@! TD*
G04 #@! TA.AperFunction,SMDPad,CuDef*
%ADD47R,0.600000X0.600000*%
G04 #@! TD*
G04 #@! TA.AperFunction,SMDPad,CuDef*
%ADD48R,0.600000X0.400000*%
G04 #@! TD*
G04 #@! TA.AperFunction,SMDPad,CuDef*
%ADD49RoundRect,0.237500X0.250000X0.237500X-0.250000X0.237500X-0.250000X-0.237500X0.250000X-0.237500X0*%
G04 #@! TD*
G04 #@! TA.AperFunction,ViaPad*
%ADD50C,0.600000*%
G04 #@! TD*
G04 #@! TA.AperFunction,Conductor*
%ADD51C,0.200000*%
G04 #@! TD*
G04 #@! TA.AperFunction,Conductor*
%ADD52C,0.600000*%
G04 #@! TD*
G04 #@! TA.AperFunction,Conductor*
%ADD53C,1.000000*%
G04 #@! TD*
G04 APERTURE END LIST*
D10*
G04 #@! TA.AperFunction,EtchedComponent*
G36*
X113250000Y-112800000D02*
G01*
X112750000Y-112800000D01*
X112750000Y-112200000D01*
X113250000Y-112200000D01*
X113250000Y-112800000D01*
G37*
G04 #@! TD.AperFunction*
G04 #@! TA.AperFunction,EtchedComponent*
G36*
X113250000Y-115300000D02*
G01*
X112750000Y-115300000D01*
X112750000Y-114700000D01*
X113250000Y-114700000D01*
X113250000Y-115300000D01*
G37*
G04 #@! TD.AperFunction*
G04 #@! TA.AperFunction,EtchedComponent*
G36*
X113150000Y-110300000D02*
G01*
X112650000Y-110300000D01*
X112650000Y-109700000D01*
X113150000Y-109700000D01*
X113150000Y-110300000D01*
G37*
G04 #@! TD.AperFunction*
G04 #@! TA.AperFunction,EtchedComponent*
G36*
X113150000Y-107800000D02*
G01*
X112650000Y-107800000D01*
X112650000Y-107200000D01*
X113150000Y-107200000D01*
X113150000Y-107800000D01*
G37*
G04 #@! TD.AperFunction*
D11*
X116500000Y-112500000D03*
X118325000Y-112500000D03*
X116500000Y-115250000D03*
X118325000Y-115250000D03*
D12*
X113650000Y-112500000D03*
D13*
X112350000Y-112500000D03*
D14*
X121250000Y-133362500D03*
X121250000Y-131637500D03*
D15*
X119000000Y-91540000D03*
D16*
X119000000Y-89000000D03*
X119000000Y-86460000D03*
D15*
X157500000Y-57000000D03*
D16*
X157500000Y-54460000D03*
X157500000Y-51920000D03*
X157500000Y-49380000D03*
X157500000Y-46840000D03*
X157500000Y-44300000D03*
D17*
X65420000Y-81500000D03*
D18*
X75580000Y-81500000D03*
D17*
X65420000Y-65500000D03*
D18*
X75580000Y-65500000D03*
D17*
X65420000Y-70500000D03*
D18*
X75580000Y-70500000D03*
D11*
X151087500Y-129750000D03*
X152912500Y-129750000D03*
D14*
X119000000Y-133362500D03*
X119000000Y-131637500D03*
D17*
X80230000Y-81500000D03*
D18*
X90390000Y-81500000D03*
D14*
X89800000Y-101862500D03*
X89800000Y-100137500D03*
D17*
X107750000Y-73000000D03*
X104250000Y-73000000D03*
D15*
X147125000Y-101800000D03*
D16*
X149665000Y-101800000D03*
D19*
X89000000Y-47420000D03*
X89000000Y-49960000D03*
D20*
X89000000Y-52500000D03*
D15*
X106000000Y-126800000D03*
X143975000Y-137500000D03*
D16*
X146515000Y-137500000D03*
X149055000Y-137500000D03*
D17*
X65420000Y-76500000D03*
D18*
X75580000Y-76500000D03*
D21*
X128875000Y-83750000D03*
X130625000Y-83750000D03*
D15*
X159250000Y-130750000D03*
D16*
X159250000Y-128210000D03*
X159250000Y-125670000D03*
X159250000Y-123130000D03*
D17*
X107750000Y-63450000D03*
X104250000Y-63450000D03*
D22*
X133475000Y-44000000D03*
X133475000Y-46000000D03*
X133475000Y-48000000D03*
X133475000Y-50000000D03*
X133475000Y-52000000D03*
X133475000Y-54000000D03*
X133475000Y-56000000D03*
X133475000Y-58000000D03*
X148525000Y-58000000D03*
X148525000Y-56000000D03*
X148525000Y-54000000D03*
X148525000Y-52000000D03*
X148525000Y-50000000D03*
X148525000Y-48000000D03*
X148525000Y-46000000D03*
X148525000Y-44000000D03*
D17*
X79000000Y-117320000D03*
D18*
X79000000Y-127480000D03*
D23*
X145450000Y-63862500D03*
X144500000Y-63862500D03*
X143550000Y-63862500D03*
X143550000Y-66137500D03*
X144500000Y-66137500D03*
X145450000Y-66137500D03*
D24*
X145412500Y-67862500D03*
X143687500Y-67862500D03*
D25*
X101854200Y-127818650D03*
X101854200Y-134181350D03*
X98145800Y-127818650D03*
X98145800Y-134181350D03*
D14*
X123500000Y-133362500D03*
X123500000Y-131637500D03*
D17*
X80420000Y-70500000D03*
D18*
X90580000Y-70500000D03*
D17*
X80420000Y-65500000D03*
D18*
X90580000Y-65500000D03*
D15*
X114275000Y-119200000D03*
D16*
X111735000Y-119200000D03*
D24*
X145412500Y-61862500D03*
X143687500Y-61862500D03*
D26*
X83800000Y-102112500D03*
X83800000Y-100287500D03*
D14*
X84600000Y-112862500D03*
X84600000Y-111137500D03*
D13*
X112350000Y-115000000D03*
D12*
X113650000Y-115000000D03*
D27*
X91000000Y-114000000D03*
D28*
X86428000Y-114000000D03*
D26*
X152750000Y-102912500D03*
X152750000Y-101087500D03*
D29*
X99875000Y-54000000D03*
X98125000Y-54000000D03*
D15*
X66500000Y-106225000D03*
D16*
X66500000Y-108765000D03*
D15*
X66500000Y-117775000D03*
D16*
X66500000Y-115235000D03*
D30*
X108000000Y-50587500D03*
X108000000Y-52412500D03*
D15*
X133975000Y-137500000D03*
D16*
X136515000Y-137500000D03*
X139055000Y-137500000D03*
D17*
X83800000Y-117320000D03*
D18*
X83800000Y-127480000D03*
D31*
X111525000Y-99500000D03*
X111525000Y-98550000D03*
X111525000Y-97600000D03*
X109250000Y-97600000D03*
X109250000Y-98550000D03*
X109250000Y-99500000D03*
D15*
X93000000Y-93000000D03*
X67725000Y-129000000D03*
D16*
X70265000Y-129000000D03*
X72805000Y-129000000D03*
D14*
X81400000Y-112662500D03*
X81400000Y-110937500D03*
D15*
X97000000Y-115000000D03*
D24*
X140662500Y-114400000D03*
X138937500Y-114400000D03*
D32*
X154500000Y-67250000D03*
D33*
X151960000Y-64710000D03*
X151960000Y-69790000D03*
X157040000Y-64710000D03*
X157040000Y-69790000D03*
D14*
X92000000Y-47362500D03*
X92000000Y-45637500D03*
D13*
X112250000Y-110000000D03*
D12*
X113550000Y-110000000D03*
D15*
X126000000Y-71925000D03*
D16*
X126000000Y-74465000D03*
D15*
X106000000Y-136200000D03*
D24*
X140662500Y-116600000D03*
X138937500Y-116600000D03*
D34*
X89000000Y-107137500D03*
X89000000Y-108862500D03*
D30*
X94400000Y-132087500D03*
X94400000Y-133912500D03*
D14*
X116750000Y-133362500D03*
X116750000Y-131637500D03*
D34*
X143000000Y-119137500D03*
X143000000Y-120862500D03*
D17*
X72420000Y-60500000D03*
D18*
X82580000Y-60500000D03*
D21*
X140375000Y-125000000D03*
X142125000Y-125000000D03*
D15*
X115300000Y-137000000D03*
D16*
X117840000Y-137000000D03*
X120380000Y-137000000D03*
X122920000Y-137000000D03*
X125460000Y-137000000D03*
X128000000Y-137000000D03*
D35*
X83000000Y-107000000D03*
D36*
X81750000Y-105062500D03*
X82250000Y-105062500D03*
X82750000Y-105062500D03*
X83250000Y-105062500D03*
X83750000Y-105062500D03*
X84250000Y-105062500D03*
D37*
X84937500Y-105750000D03*
X84937500Y-106250000D03*
X84937500Y-106750000D03*
X84937500Y-107250000D03*
X84937500Y-107750000D03*
X84937500Y-108250000D03*
D36*
X84250000Y-108937500D03*
X83750000Y-108937500D03*
X83250000Y-108937500D03*
X82750000Y-108937500D03*
X82250000Y-108937500D03*
X81750000Y-108937500D03*
D37*
X81062500Y-108250000D03*
X81062500Y-107750000D03*
X81062500Y-107250000D03*
X81062500Y-106750000D03*
X81062500Y-106250000D03*
X81062500Y-105750000D03*
D38*
X143000000Y-116771600D03*
X143000000Y-114028400D03*
D11*
X102087500Y-54000000D03*
X103912500Y-54000000D03*
D30*
X109750000Y-50587500D03*
X109750000Y-52412500D03*
D26*
X81800000Y-102112500D03*
X81800000Y-100287500D03*
D34*
X140800000Y-119137500D03*
X140800000Y-120862500D03*
X138600000Y-119137500D03*
X138600000Y-120862500D03*
D15*
X130275000Y-86750000D03*
D16*
X127735000Y-86750000D03*
D15*
X111000000Y-93000000D03*
D39*
X149920000Y-95500000D03*
X149920000Y-94230000D03*
X151190000Y-95500000D03*
X151190000Y-94230000D03*
X152460000Y-95500000D03*
X152460000Y-94230000D03*
X153730000Y-95500000D03*
X153730000Y-94230000D03*
X155000000Y-95500000D03*
X155000000Y-94230000D03*
D13*
X112250000Y-107500000D03*
D12*
X113550000Y-107500000D03*
D11*
X128837500Y-82000000D03*
X130662500Y-82000000D03*
D15*
X67725000Y-134250000D03*
D16*
X70265000Y-134250000D03*
X72805000Y-134250000D03*
D40*
X153637300Y-134791600D03*
X160000000Y-134791600D03*
X153637300Y-138500000D03*
X160000000Y-138500000D03*
D14*
X127750000Y-133362500D03*
X127750000Y-131637500D03*
D17*
X80420000Y-76500000D03*
D18*
X90580000Y-76500000D03*
D41*
X104680000Y-43585000D03*
D42*
X104680000Y-47765000D03*
D41*
X113320000Y-43585000D03*
D42*
X113320000Y-47765000D03*
D43*
X110750000Y-48340000D03*
X109750000Y-48340000D03*
X108250000Y-48340000D03*
X107250000Y-48340000D03*
D44*
X105800000Y-48340000D03*
X106600000Y-48340000D03*
D43*
X107750000Y-48340000D03*
X108750000Y-48340000D03*
X109250000Y-48340000D03*
X110250000Y-48340000D03*
D44*
X111400000Y-48340000D03*
X112200000Y-48340000D03*
D45*
X94400000Y-128875000D03*
X94400000Y-127125000D03*
D15*
X159000000Y-105000000D03*
D16*
X159000000Y-102460000D03*
X159000000Y-99920000D03*
D15*
X100000000Y-93000000D03*
D16*
X102540000Y-93000000D03*
X105080000Y-93000000D03*
D46*
X158000000Y-110000000D03*
X157500000Y-110800000D03*
X157000000Y-110000000D03*
X156500000Y-110800000D03*
X156000000Y-110000000D03*
X155500000Y-110800000D03*
X155000000Y-110000000D03*
X154500000Y-110800000D03*
X154000000Y-110000000D03*
X153500000Y-110800000D03*
X153000000Y-110000000D03*
X152500000Y-110800000D03*
X152000000Y-110000000D03*
X151500000Y-110800000D03*
X151000000Y-110000000D03*
X150500000Y-110800000D03*
X150000000Y-110000000D03*
X149500000Y-110800000D03*
X149000000Y-110000000D03*
X148500000Y-110800000D03*
X148000000Y-110000000D03*
D47*
X147000000Y-110000000D03*
D48*
X147000000Y-111000000D03*
X147800000Y-111500000D03*
X147000000Y-112000000D03*
X147800000Y-112500000D03*
X147000000Y-113000000D03*
X147800000Y-113500000D03*
X147000000Y-114000000D03*
X147800000Y-114500000D03*
X147000000Y-115000000D03*
X147800000Y-115500000D03*
X147000000Y-116000000D03*
X147800000Y-116500000D03*
X147000000Y-117000000D03*
X147800000Y-117500000D03*
X147000000Y-118000000D03*
D47*
X147000000Y-119000000D03*
D46*
X148000000Y-119000000D03*
X148500000Y-118200000D03*
X149000000Y-119000000D03*
X149500000Y-118200000D03*
X150000000Y-119000000D03*
X150500000Y-118200000D03*
X151000000Y-119000000D03*
X151500000Y-118200000D03*
X152000000Y-119000000D03*
X152500000Y-118200000D03*
X153000000Y-119000000D03*
X153500000Y-118200000D03*
X154000000Y-119000000D03*
X154500000Y-118200000D03*
X155000000Y-119000000D03*
X155500000Y-118200000D03*
X156000000Y-119000000D03*
X156500000Y-118200000D03*
X157000000Y-119000000D03*
X157500000Y-118200000D03*
X158000000Y-119000000D03*
D34*
X111387500Y-101687500D03*
X111387500Y-103412500D03*
D15*
X126250000Y-46420000D03*
D16*
X126250000Y-48960000D03*
X126250000Y-51500000D03*
X126250000Y-54040000D03*
D15*
X108000000Y-82000000D03*
D34*
X92000000Y-50637500D03*
X92000000Y-52362500D03*
D14*
X125750000Y-133362500D03*
X125750000Y-131637500D03*
D49*
X138412500Y-125000000D03*
X136587500Y-125000000D03*
D14*
X87850000Y-101912500D03*
X87850000Y-100187500D03*
D34*
X109387500Y-101687500D03*
X109387500Y-103412500D03*
D50*
X85919053Y-105199999D03*
X94200000Y-105200000D03*
X97200000Y-98800000D03*
X101800000Y-109000018D03*
X109750000Y-53750000D03*
X90800000Y-100200000D03*
X92400000Y-44400000D03*
X100500000Y-63500000D03*
X90200000Y-108800000D03*
X82800000Y-100200000D03*
X94400000Y-135000000D03*
X108000000Y-53750000D03*
X131750000Y-82000000D03*
X81000000Y-109250000D03*
X111400000Y-104600000D03*
X80400000Y-111800000D03*
X83250000Y-104000000D03*
X105000000Y-54000000D03*
X84400000Y-110000000D03*
X110412499Y-98443597D03*
X109400000Y-104600000D03*
X135000000Y-119000004D03*
X137750000Y-69750000D03*
X142250000Y-66500000D03*
X146500008Y-124346008D03*
X148400000Y-95500000D03*
X151100000Y-125500000D03*
X135000000Y-102250000D03*
X138000000Y-95600000D03*
X155904000Y-103037552D03*
X152750000Y-107500000D03*
X154250000Y-105750000D03*
X155250000Y-120500000D03*
X155907842Y-123092158D03*
X152900000Y-122750000D03*
X154654000Y-122750000D03*
X133424265Y-112924265D03*
X133750000Y-108750000D03*
X124500000Y-128000000D03*
X147444371Y-127480525D03*
X125250000Y-128750000D03*
X148423845Y-128423845D03*
X144500000Y-69000000D03*
X144500000Y-61000000D03*
X131200000Y-43600000D03*
X151000000Y-55250000D03*
X131200000Y-58600000D03*
X137749563Y-111999563D03*
X134750000Y-131500000D03*
X145500000Y-109500000D03*
X136750000Y-134250000D03*
X138890662Y-107040662D03*
X148750000Y-106000000D03*
X138823883Y-107955971D03*
X138686705Y-111910951D03*
X139719615Y-106550000D03*
X139600000Y-108150000D03*
X148250000Y-105250000D03*
X139750000Y-112400000D03*
X140324696Y-105750000D03*
X140500000Y-108150000D03*
X140500000Y-113000000D03*
X144751472Y-109800000D03*
X149600000Y-115500000D03*
X156414435Y-112476147D03*
X156250000Y-108000000D03*
X156440800Y-101346000D03*
X156000000Y-98750000D03*
X74100000Y-99000000D03*
X71000000Y-99250000D03*
X82450000Y-111200000D03*
X74233627Y-104266371D03*
X73480000Y-101500000D03*
X76180000Y-103028528D03*
X74980000Y-102750000D03*
X149000000Y-116250000D03*
X143500000Y-109400000D03*
X150673531Y-109000000D03*
X153250000Y-59250000D03*
X156250000Y-116000000D03*
X150500006Y-62750000D03*
X128750000Y-51250000D03*
X149750000Y-108500000D03*
X128750000Y-53750000D03*
X155000000Y-116250000D03*
X153250000Y-112000000D03*
X153750000Y-102000000D03*
X84800000Y-104600000D03*
X95000000Y-104600000D03*
X108400000Y-99600000D03*
X106200000Y-100800000D03*
X98500735Y-105200000D03*
X82600000Y-103400000D03*
X100400000Y-127200000D03*
X137499391Y-116066777D03*
X152800000Y-100000000D03*
X147600000Y-120200000D03*
X116750000Y-134500000D03*
X119000000Y-134500000D03*
X158600000Y-120400000D03*
X146400000Y-109400000D03*
X144000000Y-121200000D03*
X127750000Y-134500000D03*
X152400000Y-120400000D03*
X160000000Y-139250000D03*
X121250000Y-134500000D03*
X158000000Y-108800000D03*
X123500000Y-134500000D03*
X135750000Y-125000000D03*
X125750000Y-134500000D03*
X153500000Y-139250000D03*
X105500000Y-97500000D03*
X107250000Y-109999992D03*
X108000000Y-106000000D03*
X106500000Y-50000000D03*
X111250000Y-50000000D03*
X148096004Y-124500000D03*
X154000000Y-124250000D03*
X149000000Y-109000000D03*
X154250000Y-116750000D03*
X154592892Y-51207108D03*
X153670000Y-50670000D03*
X129250000Y-42750000D03*
X130000000Y-54750000D03*
X149999984Y-61750000D03*
X151000000Y-50750000D03*
X75800000Y-114800000D03*
X80024265Y-105150000D03*
X75200000Y-115600000D03*
X80800000Y-104200000D03*
X153945131Y-103879972D03*
X152692000Y-104250000D03*
D51*
X74448630Y-65500000D02*
X71654000Y-68294630D01*
X78565785Y-107750000D02*
X81062500Y-107750000D01*
X73480000Y-101500000D02*
X72054000Y-100074000D01*
X72750000Y-68750000D02*
X77170000Y-68750000D01*
X75580000Y-65500000D02*
X74448630Y-65500000D01*
X72054000Y-100074000D02*
X72054000Y-69446000D01*
X72054000Y-69446000D02*
X72750000Y-68750000D01*
X71654000Y-100838215D02*
X78565785Y-107750000D01*
X65420000Y-81500000D02*
X71000000Y-87080000D01*
X71000000Y-87080000D02*
X71000000Y-99250000D01*
X77170000Y-68750000D02*
X80420000Y-65500000D01*
X71654000Y-68294630D02*
X71654000Y-100838215D01*
X138890662Y-107040662D02*
X139000000Y-106931324D01*
X123500000Y-59500000D02*
X123500000Y-42750000D01*
X139000000Y-106931324D02*
X139000000Y-64250000D01*
X123500000Y-42750000D02*
X128250000Y-42750000D01*
X139000000Y-64250000D02*
X137000000Y-62250000D01*
X137000000Y-62250000D02*
X126250000Y-62250000D01*
X126250000Y-62250000D02*
X123500000Y-59500000D01*
X128250000Y-42750000D02*
X131500000Y-46000000D01*
X131500000Y-46000000D02*
X133475000Y-46000000D01*
X140750000Y-63737256D02*
X137662744Y-60650000D01*
X126250000Y-59987256D02*
X126250000Y-54040000D01*
X137165686Y-61850000D02*
X126415686Y-61850000D01*
X126912744Y-60650000D02*
X126250000Y-59987256D01*
X140250000Y-63802942D02*
X137497058Y-61050000D01*
X137662744Y-60650000D02*
X126912744Y-60650000D01*
X124800000Y-50410000D02*
X126250000Y-48960000D01*
X149000000Y-109000000D02*
X140750000Y-100750000D01*
X140750000Y-100750000D02*
X140750000Y-63737256D01*
X139719615Y-106550000D02*
X139519617Y-106550000D01*
X124400000Y-45970000D02*
X124400000Y-59268628D01*
X139519616Y-104919616D02*
X139400000Y-104800000D01*
X133475000Y-50000000D02*
X132000000Y-50000000D01*
X137497058Y-61050000D02*
X126747058Y-61050000D01*
X130500000Y-46500000D02*
X128750000Y-44750000D01*
X124800000Y-59102942D02*
X124800000Y-50410000D01*
X139519617Y-106550000D02*
X139519616Y-106550001D01*
X124400000Y-59268628D02*
X126581372Y-61450000D01*
X124000000Y-59434314D02*
X124000000Y-43500000D01*
X140324696Y-105074696D02*
X140324696Y-105750000D01*
X130500000Y-48500000D02*
X130500000Y-46500000D01*
X126747058Y-61050000D02*
X124800000Y-59102942D01*
X140250000Y-103500000D02*
X140250000Y-63802942D01*
X124000000Y-43500000D02*
X128250000Y-43500000D01*
X140500000Y-108000000D02*
X140924696Y-107575304D01*
X125620000Y-44750000D02*
X124400000Y-45970000D01*
X140924696Y-104174696D02*
X140250000Y-103500000D01*
X140924696Y-107575304D02*
X140924696Y-104174696D01*
X139800000Y-104550000D02*
X140324696Y-105074696D01*
X132000000Y-50000000D02*
X130500000Y-48500000D01*
X137331372Y-61450000D02*
X139800000Y-63918628D01*
X140500000Y-108150000D02*
X140500000Y-108000000D01*
X139800000Y-63918628D02*
X139800000Y-104550000D01*
X126581372Y-61450000D02*
X137331372Y-61450000D01*
X128750000Y-44750000D02*
X125620000Y-44750000D01*
X139400000Y-104800000D02*
X139400000Y-64084314D01*
X139519616Y-106550001D02*
X139519616Y-104919616D01*
X139400000Y-64084314D02*
X137165686Y-61850000D01*
X126415686Y-61850000D02*
X124000000Y-59434314D01*
X128250000Y-43500000D02*
X132750000Y-48000000D01*
D52*
X149749984Y-62000000D02*
X149999984Y-61750000D01*
X145550000Y-62000000D02*
X149749984Y-62000000D01*
D51*
X141550000Y-99875104D02*
X150250000Y-91175104D01*
X150250000Y-91175104D02*
X150250000Y-63000006D01*
X149194529Y-107096000D02*
X148770896Y-107096000D01*
X150673531Y-109000000D02*
X150673531Y-108575002D01*
X148770896Y-107096000D02*
X141550000Y-99875104D01*
X150250000Y-63000006D02*
X150500006Y-62750000D01*
X150673531Y-108575002D02*
X149194529Y-107096000D01*
X157500000Y-57000000D02*
X155500000Y-57000000D01*
X155500000Y-57000000D02*
X153250000Y-59250000D01*
D53*
X148525000Y-58000000D02*
X154500000Y-63975000D01*
X154500000Y-63975000D02*
X154500000Y-67250000D01*
D52*
X150250000Y-55250000D02*
X151000000Y-55250000D01*
X149500000Y-56000000D02*
X150250000Y-55250000D01*
X66500000Y-115235000D02*
X66500000Y-117775000D01*
D51*
X118325000Y-112500000D02*
X125250000Y-119425000D01*
X125250000Y-119425000D02*
X125250000Y-128750000D01*
X113650000Y-115000000D02*
X115150000Y-116500000D01*
X115150000Y-116500000D02*
X117075000Y-116500000D01*
X117075000Y-116500000D02*
X118325000Y-115250000D01*
X113650000Y-112500000D02*
X114650000Y-113500000D01*
X114650000Y-113500000D02*
X117325000Y-113500000D01*
X117325000Y-113500000D02*
X118325000Y-112500000D01*
X112350000Y-111745000D02*
X112650000Y-111445000D01*
X112650000Y-111445000D02*
X115445000Y-111445000D01*
X115445000Y-111445000D02*
X116500000Y-112500000D01*
X112350000Y-112500000D02*
X112350000Y-111745000D01*
X120500000Y-128000000D02*
X120500000Y-116500000D01*
X118325000Y-115250000D02*
X119250000Y-115250000D01*
X119250000Y-115250000D02*
X120500000Y-116500000D01*
X112350000Y-115000000D02*
X112350000Y-114245000D01*
X112350000Y-114245000D02*
X112650000Y-113945000D01*
X112650000Y-113945000D02*
X115195000Y-113945000D01*
X115195000Y-113945000D02*
X116500000Y-115250000D01*
X108654000Y-111304000D02*
X112350000Y-115000000D01*
D52*
X107250000Y-122422850D02*
X107250000Y-109999992D01*
D51*
X99000000Y-117400000D02*
X99000000Y-110625104D01*
X107770896Y-108096000D02*
X108654000Y-108979104D01*
X108301000Y-107696000D02*
X112350000Y-111745000D01*
X94200000Y-105200000D02*
X96696000Y-107696000D01*
X87000000Y-117400000D02*
X99000000Y-117400000D01*
X86428000Y-116828000D02*
X87000000Y-117400000D01*
X101529104Y-108096000D02*
X107770896Y-108096000D01*
X96696000Y-107696000D02*
X108301000Y-107696000D01*
X99000000Y-110625104D02*
X101529104Y-108096000D01*
D52*
X101854200Y-127818650D02*
X107250000Y-122422850D01*
D51*
X108654000Y-108979104D02*
X108654000Y-111304000D01*
X86428000Y-114000000D02*
X86428000Y-116828000D01*
X101800000Y-115165686D02*
X101800000Y-109000018D01*
X72805000Y-130000000D02*
X86965686Y-130000000D01*
X86965686Y-130000000D02*
X101800000Y-115165686D01*
X85750000Y-105250000D02*
X85869052Y-105250000D01*
X85869052Y-105250000D02*
X85919053Y-105199999D01*
D52*
X100000000Y-96000000D02*
X100000000Y-93000000D01*
X86500000Y-105750000D02*
X87850000Y-104400000D01*
X89800000Y-101862500D02*
X94137500Y-101862500D01*
X87850000Y-104400000D02*
X87850000Y-101912500D01*
D51*
X86500000Y-105750000D02*
X86500000Y-105901472D01*
X72805000Y-130000000D02*
X72805000Y-129000000D01*
X72805000Y-134250000D02*
X72805000Y-130000000D01*
X85651472Y-106750000D02*
X86500000Y-105901472D01*
D52*
X87850000Y-101912500D02*
X89750000Y-101912500D01*
X94137500Y-101862500D02*
X100000000Y-96000000D01*
X100000000Y-93000000D02*
X93000000Y-93000000D01*
D51*
X84937500Y-106750000D02*
X85651472Y-106750000D01*
D52*
X111387500Y-103412500D02*
X111387500Y-104587500D01*
X89000000Y-108862500D02*
X90137500Y-108862500D01*
X105255000Y-48340000D02*
X104680000Y-47765000D01*
X92000000Y-52362500D02*
X89137500Y-52362500D01*
X84600000Y-111137500D02*
X84600000Y-110200000D01*
X92000000Y-44800000D02*
X92000000Y-45637500D01*
X81262500Y-112662500D02*
X81400000Y-112662500D01*
X80400000Y-111800000D02*
X81262500Y-112662500D01*
X90800000Y-100200000D02*
X89862500Y-100200000D01*
D51*
X83250000Y-105062500D02*
X83250000Y-104000000D01*
D52*
X90137500Y-108862500D02*
X90200000Y-108800000D01*
D51*
X83250000Y-105062500D02*
X83250000Y-106750000D01*
X81800000Y-100287500D02*
X82712500Y-100287500D01*
X81312500Y-108937500D02*
X81000000Y-109250000D01*
D52*
X84600000Y-110200000D02*
X84400000Y-110000000D01*
D51*
X84250000Y-108937500D02*
X84250000Y-109850000D01*
D52*
X112200000Y-48340000D02*
X112745000Y-48340000D01*
X94400000Y-133912500D02*
X94400000Y-135000000D01*
D51*
X81750000Y-108937500D02*
X81312500Y-108937500D01*
D52*
X89800000Y-100137500D02*
X87900000Y-100137500D01*
D51*
X82712500Y-100287500D02*
X82800000Y-100200000D01*
D52*
X104250000Y-63450000D02*
X100550000Y-63450000D01*
D51*
X81825000Y-108175000D02*
X83000000Y-107000000D01*
D52*
X109387500Y-104587500D02*
X109400000Y-104600000D01*
D51*
X130662500Y-82000000D02*
X131750000Y-82000000D01*
X83800000Y-100287500D02*
X82887500Y-100287500D01*
D52*
X105800000Y-48340000D02*
X105255000Y-48340000D01*
D51*
X82887500Y-100287500D02*
X82800000Y-100200000D01*
X103912500Y-54000000D02*
X105000000Y-54000000D01*
X81825000Y-108862500D02*
X81825000Y-108175000D01*
D52*
X111387500Y-104587500D02*
X111400000Y-104600000D01*
D51*
X84250000Y-109850000D02*
X84400000Y-110000000D01*
D52*
X110518902Y-98550000D02*
X111525000Y-98550000D01*
X112745000Y-48340000D02*
X113320000Y-47765000D01*
X108000000Y-52412500D02*
X108000000Y-53750000D01*
D51*
X81750000Y-108937500D02*
X81825000Y-108862500D01*
D52*
X110412499Y-98443597D02*
X110518902Y-98550000D01*
X92400000Y-44400000D02*
X92000000Y-44800000D01*
X100550000Y-63450000D02*
X100500000Y-63500000D01*
X109387500Y-103412500D02*
X109387500Y-104587500D01*
X109750000Y-52412500D02*
X109750000Y-53750000D01*
D51*
X82250000Y-108937500D02*
X82250000Y-110087500D01*
X82250000Y-110087500D02*
X81400000Y-110937500D01*
D52*
X147000000Y-118000000D02*
X147300000Y-118000000D01*
X142612500Y-66137500D02*
X142250000Y-66500000D01*
X119000000Y-89000000D02*
X127750000Y-89000000D01*
X135950000Y-69750000D02*
X137750000Y-69750000D01*
X144500000Y-66950000D02*
X144500000Y-66137500D01*
D51*
X143000000Y-119137500D02*
X146500008Y-122637508D01*
X148500000Y-95600000D02*
X148500000Y-98000000D01*
D52*
X140500000Y-119137500D02*
X141000000Y-119137500D01*
X139000000Y-119137500D02*
X135137496Y-119137500D01*
X143550000Y-66137500D02*
X144500000Y-66137500D01*
D51*
X146500008Y-122637508D02*
X146500008Y-124346008D01*
X151087500Y-125512500D02*
X151087500Y-129750000D01*
X148400000Y-95500000D02*
X149920000Y-95500000D01*
X148500000Y-98000000D02*
X147125000Y-99375000D01*
D52*
X147300000Y-118000000D02*
X147800000Y-117500000D01*
X135000000Y-87000000D02*
X135000000Y-89250000D01*
X134975000Y-70725000D02*
X134975000Y-86975000D01*
X140500000Y-119137500D02*
X143000000Y-119137500D01*
X135000000Y-95500000D02*
X135000000Y-102250000D01*
X127750000Y-89000000D02*
X127735000Y-88985000D01*
X134750000Y-89000000D02*
X135000000Y-89250000D01*
X134975000Y-86975000D02*
X135000000Y-87000000D01*
D51*
X137900000Y-95500000D02*
X138000000Y-95600000D01*
D52*
X139000000Y-119137500D02*
X140500000Y-119137500D01*
X134975000Y-70725000D02*
X135950000Y-69750000D01*
X144137500Y-118000000D02*
X147000000Y-118000000D01*
D51*
X151100000Y-125500000D02*
X151087500Y-125512500D01*
D52*
X135137496Y-119137500D02*
X135000000Y-119000004D01*
X143000000Y-119137500D02*
X144137500Y-118000000D01*
X127735000Y-88985000D02*
X127735000Y-86750000D01*
X145412500Y-67862500D02*
X144500000Y-66950000D01*
X135000000Y-89250000D02*
X135000000Y-95500000D01*
D51*
X148400000Y-95500000D02*
X148500000Y-95600000D01*
X135000000Y-95500000D02*
X137900000Y-95500000D01*
D52*
X143550000Y-66137500D02*
X142612500Y-66137500D01*
X127750000Y-89000000D02*
X134750000Y-89000000D01*
D51*
X147125000Y-99375000D02*
X147125000Y-101800000D01*
X142628400Y-114400000D02*
X140662500Y-114400000D01*
X147800000Y-116500000D02*
X145828922Y-116500000D01*
X145828922Y-116500000D02*
X143357322Y-114028400D01*
X143000000Y-116771600D02*
X140834100Y-116771600D01*
X147000000Y-117000000D02*
X143228400Y-117000000D01*
X155500000Y-103250000D02*
X155712448Y-103037552D01*
X155712448Y-103037552D02*
X155904000Y-103037552D01*
X155500000Y-110800000D02*
X155500000Y-103250000D01*
X153000000Y-107750000D02*
X152750000Y-107500000D01*
X153000000Y-110000000D02*
X153000000Y-107750000D01*
X154500000Y-106000000D02*
X154250000Y-105750000D01*
X154500000Y-110800000D02*
X154500000Y-106000000D01*
X157500000Y-121380000D02*
X159250000Y-123130000D01*
X157500000Y-118200000D02*
X157500000Y-121380000D01*
X154500000Y-118200000D02*
X154500000Y-120717969D01*
X154500000Y-120717969D02*
X159250000Y-125467969D01*
X155250000Y-120500000D02*
X155250000Y-119250000D01*
X156900000Y-125860000D02*
X159250000Y-128210000D01*
X155250000Y-119250000D02*
X155000000Y-119000000D01*
X155907842Y-123092158D02*
X155907843Y-123092158D01*
X156900000Y-124084315D02*
X156900000Y-125860000D01*
X155907843Y-123092158D02*
X156900000Y-124084315D01*
X159250000Y-130750000D02*
X158200000Y-130750000D01*
X151000000Y-120850000D02*
X151000000Y-119000000D01*
X158200000Y-130750000D02*
X155904000Y-128454000D01*
X155904000Y-128454000D02*
X155904000Y-124000000D01*
X152900000Y-122750000D02*
X151000000Y-120850000D01*
X155904000Y-124000000D02*
X154654000Y-122750000D01*
X122725000Y-132412500D02*
X122725000Y-136805000D01*
X134084315Y-110850000D02*
X126750000Y-118184315D01*
X126306250Y-129943750D02*
X125193750Y-129943750D01*
X147800000Y-113500000D02*
X146500000Y-113500000D01*
X145034314Y-110850000D02*
X134084315Y-110850000D01*
X146000000Y-111815686D02*
X145034314Y-110850000D01*
X126750000Y-118184315D02*
X126750000Y-129500000D01*
X123500000Y-131637500D02*
X122725000Y-132412500D01*
X146500000Y-113500000D02*
X146000000Y-113000000D01*
X146000000Y-113000000D02*
X146000000Y-111815686D01*
X125193750Y-129943750D02*
X123500000Y-131637500D01*
X126750000Y-129500000D02*
X126306250Y-129943750D01*
X133750000Y-108750000D02*
X147850000Y-108750000D01*
X148500000Y-109400000D02*
X148500000Y-110800000D01*
X133424265Y-112924265D02*
X133325735Y-112924265D01*
X147850000Y-108750000D02*
X148500000Y-109400000D01*
X127750000Y-118500000D02*
X127750000Y-131637500D01*
X126975000Y-135975000D02*
X128000000Y-137000000D01*
X133325735Y-112924265D02*
X127750000Y-118500000D01*
X127750000Y-131637500D02*
X126975000Y-132412500D01*
X126975000Y-132412500D02*
X126975000Y-135975000D01*
X127250000Y-118250000D02*
X127250000Y-130137500D01*
X145500000Y-112000000D02*
X144750000Y-111250000D01*
X147000000Y-114000000D02*
X146434315Y-114000000D01*
X124500000Y-132887500D02*
X124500000Y-136040000D01*
X145500000Y-113065685D02*
X145500000Y-112000000D01*
X144750000Y-111250000D02*
X134250000Y-111250000D01*
X134250000Y-111250000D02*
X127250000Y-118250000D01*
X146434315Y-114000000D02*
X145500000Y-113065685D01*
X125750000Y-131637500D02*
X124500000Y-132887500D01*
X124500000Y-136040000D02*
X125460000Y-137000000D01*
X125750000Y-131637500D02*
X127250000Y-130137500D01*
X120380000Y-132507500D02*
X120380000Y-137000000D01*
X126250000Y-118000000D02*
X126250000Y-129250000D01*
X147800000Y-112500000D02*
X146400000Y-112500000D01*
X126000000Y-129500000D02*
X123387500Y-129500000D01*
X121250000Y-131637500D02*
X120380000Y-132507500D01*
X146400000Y-112500000D02*
X146400000Y-111650000D01*
X146400000Y-111650000D02*
X145150000Y-110400000D01*
X126250000Y-129250000D02*
X126000000Y-129500000D01*
X145150000Y-110400000D02*
X133850000Y-110400000D01*
X123387500Y-129500000D02*
X121250000Y-131637500D01*
X133850000Y-110400000D02*
X126250000Y-118000000D01*
X149500000Y-125424896D02*
X147444371Y-127480525D01*
X115300000Y-133087500D02*
X115300000Y-137000000D01*
X120387500Y-128000000D02*
X120500000Y-128000000D01*
X149500000Y-118200000D02*
X149500000Y-125424896D01*
X116750000Y-131637500D02*
X115300000Y-133087500D01*
X116750000Y-131637500D02*
X120387500Y-128000000D01*
X120500000Y-128000000D02*
X124500000Y-128000000D01*
X119000000Y-131250000D02*
X121500000Y-128750000D01*
X148423846Y-128423845D02*
X150500000Y-126347691D01*
X148423845Y-128423845D02*
X148423846Y-128423845D01*
X121500000Y-128750000D02*
X125250000Y-128750000D01*
X150500000Y-126347691D02*
X150500000Y-118200000D01*
X117840000Y-133218278D02*
X119000000Y-132058278D01*
X117840000Y-137000000D02*
X117840000Y-133218278D01*
D52*
X143687500Y-67862500D02*
X143687500Y-68187500D01*
X143687500Y-61862500D02*
X144500000Y-62675000D01*
X133075000Y-43600000D02*
X133475000Y-44000000D01*
X143687500Y-61812500D02*
X144500000Y-61000000D01*
X131200000Y-58600000D02*
X131800000Y-58000000D01*
X131800000Y-58000000D02*
X133475000Y-58000000D01*
X143687500Y-68187500D02*
X144500000Y-69000000D01*
X131200000Y-43600000D02*
X133075000Y-43600000D01*
X144500000Y-62675000D02*
X144500000Y-63862500D01*
D51*
X145500000Y-109600000D02*
X146900000Y-111000000D01*
X136515000Y-134485000D02*
X136750000Y-134250000D01*
X130050000Y-118384314D02*
X130050000Y-126800000D01*
X130050000Y-126800000D02*
X134750000Y-131500000D01*
X145500000Y-109500000D02*
X145500000Y-109600000D01*
X136515000Y-137500000D02*
X136515000Y-134485000D01*
X135467157Y-112967157D02*
X130050000Y-118384314D01*
X137749563Y-111999563D02*
X136781969Y-112967157D01*
X136781969Y-112967157D02*
X135467157Y-112967157D01*
X137147656Y-113450000D02*
X135550000Y-113450000D01*
X139719615Y-106550000D02*
X139719615Y-107060239D01*
X130450000Y-118550000D02*
X130450000Y-126331372D01*
X130450000Y-126331372D02*
X135684314Y-131565686D01*
X148750000Y-106000000D02*
X149500000Y-106750000D01*
X131750000Y-139500000D02*
X137055000Y-139500000D01*
X135684314Y-131565686D02*
X131750000Y-135500000D01*
X152000000Y-110000000D02*
X152000000Y-108600000D01*
X135550000Y-113450000D02*
X130450000Y-118550000D01*
X139719615Y-107060239D02*
X138823883Y-107955971D01*
X149500000Y-106750000D02*
X150150000Y-106750000D01*
X131750000Y-135500000D02*
X131750000Y-139500000D01*
X137055000Y-139500000D02*
X139055000Y-137500000D01*
X138686705Y-111910951D02*
X137147656Y-113450000D01*
X152000000Y-108600000D02*
X150200000Y-106800000D01*
X139750000Y-112400000D02*
X139034314Y-112400000D01*
X149250000Y-105250000D02*
X152500000Y-108500000D01*
X152500000Y-108500000D02*
X152500000Y-110800000D01*
X140350000Y-107400000D02*
X139600000Y-108150000D01*
X130850000Y-126165686D02*
X137217157Y-132532843D01*
X137217157Y-132532843D02*
X133975000Y-135775000D01*
X133975000Y-135775000D02*
X133975000Y-137500000D01*
X137584314Y-113850000D02*
X135834314Y-113850000D01*
X140324696Y-105750000D02*
X140350000Y-105775304D01*
X148250000Y-105250000D02*
X149250000Y-105250000D01*
X135834314Y-113850000D02*
X130850000Y-118834314D01*
X130850000Y-118834314D02*
X130850000Y-126165686D01*
X140350000Y-105775304D02*
X140350000Y-107400000D01*
X139034314Y-112400000D02*
X137584314Y-113850000D01*
X143701900Y-113000000D02*
X140500000Y-113000000D01*
X133475000Y-52000000D02*
X128250000Y-52000000D01*
X142750000Y-137500000D02*
X131250000Y-126000000D01*
X147800000Y-115500000D02*
X146201900Y-115500000D01*
X128250000Y-52000000D02*
X128000000Y-51750000D01*
X131250000Y-119000000D02*
X136000000Y-114250000D01*
X136000000Y-114250000D02*
X137750000Y-114250000D01*
X131250000Y-126000000D02*
X131250000Y-119000000D01*
X143975000Y-137500000D02*
X142750000Y-137500000D01*
X128000000Y-50710000D02*
X126250000Y-48960000D01*
X139000000Y-113000000D02*
X137750000Y-114250000D01*
X128000000Y-51750000D02*
X128000000Y-50710000D01*
X146201900Y-115500000D02*
X143701900Y-113000000D01*
X140500000Y-113000000D02*
X139000000Y-113000000D01*
X150000000Y-119000000D02*
X150000000Y-125849792D01*
X146515000Y-129334792D02*
X146515000Y-137500000D01*
X150000000Y-125849792D02*
X146515000Y-129334792D01*
X145250000Y-128250000D02*
X149000000Y-124500000D01*
X149000000Y-124500000D02*
X149000000Y-119000000D01*
X145250000Y-138375000D02*
X145250000Y-128250000D01*
X149055000Y-137500000D02*
X147905000Y-138650000D01*
X145525000Y-138650000D02*
X145250000Y-138375000D01*
X147905000Y-138650000D02*
X145525000Y-138650000D01*
D52*
X108000000Y-82000000D02*
X108000000Y-73250000D01*
X85750000Y-104000000D02*
X86000000Y-103750000D01*
D51*
X84937500Y-106250000D02*
X85389386Y-106250000D01*
X85750000Y-105889386D02*
X85750000Y-105250000D01*
D52*
X86000000Y-97300000D02*
X101300000Y-82000000D01*
X101300000Y-82000000D02*
X108000000Y-82000000D01*
X85750000Y-105250000D02*
X85750000Y-104000000D01*
D51*
X85389386Y-106250000D02*
X85750000Y-105889386D01*
D52*
X86000000Y-103750000D02*
X86000000Y-97300000D01*
D51*
X86000000Y-109312500D02*
X86000000Y-109500000D01*
D52*
X89500000Y-110500000D02*
X87000000Y-110500000D01*
X87000000Y-110500000D02*
X86000000Y-109500000D01*
D51*
X92000000Y-115000000D02*
X91000000Y-114000000D01*
D52*
X91000000Y-112000000D02*
X89500000Y-110500000D01*
D51*
X84937500Y-108250000D02*
X86000000Y-109312500D01*
X97000000Y-115000000D02*
X92000000Y-115000000D01*
X156000000Y-111400000D02*
X156000000Y-110000000D01*
X144751472Y-109800000D02*
X144551472Y-110000000D01*
X144551472Y-110000000D02*
X113550000Y-110000000D01*
X151900000Y-115500000D02*
X156000000Y-111400000D01*
X149600000Y-115500000D02*
X151900000Y-115500000D01*
X153500000Y-115390582D02*
X156414435Y-112476147D01*
X152912500Y-129750000D02*
X152912500Y-123912604D01*
X152912500Y-123912604D02*
X153500000Y-123325104D01*
X153500000Y-118200000D02*
X153500000Y-115390582D01*
X156000000Y-98750000D02*
X156000000Y-95230000D01*
X156250000Y-108000000D02*
X156558000Y-107692000D01*
X153500000Y-123325104D02*
X153500000Y-118200000D01*
X153637300Y-134791600D02*
X160000000Y-134791600D01*
X156558000Y-101463200D02*
X156440800Y-101346000D01*
X153637300Y-130474800D02*
X152912500Y-129750000D01*
X156558000Y-107692000D02*
X156558000Y-101463200D01*
X153637300Y-134791600D02*
X153637300Y-130474800D01*
X156000000Y-95230000D02*
X155000000Y-94230000D01*
X79750000Y-105750000D02*
X81062500Y-105750000D01*
X65420000Y-76500000D02*
X65420000Y-81500000D01*
X75280000Y-101280000D02*
X79750000Y-105750000D01*
X65420000Y-65500000D02*
X65420000Y-70500000D01*
X75280000Y-100680000D02*
X75280000Y-101280000D01*
X74100000Y-99500000D02*
X75280000Y-100680000D01*
X65420000Y-70500000D02*
X65420000Y-76500000D01*
X74100000Y-99000000D02*
X74100000Y-99500000D01*
X75580000Y-102501471D02*
X75580000Y-103632843D01*
X75580000Y-103632843D02*
X78697157Y-106750000D01*
X73500000Y-99540099D02*
X74880000Y-100920099D01*
X78697157Y-106750000D02*
X81062500Y-106750000D01*
X74880000Y-101801471D02*
X75580000Y-102501471D01*
X74880000Y-100920099D02*
X74880000Y-101801471D01*
X75580000Y-81500000D02*
X73500000Y-83580000D01*
X75580000Y-81500000D02*
X80230000Y-81500000D01*
X73500000Y-83580000D02*
X73500000Y-99540099D01*
X82450000Y-111200000D02*
X82650000Y-111000000D01*
X82750000Y-109901472D02*
X82750000Y-108937500D01*
X82650000Y-111000000D02*
X82650000Y-110001472D01*
X79000000Y-127480000D02*
X79000000Y-122120000D01*
X82650000Y-110001472D02*
X82750000Y-109901472D01*
X79000000Y-122120000D02*
X83800000Y-117320000D01*
X75580000Y-65500000D02*
X75580000Y-63660000D01*
X75580000Y-63660000D02*
X72420000Y-60500000D01*
X74233627Y-104332157D02*
X78151470Y-108250000D01*
X82580000Y-61670000D02*
X80420000Y-63830000D01*
X80420000Y-63830000D02*
X80420000Y-65500000D01*
X74233627Y-104266371D02*
X74233627Y-104332157D01*
X82580000Y-60500000D02*
X82580000Y-61670000D01*
X78151470Y-108250000D02*
X81062500Y-108250000D01*
X74480000Y-101085785D02*
X73000000Y-99605785D01*
X76180000Y-103028528D02*
X76180000Y-103331938D01*
X74480000Y-102250000D02*
X74480000Y-101085785D01*
X76180000Y-103331938D02*
X79098062Y-106250000D01*
X79098062Y-106250000D02*
X81062500Y-106250000D01*
X80420000Y-76500000D02*
X75580000Y-76500000D01*
X73000000Y-99605785D02*
X73000000Y-79080000D01*
X73000000Y-79080000D02*
X75580000Y-76500000D01*
X74980000Y-102750000D02*
X74480000Y-102250000D01*
X74080000Y-101251471D02*
X72500000Y-99671471D01*
X81062500Y-107250000D02*
X78631471Y-107250000D01*
X72500000Y-99671471D02*
X72500000Y-73580000D01*
X80420000Y-70500000D02*
X75580000Y-70500000D01*
X78631471Y-107250000D02*
X74080000Y-102698529D01*
X74080000Y-102698529D02*
X74080000Y-101251471D01*
X72500000Y-73580000D02*
X75580000Y-70500000D01*
X151715685Y-116250000D02*
X156500000Y-111465685D01*
X115450000Y-109400000D02*
X113550000Y-107500000D01*
X149000000Y-116250000D02*
X151715685Y-116250000D01*
X143500000Y-109400000D02*
X115450000Y-109400000D01*
X156500000Y-111465685D02*
X156500000Y-110800000D01*
X152234314Y-48000000D02*
X155400000Y-51165686D01*
X148525000Y-48000000D02*
X152234314Y-48000000D01*
X155400000Y-54900000D02*
X157500000Y-57000000D01*
X156250000Y-116500000D02*
X156500000Y-116750000D01*
X156500000Y-116750000D02*
X156500000Y-118200000D01*
X156250000Y-116000000D02*
X156250000Y-116500000D01*
X155400000Y-51165686D02*
X155400000Y-54900000D01*
X149500000Y-108500000D02*
X146250000Y-105250000D01*
X140589215Y-63010785D02*
X141178430Y-63600000D01*
X155000000Y-116250000D02*
X156000000Y-117250000D01*
X141178430Y-63600000D02*
X141178430Y-65500000D01*
X126250000Y-46420000D02*
X127170000Y-46420000D01*
X141150000Y-63571570D02*
X140589215Y-63010785D01*
X149750000Y-108500000D02*
X149500000Y-108500000D01*
X129000000Y-60250000D02*
X137828430Y-60250000D01*
X146250000Y-105250000D02*
X145815686Y-105250000D01*
X141178430Y-65500000D02*
X141503430Y-65175000D01*
X145815686Y-105250000D02*
X141150000Y-100584314D01*
X144840552Y-65175000D02*
X145450000Y-65784448D01*
X128750000Y-60000000D02*
X129000000Y-60250000D01*
X127170000Y-46420000D02*
X128750000Y-48000000D01*
X128750000Y-48000000D02*
X128750000Y-51250000D01*
X141503430Y-65175000D02*
X144840552Y-65175000D01*
X141150000Y-100584314D02*
X141150000Y-63571570D01*
X137828430Y-60250000D02*
X140589215Y-63010785D01*
X156000000Y-117250000D02*
X156000000Y-119000000D01*
X128750000Y-53750000D02*
X128750000Y-60000000D01*
X153250000Y-113500000D02*
X153250000Y-112000000D01*
X149500000Y-114000000D02*
X152750000Y-114000000D01*
X152750000Y-114000000D02*
X153250000Y-113500000D01*
X156750000Y-94750000D02*
X156750000Y-99000000D01*
X149000015Y-114499985D02*
X149500000Y-114000000D01*
X149000015Y-114500000D02*
X147800000Y-114500000D01*
X153285000Y-93405000D02*
X155405000Y-93405000D01*
X149000015Y-114500000D02*
X149000015Y-114499985D01*
X152460000Y-94230000D02*
X153285000Y-93405000D01*
X156750000Y-99000000D02*
X153750000Y-102000000D01*
X155405000Y-93405000D02*
X156750000Y-94750000D01*
X157000000Y-101711696D02*
X157000000Y-109048529D01*
X156105000Y-92605000D02*
X157550000Y-94050000D01*
X157500000Y-109548529D02*
X157500000Y-110800000D01*
X157550000Y-94050000D02*
X157550000Y-101161696D01*
X157000000Y-109048529D02*
X157500000Y-109548529D01*
X151545000Y-92605000D02*
X156105000Y-92605000D01*
X157550000Y-101161696D02*
X157000000Y-101711696D01*
X149920000Y-94230000D02*
X151545000Y-92605000D01*
X152415000Y-93005000D02*
X155755000Y-93005000D01*
X157150000Y-94400000D02*
X157150000Y-99766722D01*
X153291131Y-103625591D02*
X153291131Y-104150868D01*
X151190000Y-94230000D02*
X152415000Y-93005000D01*
X153500000Y-104359737D02*
X153500000Y-110800000D01*
X155755000Y-93005000D02*
X157150000Y-94400000D01*
X157150000Y-99766722D02*
X153291131Y-103625591D01*
X153291131Y-104150868D02*
X153500000Y-104359737D01*
X130275000Y-86750000D02*
X130275000Y-84100000D01*
X84337500Y-105062500D02*
X84800000Y-104600000D01*
X112250000Y-107500000D02*
X111500000Y-106750000D01*
X106200000Y-106750000D02*
X101000000Y-106750000D01*
X106200000Y-100800000D02*
X106200000Y-106750000D01*
X84250000Y-105062500D02*
X84337500Y-105062500D01*
X95000000Y-104600000D02*
X98850000Y-104600000D01*
X98850000Y-104600000D02*
X101000000Y-106750000D01*
X108500000Y-99500000D02*
X108400000Y-99600000D01*
X109250000Y-99500000D02*
X108500000Y-99500000D01*
X111500000Y-106750000D02*
X106200000Y-106750000D01*
X81800000Y-102600000D02*
X81800000Y-102112500D01*
X82600000Y-104198529D02*
X82600000Y-103400000D01*
X100450735Y-107150000D02*
X98500735Y-105200000D01*
X112250000Y-110000000D02*
X109400000Y-107150000D01*
X100450735Y-107150000D02*
X109400000Y-107150000D01*
X82600000Y-103400000D02*
X81800000Y-102600000D01*
X82750000Y-104348529D02*
X82600000Y-104198529D01*
X82750000Y-105062500D02*
X82750000Y-104348529D01*
D52*
X94511425Y-127236425D02*
X97563575Y-127236425D01*
X100400000Y-127200000D02*
X99781350Y-127818650D01*
X97563575Y-127236425D02*
X98145800Y-127818650D01*
X99781350Y-127818650D02*
X98145800Y-127818650D01*
X98145800Y-127818650D02*
X98145800Y-134181350D01*
X85290500Y-112862500D02*
X86428000Y-114000000D01*
D51*
X83250000Y-108937500D02*
X83250000Y-110250000D01*
D52*
X82600000Y-113975000D02*
X82600000Y-114000000D01*
X79000000Y-114000000D02*
X82600000Y-114000000D01*
X66500000Y-108765000D02*
X68015000Y-108765000D01*
X83712500Y-112862500D02*
X82600000Y-113975000D01*
X68015000Y-108765000D02*
X73250000Y-114000000D01*
D51*
X79000000Y-117320000D02*
X79000000Y-114000000D01*
D52*
X84600000Y-112862500D02*
X83712500Y-112862500D01*
X83250000Y-112400000D02*
X83250000Y-110250000D01*
X66500000Y-106225000D02*
X66500000Y-108765000D01*
X84600000Y-112862500D02*
X85290500Y-112862500D01*
X73250000Y-114000000D02*
X79000000Y-114000000D01*
X83712500Y-112862500D02*
X83250000Y-112400000D01*
D51*
X123500000Y-133362500D02*
X123500000Y-134500000D01*
D52*
X148000000Y-119000000D02*
X147600000Y-119000000D01*
X147000000Y-110000000D02*
X146400000Y-109400000D01*
X152400000Y-120400000D02*
X152000000Y-120000000D01*
D51*
X153637300Y-139112700D02*
X153500000Y-139250000D01*
X137499391Y-116066777D02*
X138937500Y-114628668D01*
X127750000Y-133362500D02*
X127750000Y-134500000D01*
D52*
X147600000Y-119000000D02*
X147000000Y-119000000D01*
X143000000Y-120862500D02*
X141000000Y-120862500D01*
D51*
X119000000Y-133362500D02*
X119000000Y-134500000D01*
X121250000Y-133362500D02*
X121250000Y-134500000D01*
X125750000Y-133362500D02*
X125750000Y-134500000D01*
X153637300Y-138500000D02*
X153637300Y-139112700D01*
X158000000Y-108800000D02*
X158000000Y-110000000D01*
X138937500Y-116600000D02*
X138032614Y-116600000D01*
X158000000Y-119000000D02*
X158200000Y-119200000D01*
X152750000Y-101087500D02*
X152750000Y-100050000D01*
X138032614Y-116600000D02*
X137499391Y-116066777D01*
D52*
X158600000Y-120400000D02*
X158475736Y-120400000D01*
X144000000Y-121200000D02*
X143662500Y-120862500D01*
D51*
X116750000Y-133362500D02*
X116750000Y-134500000D01*
D52*
X158475736Y-120400000D02*
X158200000Y-120124264D01*
D51*
X158200000Y-119200000D02*
X158200000Y-119400000D01*
X136587500Y-125000000D02*
X135750000Y-125000000D01*
D52*
X158200000Y-120124264D02*
X158200000Y-119400000D01*
X152000000Y-120000000D02*
X152000000Y-119000000D01*
X139000000Y-120862500D02*
X141000000Y-120862500D01*
X147600000Y-119000000D02*
X147600000Y-120200000D01*
D51*
X160000000Y-138500000D02*
X160000000Y-139250000D01*
D52*
X143662500Y-120862500D02*
X143000000Y-120862500D01*
D51*
X152750000Y-100050000D02*
X152800000Y-100000000D01*
D52*
X108912500Y-101687500D02*
X109387500Y-101687500D01*
X109150000Y-97500000D02*
X109250000Y-97600000D01*
X108000000Y-103075000D02*
X108000000Y-106000000D01*
X109250000Y-97600000D02*
X109250000Y-98550000D01*
X108318629Y-98550000D02*
X107600000Y-99268629D01*
X105500000Y-97500000D02*
X109150000Y-97500000D01*
X109387500Y-101687500D02*
X108000000Y-103075000D01*
X109250000Y-98550000D02*
X108318629Y-98550000D01*
X107600000Y-99268629D02*
X107600000Y-100375000D01*
D51*
X101854200Y-127818650D02*
X101854200Y-134181350D01*
D52*
X107600000Y-100375000D02*
X108912500Y-101687500D01*
X111525000Y-99500000D02*
X112187499Y-99500000D01*
X112187499Y-99500000D02*
X119000000Y-92687499D01*
X111387500Y-101687500D02*
X111387500Y-99637500D01*
X119000000Y-92687499D02*
X119000000Y-91540000D01*
X111387500Y-99637500D02*
X111525000Y-99500000D01*
X97750000Y-50000000D02*
X95112500Y-47362500D01*
X89000000Y-47420000D02*
X91942500Y-47420000D01*
X106600000Y-49900000D02*
X106600000Y-48340000D01*
X106500000Y-50000000D02*
X97750000Y-50000000D01*
X111400000Y-48340000D02*
X111400000Y-49850000D01*
X106500000Y-50000000D02*
X106600000Y-49900000D01*
X111400000Y-49850000D02*
X111250000Y-50000000D01*
X95112500Y-47362500D02*
X92000000Y-47362500D01*
X98000000Y-56000000D02*
X113750000Y-56000000D01*
X119000000Y-83000000D02*
X119000000Y-86460000D01*
X89000000Y-49960000D02*
X91322500Y-49960000D01*
D51*
X98125000Y-54000000D02*
X98125000Y-55875000D01*
D52*
X95250000Y-56000000D02*
X98000000Y-56000000D01*
X92387500Y-50637500D02*
X95250000Y-53500000D01*
X91322500Y-49960000D02*
X92000000Y-50637500D01*
X95250000Y-53500000D02*
X95250000Y-56000000D01*
X115250000Y-79250000D02*
X119000000Y-83000000D01*
X113750000Y-56000000D02*
X115250000Y-57500000D01*
X92000000Y-50637500D02*
X92387500Y-50637500D01*
X115250000Y-57500000D02*
X115250000Y-79250000D01*
D51*
X98125000Y-55875000D02*
X98000000Y-56000000D01*
D52*
X107750000Y-69500000D02*
X107750000Y-63450000D01*
X104250000Y-73000000D02*
X107750000Y-69500000D01*
X94400000Y-128875000D02*
X94400000Y-132087500D01*
D51*
X99875000Y-54000000D02*
X102087500Y-54000000D01*
X128875000Y-83750000D02*
X128875000Y-82037500D01*
X138412500Y-125000000D02*
X140537500Y-125000000D01*
X154000000Y-124250000D02*
X154000000Y-119000000D01*
X147596004Y-125000000D02*
X148096004Y-124500000D01*
X142287500Y-125000000D02*
X147596004Y-125000000D01*
X110250000Y-50087500D02*
X110250000Y-48340000D01*
X109750000Y-50587500D02*
X110250000Y-50087500D01*
X107250000Y-49837500D02*
X108000000Y-50587500D01*
X107250000Y-48340000D02*
X107250000Y-49837500D01*
X132500000Y-54000000D02*
X131250000Y-52750000D01*
X131250000Y-52750000D02*
X127540000Y-52750000D01*
X127540000Y-52750000D02*
X126250000Y-54040000D01*
X155500000Y-118000000D02*
X154250000Y-116750000D01*
X149580000Y-44000000D02*
X157500000Y-51920000D01*
X151800000Y-54000000D02*
X148525000Y-54000000D01*
X154592892Y-51207108D02*
X151800000Y-54000000D01*
X153670000Y-50670000D02*
X152340000Y-52000000D01*
X152340000Y-52000000D02*
X148525000Y-52000000D01*
X129250000Y-42500000D02*
X129250000Y-42750000D01*
X129750000Y-42000000D02*
X129250000Y-42500000D01*
X130000000Y-54750000D02*
X131250000Y-56000000D01*
X155200000Y-42000000D02*
X129750000Y-42000000D01*
X131250000Y-56000000D02*
X133475000Y-56000000D01*
X155200000Y-42000000D02*
X157500000Y-44300000D01*
X155800000Y-51000000D02*
X155800000Y-52760000D01*
X150800000Y-46000000D02*
X155800000Y-51000000D01*
X155800000Y-52760000D02*
X157500000Y-54460000D01*
X149040000Y-46000000D02*
X150800000Y-46000000D01*
D52*
X145412500Y-63825000D02*
X145450000Y-63862500D01*
X145412500Y-61862500D02*
X145412500Y-63825000D01*
X148525000Y-50000000D02*
X150250000Y-50000000D01*
X150250000Y-50000000D02*
X151000000Y-50750000D01*
X89000000Y-107137500D02*
X86112500Y-107137500D01*
X89000000Y-107137500D02*
X90942500Y-107137500D01*
X90942500Y-107137500D02*
X105080000Y-93000000D01*
X105080000Y-93000000D02*
X111000000Y-93000000D01*
D51*
X85500000Y-107750000D02*
X86000000Y-107250000D01*
X84937500Y-107750000D02*
X85500000Y-107750000D01*
D52*
X86112500Y-107137500D02*
X86000000Y-107250000D01*
D51*
X86000000Y-107250000D02*
X84937500Y-107250000D01*
X80111765Y-105062500D02*
X80024265Y-105150000D01*
X71415000Y-133100000D02*
X70265000Y-134250000D01*
X75800000Y-124000000D02*
X71415000Y-128385000D01*
X71415000Y-128385000D02*
X71415000Y-133100000D01*
X75800000Y-114800000D02*
X75800000Y-124000000D01*
X81750000Y-105062500D02*
X80111765Y-105062500D01*
X80800000Y-104200000D02*
X81839386Y-104200000D01*
X81839386Y-104200000D02*
X82250000Y-104610614D01*
X75400000Y-115800000D02*
X75200000Y-115600000D01*
X82250000Y-104610614D02*
X82250000Y-105062500D01*
X75400000Y-123800000D02*
X75400000Y-115800000D01*
X70265000Y-128935000D02*
X75400000Y-123800000D01*
X83850000Y-104350000D02*
X83750000Y-104450000D01*
X83750000Y-104450000D02*
X83750000Y-105062500D01*
X83850000Y-102162500D02*
X83850000Y-104350000D01*
X155000000Y-104934841D02*
X153945131Y-103879972D01*
X152750000Y-104192000D02*
X152692000Y-104250000D01*
X151637500Y-101800000D02*
X152750000Y-102912500D01*
X149665000Y-101800000D02*
X151637500Y-101800000D01*
X152750000Y-102912500D02*
X152750000Y-104192000D01*
X155000000Y-110000000D02*
X155000000Y-104934841D01*
M02*
